<mxfile host="65bd71144e">
    <diagram id="KarloJftPO5sKpIFNSJ0" name="Page-1">
        <mxGraphModel dx="1387" dy="1217" grid="0" gridSize="10" guides="1" tooltips="1" connect="1" arrows="1" fold="1" page="0" pageScale="1" pageWidth="850" pageHeight="1100" math="0" shadow="0">
            <root>
                <mxCell id="0"/>
                <mxCell id="1" parent="0"/>
                <mxCell id="5" value="" style="group" vertex="1" connectable="0" parent="1">
                    <mxGeometry x="90" y="-9" width="436" height="499" as="geometry"/>
                </mxCell>
                <mxCell id="2" value="" style="shape=image;verticalLabelPosition=bottom;labelBackgroundColor=default;verticalAlign=top;aspect=fixed;imageAspect=0;image=data:image/png,iVBORw0KGgoAAAANSUhEUgAAAbQAAAHWCAYAAAAfCHwXAAAAAXNSR0IArs4c6QAAAARnQU1BAACxjwv8YQUAAAAJcEhZcwAADsMAAA7DAcdvqGQAAFtpSURBVHhe7b1fSFzb2+f5ZBjN6Th5BbutUTOSLnCalO3rDDih0951HRtaycV5dQJzMZy8GYaE7qr0jTYZZhJehuMwZF69mVjdnNwEMxdzEZI+0MHcmHrvJE0QBn9ihUYogkRDCYKI4Re9yKznWWvtvfa2qqwqq9Tafj+wdO3/a+29a33386y193Pph4IAAACAJuc/M/8BAACApgaCBgAAIBJA0AAAAEQCCBoAAIBIAEEDAAAQCSBoAAAAIkEJQXtD6UuX6FLJlFZr+OT+9mc9PzlLOZnjb5/+9zKjYt78K3OMf+UeAQAAAChPjRZahiZCogYAAACcJccKWurND+J3r730pxlKypIMZUtaX+M0Z9af+yszCwAAAGgg1VtoA2M09s90NreuHYxHOepyDLgl/31a5yX9TLOrep3i+Pv6+W9LHQ8AAMBFp3pBW12ghb/jTJLGRhMyqyr+bor6xzNmgsnS1F+Wcl+ymE0oW1DxL1/T+39Tw/EAAABcCI4VtMy4taRM+sspJUHsinxPkwN6nWrx3JhvUmZOMfdlnmaTRsz+2Qyt/dtxmQsAAAAUo8ZBISx0NQ4KUeKUsv1qf5UkK2lH+HdTNGUswZn/e5JgmwEAAChH9YNCfqzRjPShZWjiVIbWZ2nq32I8JQAAgPLUYKElaPKhsas+5c17Z41AWWZ/eq0tuH+XOWbgCAAAgItODYKWo9ln7qCOBvEvUzQ5ME6p/4tfElBW2r+2L20DAAAAR6l+UMilftO3RZR62Pi+rcS/SWkr7e+mKFPlV0cAAABcHGoeFMJ9a6fz0vQ4zZnRkJlnsNIAAAAU59IPHukBAAAANDk1W2gAAADAeQKCBgAAIBJA0AAAAEQCCBoAAIBIAEEDAAAQCSBoAAAAIgEEDQAAQCSAoAEAAIgEEDQAAACRAIIGAAAgEkDQAAAARAIIGgAAgEgAQQMAABAJIGgAAAAiAQQNAABAJICgAQAAiAQQNAAAAJEAggYAACASQNAAAABEAggaAACASABBAwAAEAku/VCYfBOxRekHm5QxUx4DPfTjYbfOb+Tp5+k9Gns8SJMbn+jSPNHr32/QuF5agl2afbJOC4N99P5Ou5lXnNyrFepfPDRTPqm7QzQ3bCaqovJjAwAAOEpTW2gsHj9+t6mHUqub9POrXbP0FIh10Jp3fJXutlFmfoVmN8zyM4CF9tKTPOXMNAAAXBQi5HLspuQAUfbrNzPtMHxDCc5x1lkdGO6mmdghLXyoRVTbafK3IVhnAABQIxEStC3Kriqrbci4HF2WPtGlB5/ojZNPP1tW/3UqadXJusuUXjLTVfJGHePnZ5/oZz6OZzWxu9Q/tr9vdjkGy8Lb2/UuPdsycw3sUvX2Y6xCVV5xgxZ2qB9WGgDggnFmgvbixQuKxWKSOF8LmXmnwX+wSbmRvgr7r/Yp19XnuQmzi5+PuglZzKTfrYo+saUtmiq00Ngt38oSkeXj/BanhIiWLudxLkp2HU4UrEuzj2YKrjtVieL0DiWsy/VuK01NK8FWlujaSIt2hcrxAADg4nBmgvbo0SPa3t6WxPlaCPah9dHYyvpRS6YobZSyrr3ey5TUOZ+Vz5UNImFLyBNUleb3VZkGabLXLGcG2v19bOzQgit4JV2Uu7SwckipUStK7TQ5qoR3ZUdbXUu7lFF1SFqhPS2XKgAAnGMi5HLUjT6t7mrX4gnIFoiSsX3KHDfAJDwoRKWy1tzGd8pSK8VdwSvKN8qrMgQsUCWWVPgugpb7cqCOfRkWGAAAOJyZoD19+pQ6Ozslcf48kRy5Tu/vdxAVc0WeBLEGDyh/7D6vUDwWtkA5aSssca3VEzcAAACaMxO0e/fuUaFQkMT5k7NLs++UFeO6+E5Cb5zmRoimntdxcEVvB425LsYifW6adhobbKHMO//YMkDEDvQYbqcU7VPWDiiRASJn+7oAAACcNU3tcgwOClmnKeqgNftidR1I3OmkVGGH0nV7t42H5vdQYnHdcyMe6XMzJO4M0uuY30c3sdpGr72BHt0097iDcrb+MkBE7ydx6yolpW/PjOoEAIALQpN+KSSK4EshAABwEppS0NgqiRLcP2YFLT+qB5bUo45bfztIXX/RYqYAACDawEI7D8h3J3coS20VfG8SAABAMSBoAAAAIkGE3kMDAABwkYGgAQAAiAQQNAAAAJEAggYAACASQNAAAABEAggaAACASABBAwAAEAkgaAAAACIBXqxuCFuUfrBJGTPlUTKSdHj98BdD7PIiXxKRyNr7xfftfYGkGC0087j4h5EBAKAZgYXWQMIRtWdoh/ptCBiLhH7ZJHLXvUs08WCZ0jY8jNAiQUe9kDGGN8tKzErRG6f3dp+POygpImaPAzEDAEQLCNqpoUPHcDiajCdKuzT7fIdopC8Y6Xr4Bq2NBOOhMYmYmre8ZaaYXcoXWig1gA8QAwAABK0E29vbNDs7K4nz9UFHos59MfHVNnZooWiATxvXbI8WnKCd8SE1b3XXj3PG25Oa12Wma0ACh3JMNU7PXLFUsDvTLlPpZxsXzgYUfeUv52W5VytH1wUAgFMCglYEFrCbN29SPp+XxPn6iFq7CFr26zc9ufGdstRK8WKuv96fKEGHlHejUEvEa9/tmPuwRzTYUaRPrjJYgCYKHbQmLsg+milsOkK0Ren5A99FebeNsotbTtDQQ5r62u4sW6c0XZdpti6D6wIAQOOBoBXh5cuXdPv2bZqbm5PEeZ539rTT2GCLsfB2aWHlkBLXag0GqrdPjdqBJO00OaqEaWXHuDm7ac7pZ8t9OdAZjxaa+cVEB++9LP1z1tJMXGuV/wAAcJpA0E4V7vMiSnZd0ZMiBAdBK8yy8WclLC1HrDcWCxEdcVe2UdLte6uKb1KWzLzvUpTRkoXvRtA44Ki/LL0iMwEA4NwCQSvCr7/+Sm/fvqV0Oi2J8zzvxIgIsSgZq0pciIe08OFofxO7E7OxqzQWdkcOt1OqsEeZP9TygfYTBAPV/XnBkZiczGsBS1s0pQTztZn/fhRWFwDgfANBK0JnZyd9/PiR4vG4JM7zvJOhRzRmYx2U8qyqdpq830HE/U/ucPylT9S/6LoDXbopOXBImVW1fMi4/GpCuy/dkZQyQCTwWoG1HlXZ35V5PQAAAM4BELQSsIBNTk5KqlXMAu68B+s0FeuhH+GXn+VdsR6igOuPxDIKDOV3GB9qU39P4m7UJO4M0uvYDvWb406sKovMlm+4m2aU9Tg1zcs+E43ye2wl3KMAAHAOwJdCAAAARAIIWgNgawdo/vQ3/TTQ8/fMFAAANA4IGgAAgEiAPjQAAACRAIIGAAAgEkDQAAAARAIIGgAAgEgAQQMAABAJIGgAAAAiAQQNAABAJICgAQAAiAQQNAAAAJEAggYAACAS4NNXDWGL0g82KWOmPAZ66MdDE/JlI08/T+/R2GM/KnSl5F6tUP/KVVrjL+MvfTJf5zdxzOoAh5GZWDUTYdw6AADAOQIWWgMJBs/sodTqJv386mgwz/PG+EO/3K8H1AwWMVsPiBkA4JwCQTs1ODAnUfbrNz0pcdCqt86OMHxDCU39rDMAAGhWIGgl2N7eptnZWUmcPzlblF1VVpuNMs0uxwcrNMsBM9lt+OATpTlitAm2GbTkdmn2iV22QpmvZjZjtn3j5EvuR45plj1R66l91mIxssvT7j8Y4VrhHoPTsy2zwETEfpZ36sLlZvesOw0AALUBQSsCC9jNmzcpn89L4nwtohaMWL1JuZG+klGoifYp19Wn3Xp32yi7+FmLnSL36jNNUQetiduvk2j1UC8oSqn9KFF8vkOkyiDLRlX5CrJBdSjR7F9slYjavB+JeO2Jlj5GwrpaH3dQclU9GLhRrlf3iO7z8j6aie3TxINdSsq+eiilyp5pApcsAOB8AkErwsuXL+n27ds0NzcnifM8r1qCfWh9NLayHrBYgrRR6k67zvZepqTOKXZpYeWQkoMdlJDpbkqNtEiuOCX2s7FDC4UWGrtllg13K0HR2Wp4s7xPyZFuz8U5/guL1q6xrNpp8rchX7Q3vlPWZD0GOo2btZ3ifPyBdrOvK3oaAABqBIJ2aqjGfrRNWSi28a+Ub5RXllTimhEiReJaq8lVgYhLK8VP1Ge3K2XJLiphtpbn9I7a7wHljRUmbkW77N2BI8wAANBYIGhF+PXXX+nt27eUTqclcZ7nnQ3acsl98V1xuS8HJlcFYq35wlMb2qpKWrell8zglo08ZVZbaOaxmX//qt4MAABOAQhaETo7O+njx48Uj8clcZ7nnYxdmn2377jYKqWdxgZblFW0ZSw77YKsmt4OGosd0sIHI4xLWzRVQx/a+BD3y9my2AEi7mCOQ99a+4OtNwAAOB0gaCVgAZucnJRUq5gFB4Ws64EdNbzHlbgzSK8HeACF3k8+1maWVEM7Td7vILLuwuXLNfWh8WsCayMHpizL1L9IyiIzrw30xik14Nc7O8QDPXyBAwCARoIvhVxY+FUAJY6jziAOAABoYiBoDYCtk/ME92fpz3FtU9x+aks+mXWgrCs9fZ7K/L/8iy76P//qmpkCAIDKgKBdIOQbkIt+/xu/VgDrDAAQFSBoAAAAIgEGhQAAAIgEEDQAAACRAIIGAAAgEkDQAAAARAIIGgAAgEgAQQMAABAJIGgAAAAiAQQNAABAJMCL1Q2BPzO1SdQMX+LYyNPPEtOsGBwKxnwqCwAAzjkQtIZw/gSNA29OUA/9KPe1fxG3PRqDiAEAmhC4HAEAAEQCCFoJtre3aXZ2VhLn6w1bTBKXTNIKzUrMMA7pskzpJVlFkACaz7bMlA2oabZ7kqecmS/Wlbcfhq1EvS/eZmJVzVrdDOyrUgJlDW1fvB4KW55Xn7zlP7/aDZSfpwEAoF5A0IrAAnbz5k3K5/OSOF9XUVv6RBOFDlr7fUhCu7weOKSpP1godHTqzLIVDR2dOjVk3IRqu/7FVnot2/XRDO1QfwUCpQOEqszAMS7HIogYemVVxyxs+kJUsh4WNf21XZb9uMuRrtcpTddlem3EjcINAAAnB4JWhJcvX9Lt27dpbm5OEud5Xt0YvkE/fotTQiZ2KV+QjJC4dZWSq7u6od/YoYVCGyVNP9yb5X0lSu06OjRHoB5tU1aXWbchGEEdtWXVx8yu7GjLsEw9NC0084sR0N7LlFTTY7faZTJxrVX+AwBAvYCgnQXijrNuus+0YGYLvR00FtunLLsdN75T1hMwLRjJrisydTp8k2Nm5m1ZVZpXolr4rgWtXD0AAOCUgaAV4ddff6W3b99SOp2WxHmeVy/e/LGjhKpHu+J+H6RUzCwQfLcjW2Seu1HNj6v1sl+/menT4IockwOB6rLadENEtnw9AADgdIGgFaGzs5M+fvxI8XhcEud5Xl0p/NmzcjI8YMNBux03aWK1heLO8PnxIdfFuEuz7xwXZO9PlKBDWvhg+7d2KaNzJ8CI6zt/8IkMAnEHo5SpBwAAnCYQtBKwgE1OTkqqVcwCrjpORgjGf+mgZGGH+nnec2UBjbT4wsCI21H9j12lMfd9sOEbtDZyQBOyv3Waog5a8wZ5dMt+eOCFHGv5Ms04FpMWw82gGFWADCiJmbKqNLHaRq9Nv9mx9QAAgFMEL1afU9gSynT10fs7ehAFAACA8kDQGgBbMrXAfVEafodsm+Lmix217q9Z2PrbQer6C2XdAQDACYCgnTeWPslIwuQIrDMAAKgGCBoAAIBIgEEhAAAAIgEEDQAAQCSAoAEAAIgEEDQAAACRAIIGAAAgEkDQAAAARAIIGgAAgEgAQQMAABAJ8GJ1Q+BPV21ShtrotQm14mG+BEKxDlrzgmOeYzjm2fQOZc1kkBaaMZ/nAgCAswYWWsNooaQN1OkgUaebid44vbdx0B53SNTpmcc2LhrEDABwfoCgNZBETAfq9OGo0y2UGsCHeAEAoN5A0Eqwvb1Ns7OzkjhfC/EhDtRpA3IqNnZogdS8LjPtwS5KHW+MU9qx6iSg5rM8zT6xyz+p/bnr87RP7tWKma+SG/uMXYdq3TTvTy1Lv9XT/ra7cgz32JUiZbTHfOYKuIJdrHaZSj+/MgFIpTwrNPvKX87L3PJ76wIAQAVA0IrAAnbz5k3K5/OSOF+TqEmgTt/tmPuwRzTYEeo3YyHZpNxIn+fWy82rhn7DLGZW1Xb32cXXRzNqfxMPdikpLr8eStE+ZWzDr8Sjf7GVXssytS7tUH9AYPYp16WPM3c7WDYR20IbJYfNdIWwAE0UOmjNHrOw6QiREt75A99FebeNsotbjoge0tTXdmfZOqXpukyvSbBSd10AACgPBK0IL1++pNu3b9Pc3JwkzvO86mmnscEWyn3hBn6XFlYOKXEtFBLGCEnKhorpjVNq4JAWPjjWyUCn6atqpzhHoR5oNwNNruhpg/TPecvaaXKUo1Q7FiK10Ngte3xdNusSZbHNettWiq5TatQObtHHzK7sGMuwm+acfrbclwOd8WihmV9MxO3ey9I/Z8uXuNYq/wEAoFIgaA2GG2Zp4EtZQBvfKasspwnjZuM0sUqU/frNrFAp3D9HlOy6YqaPJ3HLd4nmviphGjLiUjHf5JiZeb/sMoKz8N0ImnZj2mXpFZkJAAANAYJWhF9//ZXevn1L6XRaEud5Xk0Mt1OqsEeZP0pYQGKZ8PB+45az6WG14qKtt6qE0HOJblF2tXp3o7UQU3dDZbevKqj9TikRt3V7PwqrCwDQOCBoRejs7KSPHz9SPB6XxHmeVxvdlBw4pMxqCQvIiIrXD2YGfNQyIGJ8yHUxKuvoneuCLIZxO85vUiZ2uYZ34sz27/zBJzJAxB2MQgeUl/5AUx4AAGgQELQSsIBNTk5Kql3MNCI0ygorbgG10+RvPZRYXDeuOSUuAz303vapVcPwDVobOTDuy3Waog5aO8bSE7ej+p88MlilMhJ3Bul1bIf6jVtxQll6r+0L48PdNBM7pKlpXvaZaJTfY7MCBwAA9QVfCrnwsEW4TXF88QMA0ORA0BoAWyrnHe7TEvg9sXeX5TNcbGWdRz7+rwn6765XPtgFAHAxgaBdYLi/a2IV32MEAEQDCBoAAIBIgEEhAAAAIgEEDQAAQCSAoAEAAIgEEDQAAACRAIIGAAAgEkDQAAAARAIIGgAAgEgAQQMAABAJIGgAAAAiAb4U0hD4g7+blDFTHrEO+Wbi8V+158CY67Qw2FfbV/cFvY+pgpkMkRw5yb4BAOD8AQutgQQDX/bRDO1Q/7Mts7RObOTp5wcrNHskJAuHpXGOHdMiZssDMQMARA0I2qmhBGbUDcBZDi1GEB0AAKgcCFoJtre3aXZ2VhLnG4JYVzowpiTPemN3oY1abfLPPjnrfjKiuEXp6R3KEgfRLGallSf3asU/diDKtOLYsuUlsra3rbt+eF8AAHAKQNCKwAJ28+ZNyufzkjh/clFTQvBun2igncbt9PMdSli35OMOSq4qES0hStlVopTnPtynCRGYbprj7aiGEDBLn6h/sZVeGxekRJ12ReuYsmUXv1NStu2hVEFt+5xozq6rpjNLZkUAADglIGhFePnyJd2+fZvm5uYkcZ7nVUtm3lgsktZpijpo7WG3WardinPDZnLju7K0SpMc6TZC2E7xmGROxJvlfWefROO/sGhZd+jxZfO3vSLlSQ526MEuvT9VMOgFAADqDwStgQQHhagUGuHIATY9wXt3oCyt02KX8gW2stb944vr8oDyxgo7u7IBAEBtQNCK8Ouvv9Lbt28pnU5L4jzPqysbecpItGgjdvevmgWngbby3FGPOhm35ZmWDQAAagOCVoTOzk76+PEjxeNxSZznefXn0LeI/mAL6fQYH2pTFtqWN+JSDxCxg02YsysbAADUAgStBCxgk5OTkhoiZr1xSg34/WzZoR5KOSJSMb0dNBbjUY7LlK5mIMbwDVobOaAJ41bsXyRlkd3Q/WL1KhsAAJwi+FIIAACASABBawBs1QCiv/3v/yua+uf/pZkCAIDGAkEDAAAQCdCHBgAAIBJA0AAAAEQCCBoAAIBIAEEDAAAQCSBoAAAAIgEEDQAAQCSAoAEAAIgEEDQAAACRAIIGAAAgEuBLIQ1jl2afrNNUwUwqOD6aFzSzYvR+Fgb76P2ddjPveDie2cSqmQgz0EM/vECjAAAQDSBoDcGIWcwVji1KP9gk8kQtPF2K2gTNRcSNIGIAgGgDl2ND+CYRoVNDroB0U2qkhTLLW2YaAABAPYGglWB7e5tmZ2clcb46rkhE6LB4Je4MGiuJra5NyqgcxxxLv83Tz4Hgmry8dHwztrj4i/6SntUokBt8TLufFZoNxDrTx/eO4ZRNjv0s7yznZWxtHl0XAABOEwhaEVjAbt68Sfl8XhLnqxO1dpq830HJ1U3TyC/Tz692zTJGLf+Ng2aafrXbHKRzn7JWwDZ2aKHQRskirkiOLD1R6KC134fox+99NFPYDO27EpQATe9QQh37B+/nbitNTftClHv1WbtL7TFU2TLuMVb3iO77yyYe7FJS1uU6hdYFAIBTAoJWhJcvX9Lt27dpbm5OEud5XlX0xum9NPJDtDbSQtnFdRG24lZXO40N+u7I3Ic9yg606+jRAXZpYeWQUqNxSsi0EsbRNsqu7FBOpitkaZcysQ5KWcEc7hZhsoLqW5KMdp8GGOikyV7OtIslSl5ZtWUKAABnAQTtFBCBMMKWmS/ukkvcuqosul1ZlvuqRCvQ/2bR4sJuSmv5XZrfJyp8r0rQcl8O1DY71G/38UCPxsx9MZbV0id//w+2KQeRAgA0ARC0Ivz666/09u1bSqfTkjjP8yqGBeFJ/ojIJK61mlwReq3bcYuyq8XdjdYCYjeldgfadKOINVcaKYey0LTb0k96FOUuzb7bp+RIn5l/ncb0ZgAAcK6BoBWhs7OTPn78SPF4XBLneV7FDLdTii2gwIANLRS+ey6McTvOb1Imdtm4FMOYdd75YimDNIqIZ1lM+TJen50eIOK6Q7Nfv+mMElj3XToAADivQNBKwAI2OTkpqSoxE7ppzgzY8F13+l0yv2+qm5ID2n1oB3WI21H9Tw52lBA07b58HfPdhRPKmnv9m+1TqxRVvscdlLOuy+kdImWR6ffhdL8c2QEty+30WpXTEzgAADin4MXqcwUPf9+m+ONBM+gCAABApUDQGgBbNtXAfVUC9729u0xryuJiC6yZuf2X7fQf0n1mCgAAGg8E7Zygv73YQjOwzgAAoCYgaAAAACIBBoUAAACIBBA0AAAAkQCCBgAAIBJA0AAAAEQCCBoAAIBIAEEDAAAQCSBoAAAAIgEEDQAAQCTAi9UNhiNM9y9SlV8A2aXZJ/pjxjqkS2OQr5NQj/PB5JOiy13q6/wckqaR9QEAXGxgoTUUjjBNlBogWvhggmeeJRImZoVmN8x03Wmnyd9sfLU+molpEQvGWwMAgMYAQWskHEuMrlJqqJWyi1tFI1UXRwtDowVg/KESmrpZZwAAcLbA5ViC7e1tevnypeQ5WnX1MdG0Sy/TxW62b5R+sEl0d8jEHFOwtTS9RwmOibZ6qOcNWPef63Ikk++gxOIOZXg9jjZ9nyg9vUNZO+3FRAu7/drotUS05tA0m3p70h9Bjv8RdDlq96gpi7tPjgIwz5bmviqrLK3AfVjcbVryGIwcZ99MuMew+6r0HAAALiKw0IrAYnbz5k3K5/OSOM/zqmOLsqstNHaLG+RuSo20UGbZjWDNHKrGuVO75B53UHJ1MxA12iW7+J2S4rrr0dGwnxPN2e2c6NO5V59pKqZEStZlt58SIQkgqoN6Jo2YHenPU2LSv9iqxM9sR+GI2/uUU+Is+73bpsrzuXrXZeAYQzpQqXcMJbjzB6psepk+RtCqrfQcAAAuJhC0IrBldvv2bZqbm5PEeWutVczSLmUGOj3hkGjUq7sht6MSl1+My6/3p7LWRXKkW1lZzBWKc9+UjWod2o4jWvtuxG+ULzFAI8ybZWUZDbSbY9io1W552yhlLa3eyxJZu1r4GH49iMZ/YRG3x+Ao377Q5r4c6IxDpecAAHAxgaA1hF2afacEQllcHOxTkrjGrLXUQNhtZ4/5YJtyquE/nl0RvmTXFTPdCPQxsovroXNyQHmx9NitaMu9TOkV2QgAACoGglYE7jN7+/YtpdNpSZzneRWzsUMLBe67Mu4zk9ZGWii7skM5s1r90ULqjyy8TmNmSXnaxeLJfv1mphuBPoY76lEnY5XxABrnnL0fbdWbAQBAhUDQisADQD5+/EjxeFwS56sZFJL7sEdZz33nI27Hwh4tNGzYvMYTJhEJnT2O8SHXxWgszCJ1OAl8DLdfjAeIXHrwyXFrOtYaHx8AAKoAglYCFrDJyUlJ1Y1w3KLM4iGlhooMh+/toLHYIU39ER4cUi9s35dxdS630+sBR+Ds8aeXjw4+Gb6hLMgDmhCX3zpNUQet1XtIf+AYy+aFcx6Bycu6acaU7dKDz0SjPIDFChwAABwPhu0DAACIBBC0BsDWBzgb/t//OU7/w80OMwUAuEhA0AAAAEQC9KEBAACIBBA0AAAAkQCCBgAAIBJA0AAAAEQCCBoAAIBIAEEDAAAQCSBoAAAAIgEEDQAAQCSAoAEAAIgEEDQAAACRAJ++aggcrHKdFgb76L2N8nzKvHm2TBOrZiLMQI8T1RoAAKIBLLSmZovSD4qEglGMP/SDaHIIGRExMw0xAwBEEQgaAACASABBK8H29jbNzs5K4vyJWPpEHJk5/UwHtuT086tdvWwjTz8/WKHZV7xOaJmCXYeXnvkBQSXK85M85cStuUkZNS8zX9xKK4sc15ZHHT8QSJP3bZdx8qNK6/LkneW8TFuK4XUBAOA0gaAVgQXs5s2blM/nJXH+xKJG+5Tr6tMuv7ttlF387IjIIU2tXKY1Xva4g2hxvQKBaqfJ33oopXKpu0M0N6znVoYSoOkdSqjtdHlaaWraF6Lcq880FbMuyj6aie1TxhFZWt0juu8vm3iwS0lZl8sTWhcAAE4JCFoRXr58Sbdv36a5uTlJnOd5J6ONUnaASO9lSuqcR2o0TgnO9MYpNaCsrmXfKqs7S7uUiXVQyorgcLcIU9aIaOLOoNPP9o3yBZO1DHTSZC9n2ike4+l2GudJuqKnAQDgDICgnQtaKC4CoUl0tZhcY8h9OSAq7FC/5yZcpyklWrkvxrISF6ldtk05iBQAoAmAoBXh119/pbdv31I6nZbEeZ7XOA4p7/Rh5b4emlxjSFxrJVIWmrg4naRfMdil2Xf7lBwx7tHfr9OY3gwAAM41ELQidHZ20sePHykej0viPM9rJJ6LcSNPmVWi1JB2+Ym1trpr+rd2aWGlDmI33E4pZaFlbD+dGSDi9ttlv37TmaUtsd4AAOC8A0ErAQvY5OSkpEaLGbscU7StXXzTO0TKOrKDPBJ3OmWgxYS4/z4TDbbpBUI3Jbm/bT44MvJ4umnucQfl1HZHj9lOk6PqGKubetlyu7zH5gkcAACcU/ClkLOGraPpPRp7PGgGWgAAAKgFCFoDYMumUniYvito1Wx7nvkX//gv6N2//q/NFAAANB4I2lkDCw0AAOoCBA0AAEAkwKAQAAAAkQCCBgAAIBJA0AAAAEQCCBoAAIBIAEEDAAAQCSBoAAAAIgEEDQAAQCSAoAEAAIgETSpobsj/YDo+0nMdkHhhfoTn80ju1QpdepKnnJl2efOs2LlbcSJoH8cuzT6p9oPIdUCiAlRTzlqoY91MFIPwuXb3LdfimY604ObLcirnwXJG1/pEcJkrOT91qtupXo/zD9/Hp9IOF6GpLbTU3WA8r7WRFsrMn2+hOTcM9ITOHdHU9MX8UZYT/5PTQjOPnfv0cQfR4vqZ/eAbTb3OZcXiXoTcq8+0MHj94nxK7hhBPcm59NFGRCX37fjDHqIzaocj5XK0oVayjW4shm+oxukGjZvJKJC4M0ivBw5p6o+T3vgNpDdO739v8m9e9nbQWEw1ujY6uMP4QyV4D3UcPFArW5RZbKWUBKsFZ0M3pUYOKHMGVn20+9DCrkH3Scbk08/UE6V1BzlPMfqp5pPj2nSegNz9mnya1zfrBl0Y2q1h9yHHK/kE667LySl7lcfJfDWzq0CCiRb+7JQt6No9+nS24y9361TuvAvlz4mce3tMdQ28fVVx/So+76qs/YuHqt471B9Y7tTNrYtCrBC7rOS1LMHGDi0UWmjs1tEG132SLnv/hdDnK1hGRsp55J4OTvv3UI3X2qXEudTlM8m9RnIN/WX2mFzuiVWV4Zh87vmw65Y750u7lBlo9x82zb0461yzklaGrOssN9M2VeyaDNXLqzPvL1B2PufudS19DcLXzreE1TbTO5Ql9TBaxMNS7FyWvdaBOtv98W9pkzIqx7EX9fqhtsq9rgqOip9d2Sl9nRrEmQnaixcvKBaLSeJ8Pci92lYnvY2SJjjm8Ryq9Ts9V1BSXfTAxV09oLhxF4n18rzUD2mfcl19ej932yi7+Nm7sdj9MUUdtCYup061z9IRp2XdmHUF9tFMbD/0lFOf45SCb0IqfDd11DdxbsQcTwKCBn8w2cU9c35UWVWD1x+6qUtRtqzqBzWx2kavzTmIF/bNgmKUvn4Vnw9lbbOrmmJq3d/ilDCzs4vfKWnKwNdhwmmU+pUFoMun7ovYcfXmhsb54avGJ3G3QiuzgvuPG7oJ4nvmqMcgceuqOic22vkWZZWQBqZXrbDW6VoXOZfSoBbsdVDbFjaNMKhjPudzoeunj6lFWXsLVIbd4myx8j3h7UOf83QJcXmzvE/JritmyrJPU1/NfaJ+N5lQ3QRuyOdJrqsOdKsa/fkD310sv7etIw8NRzlar+Tqtj6eRIrfowV7bBbf2FUak3shdA1KlfMIOlhvUlzbR++rI+ey7LUO17nV3HPtNPlbD6XUGtzNw+fnSFulrmug7QzX9ZQ4M0F79OgRbW9vS+J8LfDTgtdQqNS/SOpiVOMKVDfBL8bF0/uT15h5DHR6N4hYLyVp810cvZfVzWXZpYWVQ0oOdph9syleej988/kup2+UL5isR32OUxFiSbjHi1NKNaoLH5yGxDs/Nsq1bSzLUb6s3CCR94Rt9luSUtfv5OcjOdLtlSEek4wgDaa3jGj8F26wytU71If2O/cvVPi0f8z9t/DciFkpN6WckwPKc6OyoSzvWKe6hmbabUwbfK1To/ZBQW/rPrln3hmRFndymd+usvoypsFk1+z7oi7FXfnNJK6Flzn3yXC3ekAJ1W3lsxEz9/hKKBz3du7Lgc4cCzf+VhQVG9+V9WThCPP+seVesvdo2HIvVs56cOy1droduGvFecg7ghXqcJ09DvW9dopEZFAIP0WrGU4DcD7QonT0B1aCgLm/rRogM/9Yjh5HrK0qkR9t7LL5gfEPUVkmzgMDuy6yX7/JukzgSTggsOUod050g3T0CbtaqjzvFaPLl11c96+TuHuMSFSEFteTu2MO1XHZ4rKNSjH8BjT3YY9InddElxJCnlbX2m9MG3utAw+e8+qBRbwA3Agaa88uK+VK5IZVLBZ/PwFr4FhaKe61C8EHFCbL99wRbwhbMs7xVszsCgi4R9+p82zmM+NDVtD5XnIETK6BW84GUfZas4grS4zdk3Z5Ce8DP3zrgWR2P2Fr8sqR83wanJmgPX36lDo7OyVx/mTwj0NfiIr93KeCvqjFBgAcRf2A3vHTv3EF/H6dxsyS4zl6nMqfKC36aZpixtKRRsu6/pxUyhoIPImWo9w50Y2N25DWRjXnvRp0+fxrZNNZDFRRVsf9QZrjRqWkK9w0oOp85r6SNJ7shqSv6ildNdBeY9rgax0ejey7R/WTvZ6nfr/KCivlStQDsfS61Y9mdh849EOJS3LkOr2/z6NPfRc+LW3RlLJk7Dl5P1rhA+JGnjKrjlV+X51vF+uKW1LXgKy7USHXoJoHoxo59lqzqJl54i4NuRIdxKNk1j3qEtcPM6fNmQnavXv3qFAoSOL8yVEXItSvpC+eP+qRn1Ir+yHWi3YaG3SfxnkEVvm+La8xlx+Uzh6POY7n4zfiVAXiE1dPjL4Lj0fjuU+tuiPZfWBwj8di7LkKy5738ueEG2DfnWX2WzXVn/dKEYFw+lKkc77IgIzS6LL47tCTkbhzXayckkLA10JZcZmCefpnNyQ3qIHG9ATXuiz6OnhuRYVYL3YwgzqG31hq8StmVfsDIDTifbCehAD6gePog4zjUpPfVZFBOb3xIg8HVmCqvQ99V9ubP9iCd9FW89S8mm8fHhm5BqXLKS5n53dR7e/bo9y1dgddMeKybilqNYYHqUj53PoIxbdtJE3tcjyC8TtPTZsGRvzDvssjrX7E3LF5mtgGR7tVdilesi9HPa1K34Qx95fbpTO3UmtFd/5aV8I65WPl+p4UrltBJT3QwbU0tNWb8Nxrm5QZ6An0XSRHLlPWHE8GYNinvGPOe9lzop7E/Xp8Jho8ph4lqPy8q3VvXaUkj8yrRJhk4MOB57I5vt+W70e9bqnzeDL0fRN4kHMxDWWWrAAo4VBlooCgnuBahwifS7kveeCMqb8M+JF+GT2YIee5EdV+Yz1eP4x+sFH3qBIyCu3jEg9cuF+8b8dapEHaKPHV1G1+X1mMxS1qee3HWoleW8LHVPfhKA+8qMCCCt372SEeTBHsS5K6KVJD7jkMXYNQOe0rSUV/F+Yac1mLWVPuubQDPIpea1X29zwQxLtfefCIfZ+PhVjXi8Vv/KEeCKLXM+2He08EBrycHpd+KEwenAL8tNnPI65KuXMuIGXPCfcrvrscGIFYCzjvFwW2OHYpad2a3ujFcg8dpwxbQtPfKXWeylRn2ILLdPXV8cGtMppS0PiJoBlg33LwwvKPTQ+Z5elmqUe94PPBlDsnQeHZpdkn+smdpys9XzjvFxe+9nwPpem6vvaOoLF1c5bY+9+9x6N2L+o6+g8Vf/O/r9Gf/qZfLzwFYKE1Gnkac/zo3vsgF5iy50SLD7/EKYTeD6sYnPcLDD8IfSa6P0iTG+fJQjMPaDLYJNrWWXao2DD+xgNBAwAAEAmiNSgEAADAhQWCBgAAIBJA0AAAAEQCCBoAAIBIAEEDAAAQCSBoAAAAIgEEDQAAQCSAoAEAAIgETfpidehrEhb3axDypYg9GuMorhV/LUC/yb8waD+ZdAzyWR3nK9yhr1rwG/NlAzBWQ+ibdPL5HPmCPH91oJ2y5nwk/8lVov/4Z13vU/4wKAAAnCVNbaEF4yydcjw0ERgnXLlKa4N71F8qSGFd0SFIdP1vUOLVNmVYTFUZ3v/z0l+VBwCAKBMhl6MOb1A03IoEB6zvt9N0dOdgeAQdfmKPFo4LMVELR+oQijXkBebkUPawzgAAF48ICdoWZVfDMYYMbE3ZWFcmn35mY/4EAxkGkHWLxxiSIINHxIujvYbF5M9OKPdwmHJ2nfrl8I/Drk81/UwfXwLpeXWw7lYd/+jW//H/adejxDdTy9nVao9zbF31cfSyFbVeMJAiAAA0E2cmaC9evKBYLCaJ87Vgg+jppMODVPaF533KdZkw+uEo1xYWA+mzKvHVaAlE6QZvLBEccnWP6L52SQbDlLOY6DJLOSTYYVDwMoXL4kYM9sGxaHLQQO1y/fC//bcSkl7674paoaXrKlGqOVgjL/u9U5W1PlGdAQDgLDgzQXv06BFtb29L4nwtBPvQ+mhsZT0QFrw0bZSygz44RL3O+ax8rmgQyfhDe2wWGBNNNmzhDHT6UWc5TLllY4cWCm45ONKtE4JdUZ8w/aXqqsO4+8foplSZqM4AAHDeiZDLUYeip9Xd48PoH0O2oMQktk+ZigeYsNVkhM2GcD+Oje+U9UKq6zSxWqIPsCF8o7yqZ+JaBaM5AQCgCTgzQXv69Cl1dnZK4vx5Ijlynd7f7yAq5ooUTB/Xkb61KxSPmexxiLXEQ+6tlWfSqQWh1GXNfalUtAEA4HxzZoJ27949KhQKkjh/cpTIvNsnGmivz2jG3jjNjZDT5+XSTmODLZQJ9XnR0hZNFVpo7FYFVk9vB40FrEA9QOTUXjswdciu7Jj66VcBAACgWWlql2NwUMi6HuBQRwtHD8Mv7kJM3BmkH3dbnUEhKkm/W6VD5ttp8rceSiyum+03KTPQU9kL3XUicec6zdAO9cvxdymOPjQAQBPTpF8KAY1Avj7ytfMU3Z4AAFA/mlLQ2KIBJ4P76/jTXJku+5kv/X4bv0ZwmlYiAADUC1hoFxn53uUOZc1k4FuYAADQZEDQAAAARIIIvYcGAADgIgNBAwAAEAkgaAAAACIBBA0AAEAkgKABAACIBBA0AAAAkQCCBgAAIBJA0AAAAEQCCBoAAIBI0JSCxt8gDIdZ4XmXHnwKBvfkTzs9CIV4KcbSp6PblkSHebGx0PiDvt7X9p0UjpUm5askmnZVZTkZftlP53gAANBImlLQEl1uHC9ml/KFFokynXWEJPdhj7KxqzRWUTiXExDroDU3SOfdNgltczQAaH2pWCSLouOfpe5ymW/UJ4YcAACcIc0paLeuUrLw3Re0jR1aoKuUGmwJRGDOfT2k5GAHJcz0qTF8g9ZGWijzrlhw0GNQ256ewLRQvNFiDwAAp0Rz9qH1/qRE6oDy1pW48V1ZYj/RuBI68iw3ttqU+F3zQ6Fot6RJRSybvOM+PKl1lbjWSuSKbqW4LkeTTzvltq5WdhdOrKrM6qZTF+0OPVqHXZp9oqaf8f7Usmf/SULFZOhQApTafQbOT9hVK+7b4ssCbtcnQREP7DO0DAAA6smZCdqLFy8oFotJ4nx1dFNy4JAWPpiGeHmfUkPdWugKe7Qgje03JWhtlByWVbQAFKxrsI9mCpuhfrh9muLglp7LsIK+t3L0XqakK7o1s0+5rj6vXNnFz1Iujpj9ekAt9kK+sGjpeGay7uMOyoXqkClc1vV/+I9o7vceSql57HKU+GdKPP3zM6T2rcTuD0cop3coIe5JLgdH6vZFt3+xlV7b7WI71G8FNrxPtaxY9G8AAKgHZyZojx49ou3tbUmcrxbpR/v6TeV0/5l2nWmhExFZ2qXMQLtx3e3SwsohpUbjxv3YTpOjShwC/XAtNPOLiQU23E0zMV8wz5Y2StmAmyKSJWC3qxJwf904pRzRZ8q6X9nV+Zs9P9q69eBzqcphHw5ctyg/TCRHuj0X6fgvHZRc3fUHmRR2KGMsxfGHRjwBAKABNKfLUaH70f5MOdN/Zgd+jA8p62p5i3JfDijZdUXPFGtNWSjzjvtrfj/kEmx1+pPaKR4z2VphN2hgnw1GjrdPE7Z+KrFLUot+BQRcip/VOfXhc0mxy0XEUAtfdnHdO+YlCRhqLFMWPjNAxi5v9EAZAMDF5cwE7enTp9TZ2SmJ81Uj7kUlSKb/zGts2YpRQrfwlWjslrUGrohA6RF9bio1+CJkodQAWy7FRaBBiPXW5rn+vFRhBOo3fyghYvelbDdIKUfQS/cHauFPWjenlwZp0gq5WHN6vgyUmccrAgCAxnBmgnbv3j0qFAqSOF897F48oOzyge4/s/R20Bjt0UIhaHGNDQZHHcpghcAghX3K2P6dpS2aKrQ4glgl3HekrCPfxXkKcL1jTh3MAJHw+3plYYuX/ytrLcMDTizD7ZRS58d7JcJ5v48t4uzilidSeoCIFi3JO+dYhPE0RR4AcKFoWpcjk+giaXiDbj22Gg6V1Wb7zzQyiIIHLBjX18Sqsma8PiOmTQnhZ+0am99X1pxjZRxHwd+v3v6AZh4P0Zztc7LwiER3vUpe+i4Di4nsU0SjnSZ/66GE5/7bpIyyuCrts5K+L1uP50qMlTXlCZx6eJiTQSam3DJAxJwfZYGtjRx4rs7+RVJ115Zv+JzLebl/iiIPALhQXPqhMHkAAACgaWlKQeOnfdC8/PU//fv04q//oZkCAID6AAsNAABAJGjqPjQAAADAAkEDAAAQCSBoAAAAIgEEDQAAQCSAoAEAAIgEEDQAAACRAIIGAAAgEkDQAAAARAIIGgAAgEjQ5F8K4S/Kb1LGTPEHhl+7IWGWPtGleQrOaxjhshhiHbTmfgT5VMvUAPhL+xLzLAiHkPE+hOzWsdL6yn73aOxx5R+F5q/59y8emqlQGc474fMYuk84GsQE2Wjk55US97wXRR2A06V5LTQJYbJJOScWl/7q+9nG2wrGXOujGdqh/kCYmijQItEEvHo+7iBaXD/V4J3c4PcvtiqhtOXQkQaqCpdTMzo0T831ZZGXiAX+OZSoBE16nwTv+R5KrW6e0nUAIEjTCpoNSOk+kSfuXKeZQEyws0aHdEkVdihjGz8JeNmk1lkpJBYbR7Yuct4bUV/1MJNZZVF199tNc3eDsdnOJ7s0+25frEk3vND4w9B90rRwnMIqIqUDUEeaVNC2KMsBNN3AngILyFBJt5ME9bSxuUKxyALLAk/KqgF64ix7tmXmV4qOlu019vx07liR5cqkrVCz7MknSqty2Cdf3u7nZ5/0clted31OXll1HX5+lRfLQu9PbRPYv1NnLmM11sLGDi2UCojq1tfk006dSz3J6/NS3NrOfdijbOwqjYVdk0fEU1tS9liuRVX0/JVZ34fPpXazZeaddQLnvkycu5LnSgmysnCCMfT+7Nx7zj7l+uj7wZ0fuJfc+9Sc91kJvqqXc7nd9QN1rbQuRQn9NqsqK59/53hSjvC0ey/ZfYTLWO11B1HhzATtxYsXFIvFJHG+KjY48GRLKLDnMagfwEShg9asi2fgkKb+MD+k8LLYDqVNQ5t79ZmmYj0yX1yIhc0SDV0pOOBoiSfWcmXihvP5DpF1qY6qBrRgFhmk4eBl0vei1/fcWI87KLm6HfihZxe/U1KOpa2B/uckjaisG7YiA8FPw6hyTvsNRiDg57HsU67L1Eksqs+hxkg3OtJ/VMKyy309JIr9dEygUC08nktaHSszH2z4jpw/d30JaBpuKBljdascu9q0AKkG1HEhro2QOj8lXN8b3ylLbjT1MqzuEd3X+5R747nTABf2iUZ5mT7v3J/o30vF3H77tEDXTflaRIyzQ3bf6t7yorkH6/Ljbmvpuhh4X969YLoBAsJccVnZujukhQ/mt6ceXEj9dtzp7AAH7lVlNEF0vTJ65+b46xi87iBKnJmgPXr0iLa3tyVxvuEEGuldyofEgaNO2wZ9/GHIyvOEQVuARyJR10q5MoWf5Ie7aUb9uAPIj9sSKps0nEGSI91mfW01Jgc79LF7jxOHMKE+NNUokWrUKus3aaOUPbe9lympcx4Lz+s0GKLo+fMbS8E9f7K+W7Y4pZzGtSxLu8pia6OkOfeJO51K8PYpW9WDTxEGOr2HhERXi854+Mfje2dh5dC/nkoYOOJ4dmXHsUD8uiWutcq0V15331yXWAel7L7lvJWvS7jfeGxlPeTJqLysXBb78Jf7SjQ2epVIpvV2vlfGefhzf0eVXMfA7wZEieZ0OUoDfEj5I0/PZQi4UT6rp1UH/kHIE7z/pGmtsMSdQfPEbZcVe2ovhxaqZNcVM+1QrkzVPMkbAm6cdwdHxKJxFGtAa+FQ1bnliGUZRhrgAlvpZaj2/Mn6+zThXQ8lrOpJvpK+oNyXA2VJXK7soUBE/KC6e/dYvsk9lrhmGvETIHVh6907D+s0pfZdtH+0KOrBarRNPQTulrDqypc1ceuquv68Lbsu1fUbVr91mebtrDCye1Zbdt79bgX0BNcRND9nJmhPnz6lzs5OSZyvDt3xnFl2nwI10qgHng41dhCJfoocpFTY2mFRM0+Z2iXju1lY1OyyI66f45AnxuI/4LJlqrbhU+KoB0rocv64r55smw5V/vuDNMcPEGXOsTR6hT1aCJ8bt8+l2vMn6/NrH+b82VSBpSgWT+F7ZfeEDKApZvmxq6xSKzdMqJ/2BEhd+BWC0Hmo3+sQx5RVzo+6bkvqgUUsKf6tq2l1XjIBy0r3OUr5xL1uugJOcB1B83Nmgnbv3j0qFAqSOF8t47/omzjQAHCfFDfqv5S4ee1TvTT+Mkdgn77bQax/1PqJOyyQYh0c239j0f1aWdeFE6ZEmY40fEtb8qRcHt9qFbHU2VNgizKLrhvpZMhoVfL7MY9g3EjBvh1zrq2bruj5KzFwhZH13RGyemBBRQIz3B5wMeZebQdckEG0BZMNveYgfbWuq6wq2mls0LWQT3A9uC5uf6rxIlTeb6yuw7v9Mm6948rKfc7qur3bIzJejUQX0cLKge9udB9cGPHYmD71k1xH0PQ0p8uRUY3a+9/1u0ee20Fe4C0+OEEE0LpSnpO4yKyYsAUm7wF5+zlQloL2yY8/1ANB7DHk3acyT3vBDvJ1PaCkROdzuTJJw3dfv98l+1q+fLQPzUUaef/42SEeuFClW9bCI8jKjgALDQrhl2tDr1CcDNvoHx0wYuF+Tv3eoS3DOi0M9jlP4tyn6Nwf8/uUKjtwJbR+2ToZD4HXb6isBRl8oMvSv0ihVwpCsDfAWV+2WbmqrKLaX28I3sMnuR7BuvCAHx6YVK7f+Mg9T8rCK/MbOa6s40Pq2hcOPa8GP2BmC63+AwL/9mWwij0mDwK5bq5tNdcRRI0m/1LIRYJdUuuUH63joBQAAIgQTSlo/OQVZdjnr10l2xS3n4Jiq0mGKuvpqJ8DABrNQM/foz/9Tb+ZAlEAFto5JvytQv+9JwAAAGEgaAAAACJB8w4KAQAAABwgaAAAACIBBA0AAEAkgKABAACIBBA0AAAAkQCCBgAAIBJA0AAAAEQCCBoAAIBI0KQvVvNnoTYlDH6Yir+mwV/snt6jMftpqdPAPSZVenz9DUf+8G7dPrAq5Sj1NX4OQVPjOTmLcwoAAIamttCCkXKPxjEDJZBIBea8cSypQARqiBEAoDmJlMuxbqHvTwMRlUrEg8Nh1DPAIgAARJPo96FJMEAbN8kJCmj58MksOxoEUIJ7Ft2W3YDOslCEbAkYapeViism5TL75C/pP/hEaed4fln0sfS0yT/75NQpZJHKvswytR4HN6w8OKNPoO611A8AAE6ZMxO0Fy9eUCwWk8T5enA0UvAWpad3KGFdkxIU0BWAQ5pauazDzT/WwTS9xp+jXxf8UPSvOULyH7phl+jCHLhTlukAoO52EgTUbseBDEOCUJx9ynX1mXKWD26ZXSVK2WPH9mnC27+qrwSy1Mde6zoo2s94HCxYft17KOVGBg/UTx2fKq0fAAA0ljMTtEePHtH29rYkztdCMFJukUjBS7uUiXVQygrccLcIgOuSTI2aaNI24vOyaZw5qrAXaXqX8gXJ+KxuG8HRLkE7EOXN8j4lR7q9MkhU6tXdCvr1nPD7vZcpqXNF8ffP4eolo+H6OoKuXbDVsksLK25I/G6JpG1D5nP9/PD6qu6jbepcVFI/AABoLBEZFMKWipox0Bnok8p9OSAq2FDvnNZpSglT7ot157VQ3Fk/0dVicoqAq/IzLZjZDIeQXxshJwS8dUdq4ct64d9VktGEB5QvYW3VE6lv7LIRolr5JnWw4e+D6Polu66YaQAAOD+cmaA9ffqUOjs7JXH+ZLCVFHKNKRLXWlUD77sNbSo1wCL31Q+m+eYPJUQD1q04SCnXElKwqNn9iTvyOfclaYspOWJch146nZGDUt/C9xP2aV2ROvii76Lrl/36zUwDAMD54cwE7d69e1QoFCRx/uR001y472m4nVLKQstYF6OxuvxBEn6/GC/LcN/UULeeZgp/1uJglllkwITTbySWXewnsYzGh7gMW54LTg+gOKVXCbi+zihP3adYLe00Nui7GLlfLrPouyC5fr6LcZdm37kuSAAAODua2uV4BOkjUyLlDfxQIve4g3K2r216h0hZT/6L1y0007VbdJn0fVl35XMldCNKtIzAjT/UA0GsW1EGSTw0Qjh8g9ZGDmjCWxbq12soWtRt32KartbQh6atTxnMInXYpIyyVD2rNlC/dZoiZQHbugMAwBnSpF8KAZXBX1TZpji+3AEAuAA0paCx9QGCcF+duFSnv1Pqd20RsrtTD7G/IRbVaSLlAQCAUwQWWsTg/r0Jr7/vBN9lBACAJgOCBgAAIBJEa1AIAACACwsEDQAAQCSAoAEAAIgEEDQAAACRAIIGAAAgEkDQAAAARAIIGgAAgEgAQQMAABAJmlTQ+BuF7lfzLaXmNyESGcDGWTtv7NLsk+VAqB4AADhrYKFFAAlR84TjsQEAwMUFgnZe6Y3T+1MKDAoAAFEg+oJmgnrq2GXWhaddZr5rMuyq5Oli7j6z3bNPen82yGfRYzDWNZeX/cvysCW1ZPZlkufGc12OJp9+xsFCzbr22Gr7/sVDIo7ddsRKC9Uj7MaUaT/4qA5Gavbv7ovL+OQTpVVdgvUzmDrY8ycBUIvtBwAAGsiZCdqLFy8oFotJ4nwt2ECWftoMRWhWDfr0DiXuDkk4k7URMsE/dVTmzLIVhV3KxYLTmdhVGithHWUKl2lN7e+HBLYMHuPH3VYnwKgmu7hH8ce8vI9mSAmPF+1abTt/QDOyjLcNRrsOcqjq1qnXe9xBydVNLSAScJMjZnfQ2m9xiSrt003JgUNa+KBFMvdhT61HgemsjTYtwsihZoqVU1HYJxrlZSGrkcVsnmQ7CY6qpicKqiyynyEJFJpGXxsA4BQ4M0F79OgRbW9vS+J8LaSsiHipJxihmYWJ2ihpolAn7nSq5fuUVUKQuNbqRaDOfTmgxKhaZqbfLO9TcrAjJA4+gWUifh2UslGwJWq2PobHQKcRgXaaHG0jWt31I2o7AsHlKE0LzfxiIkP3/lSybGESXS2U/fpN8rmvRGOjV4lkepcWVg4pNaT3yXUmK25Hysn459Fj5bMRs1BEbmUtZkz9xx8O+dGuAQCggUTa5SgCEbtcvPEfblcCtkcLG9ywE8V7r1Cc9HS+0EJjtyprhOUY7O7zrMR1mirwfN8qSXZdMTlF72VKmqx1SVoLM63KUW8St64qa46FaYuyq60UH1ZiKNPfVD2tSHGdQ+WsgCxvo8Q741pgymJkS9O1niMx6hQAcO45M0F7+vQpdXZ2SuJ8I9BW2PcSfTjaHZffUA07sXuR3ZBE+Q87tCDTZrVjkGOwuy9gKQatEmshCRvfKWuytLSlxK/NuPnUNqNqX/Wmt4PGYgeUX1LWp1hgXG81rUQo41hk8VionBWQHLlO7+93EC1+DvarsaiZOrE7NDMfdMECAEAjODNBu3fvHhUKBUmcbwhshRkXI5N7tR10QXapxvbdNuVi2oXH4pRb2SMq4248glh6vovNDhAJWCWe605ZZO9c1x6jxEXEwCyrOyxWh7TwTtXLWGCJLlJW6YHnbmTGh1wXY7FylqA3TnPcN/lcD/4Iv0KgBb+ElQwAAHUk0i5H6aN63EE54/7qXySaeez394g7rnDoNfTsDqQCVexu1ASPcWl6h2ikTw+QMCQHiDLiflunKVLWnAwmUUh/2yFNTfOyz0SjHZT0BK5ydD3Y7VncEmKxyqp6Jq7perHIZAutwT4xGVxyQBPFynkM0jepjs+DPxJ3BmUgiOeC5UEv98ODVQAAoP5c+qEweVB3uI9snRYG+zAwAgAAGkxTCho/+TcDPPzdFbRmKXcj+B//SQf9P/9T3EwBAED9gYXWUGChAQDAaQFBAwAAEAkiPigEAADARQGCBgAAIBJA0AAAAEQCCBoAAIBIAEEDAAAQCSBoAAAAIgEEDQAAQCSAoAEAAIgEEDQAAACRoEm/FLJF6QeblDFTHhyX7DfzZXcO4zK9R2OP/YjQzYP+ZBYHCqWBHvoR+Op9iborOIK3+5X/urH0qXhk6ko4ybYAAFAFTW2hcQNuA0nyh4BnaIf6n22ZpU2MG/izRAiXYN0RSBMAACLkcmynyVE3SGWTU2VQTIlJ5gQzPTdI9GpYZwCAxhP9PrQPn3SgSU4B643dema+JNe6CS0LWX0Sldkuc6IzH7ddmDfPiqwrLrp9IgnYuUKzVQb7dClZTomqvULpZ87yUFndsqXDUW9MVG693C2jrn/6mTnnvE+ujz23Jp929v3zq13ZUnD3+0Stp/YVWA4AAGU4M0F78eIFxWIxSZw/OaoxfaeEYKDdsQYOaepru3bLPe6g5OompY0Fk3v1maZiPcZl10czsX3KmMbzyLKCvx03yv2LrdodqJJEZzZiUHa7ECw2E4UOWpN1eyilyiaNN1s0d5WlSexyrLz/L/dqmzJqGy8KdZlyag7V+p26rKFzw9tOrBqXp6pHvKDOq8cWpad3KGFdnndbaWo66OrMFC7rehV1l+5TrqvPbNtG2cXPRhDV9Xuuo33LslHej2wAAAAVcWaC9ujRI9re3pbE+VrIzPtP+pcerNMUKYEINKItNPOLme79KeDCS9wZdBrcb5QPN56r26ahbafJ3/zBFm+W9yk50u2J5vgvLAaOm7PEdkF2aWHlkJKDHaZM3ZQaaaHsyo5j7ZUnWPdlJV5EM499196x5Sxzbnhb/8HAuHItS7uUiXVQytZruFseBlxXp1+vYrRRysaG671MSZ1T1tkOLRRaaOyWWSb71VkAAKiECA0KUcmOcKwEcX9ZQdimnNN4stitjZCyPOxy61bbFeHLLq772yprJUsHlFfLS28XRgto4lrtQT/9urN1qWYMdDrWXPlylkdvm+y6YqYVjvDkvhwYd6itox6NmftyQtfgxndVvlaKN92IVADAeeHMBO3p06fU2dkpifOni3ZPJq176/frNGaWWMSCM0L5euCQpp5zH1Q7xZV4+NvZ5LsGi28X5ors58QiILAl6LgszbzjylkavW326zczrRCx0SSuterXIwL7HTp5RG4RzUoEFwAAinNmgnbv3j0qFAqSOH8WeI22DJPXWUYGRDj9TYmuFtWIa7fc+BD3+2x5rjs98EL3IZXbLkg7jQ26LsYtyiy6Lshq6aa5QH9U+XIeB2/ru06NC9Iy3E4pZaFlrIvRDOQo1VdYMb0dNBY7pIUPRpRD1wQAAI6jqV2OtWOH+G9qt9lyu7KmfIEbf6gHdFh3nQyusP1twzdobeSAJrxlft9V2e1CsCUnAzVk3U3KDPSczMqRPidlEdoBGmXKeSyyre86lcEmZpGI5+MOytk+vGk9kOPkL3Sra3K/g8i6SZcvow8NAFAVTfqlEBB9+BWAdcqPNujrJwCAyNGUgsZP8CA6cB+c/qTXNsXtp8p40M78gbIqm/HTZQCAswAWGjg3cD9f/+KhmWrgtykBAJEEggYAACASXNBBIQAAAKIGBA0AAEAkgKABAACIBBA0AAAAkQCCBgAAIBJA0AAAAEQCCBoAAIBIAEEDAAAQCZryxWr+qn2mqy/wMV+ep6MsOx/g5S/BT+/R2HGfT5LPLFFw21LIPjm2WIiBHj9gaDX7C+F/LSNUlwaiz52ZCOPWCwAAzjFNaaFxWJZgdGcOStlCyVDk5NyHPcrGrtJY3b8F2EIzj914YOF4ZJUTDDmjw8jo4J2nI2bM+EO/Lhx1QETM1q1WMZOwMqUCnAIAQP1pTkG7dZWShe++oHH4frpKqcGWQNDM3NeTxBirhm5KjYRFtlZaELUZAABqoDn70Ho5aKYT3ZgjKsd+onEldOSJClttSvyuBd2SEmuLkxOI05KXIJh6+YkDVrqwC9IeVyVrybF7UVx9HJft2X+iNMdFI45pFlzH2/aJE/1aLKBPlDZ14vJqay9Ps0/M+hLQk79i707XgAniqfcRtLoC59QrnzqmuGW5Lmb9wD7qfH4BAEBxZoL24sULisVikjhfHd2UHPCjG3NE5dRQtxa6wh4tSIP7TQlaGyXN19pFPAodtCauNB2IM+gi3Kepr53azXa3jTLz1bjLykWcVo27hEExLjyJLK0jSUuQT+vie/iPaI5dl2qSXY7SP6iEUIKE2jLTDvUHhHifcl19sl/vq/Sre0T3zfqxfZp4sEtJ2Z73vU+Zqt2iWpwS4gbl8rf6QURV+fxzOiQBS9Oyfx0ENCmuWe6/3KXZ584+JEBojeIKAAAlODNBe/ToEW1vb0vifLVIP5pEmNb9Z9pNp4VOLLelXcoMtJt+qF1aWDmk1GjcCI6OWB10EarG9xfTX2SiP1vBPIq2ojzLpGzEadW4/+4PSsl9OdCZCmChJq8ONsr2riMELTR2K3TMgU5zrHaKc8Rnb/srerpa+DzGOihlBVPOjdNXWdihjMlzX1y5qNuZd8aC643T+1PsIwQAXAya0+Wo0P1of6ac6T+zAz/Gh5R1tbwlwpHsuqJnirWmGtR5R4TmlVi4/XDU6vRdGTEoSXhQiEolB09w5GX/uOkVM/tYtMvUr8PZIAKsRKvfnrcH6zSlyiV9lcM3jDXr1K+oK1GJ8W/GwrT7cd2nAABQB85M0J4+fUqdnZ2SOF814l5UgmT6zzxXX+9lEbqFr+RYL9o60aMH3VTKStBiUheWtpQA8BB8fcz3o61mwXFoUdVW6NmRuKbKqyw061a0ybPEWNTMvLWRFiVupVyJLGp2+x5KKZHU7kkAAKgPZyZo9+7do0KhIInz1cPuxQPKLh/o/jNLbweN0R4tFIIW19igamyty0shgxkCVoLTvyQiVMSdVzN2AIuy1t4py7BC2Nr0XYxmW8+FeEoMt4v4WLeiHdzBlpgMWHHOoRa/y8X7EQPWm37AcAfsAADASWlalyOT6CLKrFJomDtbNofKags2/DIAI+a7vOQl7N9snxrTpoTws3aHze8ra+6Yl7ErxfTH6T63z0SjPFjCH6GpRWuzuAtOWT9rIwc0IWVepylSltKpv+SsB3jkrFtxeodopE8GoYTP6SUe/HLfnFN+sDD1Ti+F9sF1ifX4A1kAAKAONOWXQgAAAIAwTSlo/JQPosH27H9D/+C/+M/NFAAA1A4sNAAAAJGgqfvQAAAAAAsEDQAAQCSAoAEAAIgEEDQAAACRAIIGAAAgEkDQAAAARAIIGgAAgEgAQQMAABAJIGgAAAAiQZMKmv56u/7QrZMC0Zwbg3ylX46j45wFo16Dsix9UtfpPEeqbq5r2vB78dxfryDh6A/g4tHUFlowvlkPpVY3ITCNRsLHrNCsiRZQnnDYGACqoKp7DYBIuRw5PtppBsTUASu9QJfgeCQYaKmgqqB2cC8CwERI0LYou6qsNjfYpwlGWdQlKe4Uuyz8FBh0aRa3MFw3j8k/++QcL+SqCZTlmKfOMuuKW8Uuc90r9mn2lV8vLpu7vme9lljX4ruyNL4rR52X6R3KEsc588sl65v9+OXlc7JJGZXLzJtzGHZhlaqnKV/6mVPXsu5kff79MvjH0HX55FxP5ziMW4YnW5Q3s4sRqGfYtVWqLt59kvfLwNsGjhvcV+A4ZettaeC96BL4zTj3DM8P1IF/P+5+S/2e3HJr/Huv+L0WxL3uK5T5amYbSv5WhBJlCpwbeBeajTMTtBcvXlAsFpPE+VrghtLeeJcebFLOBJ7UqJv9+Q4lrFvycQclV7fND0PdzByM8rFZdreVpp7bG55/JHpfdrvcfGU/ehFUcX/20Uxsnya8xkj/OL2y8PGmS/VNlFlXNRz9i6302h6Ddqg/0OCpH//XdrNdG2UX1ylN12V6baRFTW85x1TrrlymNV5X1ZF43WN/vDpQZ5Ja1LkzAVBVmSYKHXo/Kr0eUPv9g8vEVkMPpVSOXcNHg3kG67k2QqFzcqjEsFPXRa7dZsny5V59loChsq459170cWb1gOLmWkv53Gut7hEOWCrbjqp7qiALjhKuZ2yH0t4xjquLujcWv1NStlXnpKCu23OiOZ7mujkRwbkR9o+j6lKozY1en3vRRW0X+M3w/WXuJ4lqvkcL9jeytEuZ2FUakwC5od+T2i5T0e+pyL0WQq47B72Venaq63xolijK/lZK/caPthm5+UrODTgvnJmgPXr0iLa3tyVxvhaCfWh9NLay7jzRajeM15BufFdPey624VWwK8xGr97YoYVCG6Ws+6Y3TinVCC58OL5RSY50G3caR82WjEZ+4B2UsmWRKNb7lC3WQPO61EZJb13fTfdmeZ9owEbiVvUb5WjXu84PTv34fzEWau9laQzGbul6JK61yn+X1KiNLs11VI35sj13VeCeO9VQ5EsJQphQPRN3OpX4uefErctPTmTxo3Dk7B9eJO9vR8sw0Ok1iImuFp1h5Fr750hfF50tiiM84w8dF9+xdXHvjStybyQHO8y5d+u2Swsrh/51Mdc4u7ITsi6Opy73YgAlML/7wpL7cqAzArv7/d8I36de/Yqe48p+T+XR58o7jipDSj20Wcr+VsJlUvf/e6dumXfmgUfmw0XeTETI5Xi0gQ+4bt4dqAbewj9OPYjEW26FUIRPPdHa+SpNqKfdk/TNyY+fn8q9fa7TlGp0c1+O/qhl3dhlp5GzaLFIdl0x0yelheLOU2+goa+GgIvmMy2Y2cdRup41wC4vrwzblCsnSi5yrVud8xBq/F1YuMW6sMfx3VH1q4sW44DnYV41zIXvVQtaKaq5F4OwVeOXK71iZhvGh6zw8n3qiMWRc1wv9LlKXDPHUfgPbcf8VkqWiR+CjTVnz88RVyU4z5yZoD19+pQ6Ozslcb7uqIY2s8ruCmPB3b9qFlhY1Mwy16Ullk2bcVU4ybMAqkd+aOqp2LqrbCrWiS/rFm3AdGNbv0Evh5R33D65r467pgre/LFD2QHr7hukVIViUrqe1aIa2nfKIrDuo9+v05hZcixyrQ+c83CMhSnWsr527MLNGHdU/eqirbeg54FT/ayEau7FAEtbSvj838X7UbUfF+t2XFLWD1l3o+LIOa4X+ly5QixiLRzzWylbJhY1e160e9h3LYPzzpkJ2r1796hQKEji/MnRDZvvZmD8RlsaXp01VoXjxxe3j7FYejtoLNAHsyWdx7X0Y3jIj913V1mrpmifEK/ruqucsvJTsG+BFqtvdXguRhF/1ZCaATVirTnHYddOWQp/1o252U9FhOqZe7UddLVWidd4ScOrs8ci19pxPYsrSmfD+ANjNFoYjFVWt7q009igEkrr8lKIl6GeVkI19+IRrAiYey+AdjtOzavfWcxxo5pz7LkY5fpYC84Ij+dS1QO7KkOfK79fOHiflv2thMtkfuNpVTb938w2oulageB809Qux+CgkHXdQWwtKdsvZNbJDvEABSNw7BuXznC7LXcQXzc+dH5C66HE4rq3LKMskJMNidYd3Dlb3mk9EOHoQAnm6LqJu8a/ryyEtZED4w4N1bdqWtT52C5aHtsHpI/zmWhQNQ4WKwLq3PEPf/wXPahBXDTPlShyP4YVOGnk9DU4+kAQrGf/IilruhZLxLqajft4uZ1eq2NWZsnqa+25nqe/U0JtWwzup+OBIJ4rigdI3Ld9XfWqy9HjTKwqq8jro6wH1dyLDqbvS/9m1D0xygM2glaOiIgiMNI4/Hua31cWqN9fFbh/HuxS3OkHC99rYeRcDdj7dJ3yMec+LftbOfob1wPKQueGt4v1HH9uwLnh0g+FyYOLAj+VT+/RWInRYwDUhNxX3ymFgRTgjGhKQeOnJ1A73GdoBY2ffgE4CdzfxLBbtv9rp/Q3R+03+h/SfXT7L+F6PO/AQruIwEIDdWWXZp/waEkeNALrDJwdEDQAAACRIELvoQEAALjIQNAAAABEAggaAACASABBAwAAEAkgaAAAACIBBA0AAEAkgKABAACIBBA0AAAAkQCCBgAAIBI06ZdCOMzDJmXMlEvxcP91QD4X5YSgCVA6THw94BAi8tX1s/isED6TBQBoEppa0KgB4iXiQT3lA3rWsZE//nhc112igX2ioWrqW6dzBEEDADQJcDmecyRY5EA7pbqCgR9PDY4d9zvEDABw/omwoPEXwG2gPk46XL7AVoc33w8eyOEvJjhiLgd8fGaiGFeMjnYb3qc9lh/g0pRL7f/44+kovBwwMXHrKiU5xL0TUJGWPqljhevF0a35GNoly8E1w2XRZXQidjOyryLLvH2a6MneOiY55Zaozna+G2VZ9vGJ0mb7YsEaAQDgpJyZoL148YJisZgkztdCMGJ1MCpy7tVniTbLsZp+/N5HM7F9yshy1dg/5yjQPF8liVCrRUFHwFWZgWNcjkfQAsJRb/19GlFgC0dN0+JnmZZymei5xx5vY4cWCiaUv0TgdsPGl8NEYlY5v09RCa5Ev9b1Xhshmpq2YqiWcQTmx+accDTv50etwfGHZrmpY5L7Dn8x5VaC2L/YSq/Ncom6HBDpfcp16fPTkD5OAMCF58wE7dGjR7S9vS2J87XAjbXXwKr0/o4fgI/FwheJb5QvmKzBc9+JS+2Egy2M8KTs8cPio6bnREBMeH4vdH95ch/2iEa6vbJxiPvsyk5tbselXWWxGXFUJO50KsHbp6xnLR3S1B9GgIZv0I+yYf+tOPquyDfL+5R0y8qh9Vd3fetRid/YLQRIBAA0jui6HAMutG3Kxcx8sV6UxUbKgrDLXfdYLWx8p6wShwnveDwqkSj79ZtZwQoIqUb/eoX9UVuUWTyk7OK6t89L8/tEhR3K1OCyy305IIpdLiFS3TT3u7Lo2PVpj1XS5epbo76ltSsPDIGyyojQA8q7bk0AAGggZyZoT58+pc7OTkmcry+q0X3HFoNxAf5+ncbMEg2LmrXsVEOuRCLtuCurpvcyJZX1Y91tXnLciG+ebVIm1uK5Ho+FLapYB62F9skuysxyKbEpTeJaqxLD72WEm0XNHIfdiUrcivV1vXm2Lq5c1xrm8xlXDwz++bYJg0kAAKfHmQnavXv3qFAoSOJ8I/AspKUtmvJcjnrwht9YX5HGOHHtBO6w3g4a8/roGH0Mr09PWYvyHtlvg9r1WKR/Koy48AY7jlhU7HYk68oTIfXdhuyiLP6enGK4PeBilNGT1gXpDPwQen9Sx22heEiMZBBLQff/hRF36OKW52LUA0ScASsAANBgIupyVBbYKDf8xoW23C6WjRY4ZYnIoA3jGnugLQ7rPtOCobaryg2pB2EkPJebssYGjBXDrs/5fUrd1f10iTvXtbvTuPSKHk8JTGa1RJ+TESYRT+mr8wfHpOmquDU13ZQ0y7SwBustfXmPTd8h9yPyQJBpe07YpRh2jWoXKLs8PVctJ1vu4Ru0NnLguV0D+wcAgFOgSV+sBgAAAII0paCxBQCalxd//Q/pr//p3zdTAABQH2ChAQAAiATRHbYPAADgQgFBAwAAEAkgaAAAACIBBA0AAEAkgKABAACIBBA0AAAAkQCCBgAAIBJA0AAAAEQCCBoAAIBIAEEDAAAQCSBoAAAAIgEEDQAAQCSAoAEAAIgEEDQAAAARgOj/B/4lCPgSLNoIAAAAAElFTkSuQmCC;" vertex="1" parent="5">
                    <mxGeometry y="29" width="436" height="470" as="geometry"/>
                </mxCell>
                <mxCell id="3" value="&lt;span style=&quot;border: 0px solid rgb(217, 217, 227); box-sizing: border-box; --tw-border-spacing-x: 0; --tw-border-spacing-y: 0; --tw-translate-x: 0; --tw-translate-y: 0; --tw-rotate: 0; --tw-skew-x: 0; --tw-skew-y: 0; --tw-scale-x: 1; --tw-scale-y: 1; --tw-pan-x: ; --tw-pan-y: ; --tw-pinch-zoom: ; --tw-scroll-snap-strictness: proximity; --tw-gradient-from-position: ; --tw-gradient-via-position: ; --tw-gradient-to-position: ; --tw-ordinal: ; --tw-slashed-zero: ; --tw-numeric-figure: ; --tw-numeric-spacing: ; --tw-numeric-fraction: ; --tw-ring-inset: ; --tw-ring-offset-width: 0px; --tw-ring-offset-color: #fff; --tw-ring-color: rgba(69,89,164,0.5); --tw-ring-offset-shadow: 0 0 transparent; --tw-ring-shadow: 0 0 transparent; --tw-shadow: 0 0 transparent; --tw-shadow-colored: 0 0 transparent; --tw-blur: ; --tw-brightness: ; --tw-contrast: ; --tw-grayscale: ; --tw-hue-rotate: ; --tw-invert: ; --tw-saturate: ; --tw-sepia: ; --tw-drop-shadow: ; --tw-backdrop-blur: ; --tw-backdrop-brightness: ; --tw-backdrop-contrast: ; --tw-backdrop-grayscale: ; --tw-backdrop-hue-rotate: ; --tw-backdrop-invert: ; --tw-backdrop-opacity: ; --tw-backdrop-saturate: ; --tw-backdrop-sepia: ; font-weight: 600; font-family: Söhne, ui-sans-serif, system-ui, -apple-system, &amp;quot;Segoe UI&amp;quot;, Roboto, Ubuntu, Cantarell, &amp;quot;Noto Sans&amp;quot;, sans-serif, &amp;quot;Helvetica Neue&amp;quot;, Arial, &amp;quot;Apple Color Emoji&amp;quot;, &amp;quot;Segoe UI Emoji&amp;quot;, &amp;quot;Segoe UI Symbol&amp;quot;, &amp;quot;Noto Color Emoji&amp;quot;; font-size: 16px; text-align: left;&quot;&gt;Blink&lt;/span&gt;&lt;span style=&quot;font-family: Söhne, ui-sans-serif, system-ui, -apple-system, &amp;quot;Segoe UI&amp;quot;, Roboto, Ubuntu, Cantarell, &amp;quot;Noto Sans&amp;quot;, sans-serif, &amp;quot;Helvetica Neue&amp;quot;, Arial, &amp;quot;Apple Color Emoji&amp;quot;, &amp;quot;Segoe UI Emoji&amp;quot;, &amp;quot;Segoe UI Symbol&amp;quot;, &amp;quot;Noto Color Emoji&amp;quot;; font-size: 16px; text-align: left;&quot;&gt;: The rendering engine that handles HTML and CSS rendering.&lt;/span&gt;" style="text;html=1;strokeColor=#005700;fillColor=#008a00;align=center;verticalAlign=middle;whiteSpace=wrap;rounded=0;autosize=1;resizable=1;fontColor=#ffffff;labelBackgroundColor=none;" vertex="1" parent="5">
                    <mxGeometry x="90" width="264.5" height="50" as="geometry"/>
                </mxCell>
                <mxCell id="8" value="" style="group" vertex="1" connectable="0" parent="1">
                    <mxGeometry x="583" y="-7" width="547" height="755" as="geometry"/>
                </mxCell>
                <mxCell id="6" value="" style="shape=image;verticalLabelPosition=bottom;labelBackgroundColor=default;verticalAlign=top;aspect=fixed;imageAspect=0;image=data:image/png,iVBORw0KGgoAAAANSUhEUgAAAiMAAALXCAYAAABfKUC+AAAAAXNSR0IArs4c6QAAAARnQU1BAACxjwv8YQUAAAAJcEhZcwAADsMAAA7DAcdvqGQAAAAhdEVYdENyZWF0aW9uIFRpbWUAMjAyMzowODoyOCAxNzowODoyNkqDZWcAALO0SURBVHhe7P19bBznnif6fblYSoYYhbk8y4YoXx5v72gGaobm3TuMsb6cg2Dd4gyGPL5Ym4QuMriAdTXIWrGbOrgAaWs3kJAJJOyubBJBRuxjSHNxBDoI5g+BtDfxUIN7qPb+cUbwwuEkoAm2MKPZhk1YFJqzBAiBjkUGYJ7f8zxV9VT1C7v5olJT349RVlXX21NVzX5+9fye7mraVkBEREQUk39g/yUiIiKKBYMRIiIiihWDESIiIooVgxEiIiKKFYMRIiIiihWDESIiIooVgxEiIiKKFYMRIiIiihWDESIiIooVgxEiIiKKFYMRIiIiihWDESIiIopVlWBkBiNNTWiKDukJ5O0SB2pxAmdkf+/P2BcOp/zHZ0rO8chndmZN7HWqdF0+G9HbPPPxM7lqREREddu5ZeSNcSxtb0Me7ru9PY3Ml2PoahpRVSDtZOb9M5hYtBMl8phIN6HrQ2D8G+/8bmPpozSyQwweiIjoxVFnmmYIkzMZ9W8WWVaWVc2834ThT+xEGfmPRzD2JZCZuYfRbvuikvrgng5K7n2Qsq/sRF0TCWRyo6h1DSIioudJ/X1G3k5DwpFcwQlGbCrADEFrgFTITaFWlNKUglnGDjukgKIpjVA6w0/rjDjppWDf3rojH9vlvPlu2aP7r3Bc7nFMOOX3yiP7MoFIDmOvlmvlyGP2bk79m0H6bfNKRSXpqug5jE6bFhe/zA/1i2EVj0vx9ucNO1wTIiKivdp9B9YHBVNJScU2lEX6oyV9Rz/9nlTAJggY+v1IK8pnOTWlquCL5i7etB6kbZrCpoAq9BGRCr7rwxwyMzalMZMpn85QQUBa5sv21N6GI5VptpDEPTVf0iFStuEbSZ2G0tNq/yN+WSsfl+/LWeB9b19qazfMvqR1Y/o9WcAcW2krRx6FL9U/byT3vTUjaHGRck0Cd+WMO6oelwpkfjGGnJeak1Yw95wQEREdgN0HI9bMr6WyS2NwwFSrXgCSk1YCrxXl7qyupM2yXmvADHLSevDGIAZ1mmIIaanAP8mFK3zNtiSoSjLjtSS8ncH4G8G2fe+l1ZaE3Z4KGGadO/900pQzdcr8mx4Y1AGBN+2pelwev+wpJFVZ8KUN0HYj1Fqx2xaJaItLCqMXpdyBmo5L9ws6g4nfntQBS+0pIyIiovrtPhg57d7Vm3SErkTVXbfIP5SqdAgZ3eIgAYENPvxgwdIVn1nXpDbyKJR0+rQtCeVUCQBSSWn9yKHwt2ZaRIOO6iod116VCV7eNhW/18qyO7W2uFQ6Ljd4CZap79s9RERE9ak/GLGpFq+FwfBSLcHg3U2nBgbV3Bxmf5HV62V+PxSK6NaO4Ns6MoQ7dBq28i6nSsWbL0grQRrJ3zbT9at8XHvjVfqRFok9q7WFpspx+UGRpHDMS9mhSHqKiIhoH9UZjOQxcUOHFMjYyss086tg466p/kyHVKdTZPcgBiWd8mUkzVKSRqn2exkpDA6YPh1Zr/L+LKv7RnhpFt8nWbvvaBqoPjse1w5Mq0wVNs2UHXK3KZ1Ph3XQ5uu2wZbfR8cEg+XZ8+QHOd71ClQ/rvA1GPrlki7jQfRtISIi8qk74Aqmt1W1tS2LhIY3xreX7BK+mUxomcyMfd1a+iitX09/VLLmtrr7dtbNqL1a34xvq2p1G+/5r/jb8YbQfvzlx7dVBVqyPW9dfx1bZr9M0WlR8bjsufHPxZLdZ5nyy+AcQ1T0mPQQOcfuMumPxiP7jpbFPafp7fGP6jkuEb3uzjEREREdgCb5n6p0Gp98JfXVMeTem8b2LyOpICIiInpu7fnbNERERER7wWCEiIiIYnV40jRERETUkNgyQkRERLFiMEJERESxYjBCREREsWIwQkRERLFiMEJERESxYjBCREREsWIwQkRERLFiMEJERESxYjBCREREsWIwQkRERLFiMEJERESxYjBCREREsWIwQkRERLFiMEJERESxYjBCREREsWIwQkRERLFiMEJERESxauBgZAYjTU1oig7pCeTtEjtanMCZpjOYWLTTz8pnI6qsI+oInkffYepf/Etc/Qs7qZnX/vBf3MHf2Ve0v/hT/OFP/hRf2vnv3vjOzqjHb3D1J9H9xWPmxjyaLsxj5L59wbeCEfV604UFTCzbl/bVOiaumH2bocJ+7j9wllHDlULl97pdtuRY9Ou1HUf+zkLlfejtPHhO38M7MZ8dI5/ZyXKWCzijzt+ZO+v2hV3ay3mquq55T5a+V4kaU8O3jGRmtrG97Q1LGMcYuuoJSCjip/jp7wB/9R9+Y6fFd/juN/9Izflr/MY5sV/+h2+AP/5dvGGnD4N0ohnZ+RU7Zd1fR9aO7j+pVB5itucUtm/2muHyccxei1SEUjFNbWL8sl1GDUs9T9BVKVjoO42lfnUsU25lpvY1tYHMuR6MdtqXqKz8V0+A7hZgYY2fJUTPwCFL06QwmptG5ssxZKvd9cTt7UkVOE1iyE4+b974568Cf7MStIL8xV/jr/745/ij3/l7fPef7GsSoPwN8Hv//Gdq/Kc49+//DLcu/tTMamSJI0gvrofuRvPfbyKtKqa0nd5PMzceIdt9EvfOttpXlM4k7p1rQW5uxS+HlAGJ4xh0gojU2XZkik8wW6GVI3X2FYwnNjB8wwRX3r4m+/Tk3qhgZ/vm6ef2Pbw3K8jOAYNvtSJVXEM2rtaHQ32OicIOYZ+RFJLqVj3/0Lmf0ekYL5VTJi1zV9ImZv6Zj4P1Zt5Xr70fVEv5j8+E00A63WK3+/5IpOk3j4m0naf2OfK+s66bprHjI7Ivuy23DKGyp9Vyapuh+RG6zN7yTtnNsZgymvlV0lP/pAM//c2KCjeMv/tPK/jpT3+qg5SgxcS2lvwTMx6kaez4B3+Kd3/yL/GHepBUjkOnd+y8D/7avugxaRtvvp++kXWcNNHf3fjXpdMf2LK52//Jv8ZU5dNV6kQrBlUFnvMroHXMLqiKqfeonfZEUyuR5nTbzG/mVUqLrCCnrkGmt8NOO/pakUFQjtTLR4CSwKMDkzertXK0YvTdNhVcPcKZKwsYXmzB9MUy+9oNN4Vgx0dsmkuGoFXHnCe3lUenwyRAKkmF2HNqg6cSob9jeT/X8f4O/a3m7IsVSEuYDvw6VBCKcEuZLvOCOtYF/1ij5fXSfTKMzNsXhV43OE9eisVdPrStaJpGT3vL7TF9RPSciTUYuX37NhKJhB5kfH+oYOQ0kCt4NdAMRl4dQ8pL58ykMPaq218jh7G7SSzJvG/GgQ+7queSfWq7Q1k/TbSUzIea8vMfj2AM42a72xngk2ofgFnkk0u2fBnkPhyxH6QqoPnFGPCRnXdRLRmq1cMkWBp+4O1zGplPhsOByyd5JL8x5Z1+Tx33Lyqks1L/DL/3s2/wGx0IfIffqLvE3+v/qQlSfvXXJrDIr2D5Z7+Ln6VkotR3vwL+6D//Gf7yP1/BH6ltXfcCBQk23vkGv/epzPszZH+6gr+yc0wgM4XlP7mi5/3lpyr4eccGEz//Xfzeb7w0kSlTkDaS6b+3rTSy/RX80W/M9v/y0w78+b+K9HWp6hgGe5xUzfIaZhFukRD5O99iLHHSpkxO6RaIrF+prmDk2hpS52xK5dwRjF2LBCti+Ud1/puRLBtMHEMyofbzvd2mukue7t5S2/EqrjLbK6czicn+ZuSKwPjlg7zL3kD+hE016Vadb3fulyItQJfbALusPqdow1LZgMn8Lfh/x+pvNf1JNhxwVHx/V/9bjZqZ30C6p019kgBDb0kwF24pA7bU+u3mWFX5Jdjz+26ogEEHffZ9kSxu2Bme4DxJC5X0yxkuqmPWy59ERgJHNz3n81Jsslwvlk5sHmDqkOjZizUYuXTpElZXV/Ug4wfisxyyb4wj87adfjuD8TeyyDkBR+biqP7gQfcoMu+pCv/XNXzMy3bVvWvabjf1QUZNefKYvZtDemDQbFdVAZmPqjXyq3U/sLX6byeDdMDiLGa/TGNwwM7TZTejpcrvM3d31n4gK+9lMKru9EQqWa08pt/I8n8yLR3f/UYFIbJRHaSs4Du1wb+b+2ug/5/ht/TypX76J2/ZviRmWz5J+eBV/OznZvK3Lv4cv2dG1SH8R/zVb/6RCXzEz99Sgczf46/mpBxqO2rcpIlUmfC7+KN+NSbTer1gm8Df489/ZYOfn/8Cf/nvz1YsZzmp148jXZRAQW36qyfIJV6y5zSQOtujgkOv0vwBBVXZ+3QfkxakvXTIPjW3D100FZGutFSlNixBSbVOrJq07Gypf7cw+9VB3k23IOOlmjqP1p7S0sESdJDVpQLM8XeTJefakBTsNia9v+O/LajbiIhK7++qf6tR0lrlHktbpKVMNGP8LXvtO8PvDQlk0N1qr3UrRgda9FigGYOveyk5c228wEdaujISOJbrpxJ5T+kUnRklOhQOYZomj8IDIJ00f946XfPlGLr85tsujKlb+yCNk0byt+2oUr2SDuj136j0wanKoPaROlV+bs30B24KSfsBW90+7dOSlMx336kgQPcX8Tqp/hQ/UxWHBAfffff36Pwn9fcRkZQPfqaCGzttggw7quZ9pz6QdeBTQvb9j0yaSMr0Ox144590mGlZzy/jz3DlP5/D7/1qKkjV+K0yNZIKRqdETGVRNo3iNplfWEU+YV9XTP+OoxXeGw5dkW2hULYFwQQ4qZedviQ+Sc/YoKS4hpGyd9KG39pQa2tFDLyKNd3/StWOtaEU5I18zQFP6d+qSeWWk7+zqip9G+jp4SHG1HXI3t0p6BPr+pqlTxyz00rVwKzaNQ4rfU+ZljOiwyLWYOT69etob2/Xg4zvC92aEFTK+t83vNRFMNzzWiIi8oUd8smW3u6XlT6gyvRb2Q3dSqKCjEp9O0L2aZ8eScn8zQq+tP1FPL+lXv/uu/+I7/7GbYmonawPpz+KaXmxo7JPdWcqLS/l/Fb/7/pl0ikZSd2o6an/8I1N0XgkILFpmt/8AX6qApP6vjosfQW2MPv5CmaLTguHbx0TdzdU5el9A+YVDNo5wvTveFpD5VWmT4IndCds+lKUfo1zhwppuYARr7XBS/PcqqVSfbZ0x9pEs5+uKWtxAtlP0hi3aZjtP3XPeHWlf6smcC9lg08vveYNkoqp0lE40KqvR+7xD3ZaWX5a2oLji6Tiqih9T0Va44gaXKzByPnz51EsFvUg43tn8sq5UFomHf52je0EF/QLyWHslzYtoz/wgMzvm0ZW3UrySc7mi00axCfbVdWFl+7Jf5xVU54UBgfcFMkMsh/WFuSEdA9i8I2c2q/9CPosq1t1yiu/zyBtUydJyajA4DcqavDTJkIHAJJqcVs36iDr4xv8ufebJDptY+k0kJeWUf7ic/y5m7ZJdaDzN3+NP5f+Irrj7E/Vf2p9NzDK38G7bqdVWQdeR9vaDfW2ILe4gZzf5F7Kr3Tur+i7Z1+k86nX6bFcRTt0sUw/AVl+SoKdDr+5X/djmYpsQ+/XbfZ3qQDm1hrgtDbofe3QkrL/bAXtpx5Mp12f18fiao9J11QNlnIo/K0Zm/ml+js3ozuzf6tZr/+UTtuUIf2DygWfOlVTW5pL3jdYXPWvk07bVGSuq3tusnNu2sZh31N+v6QD/bo50bPX8Gma7JDTdCspmNPT2M7ZPiDaECa/GUfeW+5V0yHUzz1D3W0lc2XnmdxyFsN62yPAgJulVdudUXPtdkfUvbE7N/XBpPnNE71uDsmqfUYqSWH0T02nWl2+Xyer9BmRfd7D9Glvn8PIvjddsQVoZ9LX4xv81a+iaRMJAP6+an+R6n6GK7/5A+BPrpoUyi0V7PiNGvIV4XPo9Obpjq7/Fuf8/f8MP/vjvw/6sOgyqunfcX7rJHUWt6TT6s9siuYn0iH2PbsN+bGrGn/kTn/4V/imi9cXQAURuil/vhXT3e4dcQcm1d10fso29evOrJW+9SIpl1MYXHho0wKy/BMMXu4Nfd1X91HRHWHtMjJMAdNlv00jLSkPdXpm0v3KsOxLp2se2lYW842vqh22VfDS5e3PDvX+0JbuBOpvZx3J/mYzQ1JdulOm6U+jv4oMtVy5b9N4/bns31vu96fV9QmCk+rMZ4D/d3RDXdcyf0czn69VCD5t0OB81bqiPvl9F9MHRs6Vbt2ys8qR6zqd8M5Nma95+8x7Cura6etwVx2D0yqmv+nnfLuIqNE0bUubJ+0DqeiySH5zz+9E55IPi65CBtu/rHSfXQupPLpQuOh05KO6yLecZgcmy16jF9JnIyqQnuT7iYhixWBktyTd82oBGfvjZTrY+DCFaTstne2yySXbMiGByjDyH3nTtYoEOPJbCUN5jFcIePbD/+veIi7/d/9XO3V4/PY/fQU37g1j4v1ZDP7SbTkz/pt/9wBfFao1qR8uLzX/A/x/J/9r9T4dAX5Z+gN8//L/9i3+p9/8vZ169n79P/42+lP/Szv1bPzX1/L4/yw7/T0axN9e7capRPR3cIgaC4ORPZCAY/gTOyHpHjdI0MGKk9d+b3pXrSImyAmy4/JbCbyLJSKiw4TBCBEREcXqEP7OCBERETUSBiNEREQUKwYjREREFCsGI0RERBQrBiNEREQUKwYjREREFCsGI0RERBQrBiNEREQUq4b90bMvP/iXuP4rOxH1x+fwlx//FFP/4ir+qv8Kbl3c1fNl9+A3uPqTKeDTP8OVn38XYzmIiIiefw3bMvLGx3+Gv/zPZrj0x+oFCUDs9F9+7D8GloiIiJ5zTNMcOHks/p+xVYSIiKiCFyAY+Y+4+pN/iT/Uw5/iS/uqpHne/eBP8a68/i/u4O/0q5Je8Zb9l7j6F/pFn6zjzfvDn/xrTOXtDPEXfxrM++Cv7YtC0jRqXze+C8a9/eohKJNw93FVLRedT0REdNjEGozcvn0biURCDzJ+EL77kxX8TKdvruCPfvYNrn/wGztHzfsV8Ecy79+fxW/pQGEKy39yxaR6fvMHWH7HCThUsHH9b/4AWZsKuvTHf48//5W3LRXEvPMNfu9TMy/70xX8lZ1Tjr/faJlkH796FZfsvJ/+zTfmdSIiokMs1mDk0qVLWF1d1YOMH4Sf/slbeMOM4ae/o0cCf/y7dp6S/4/4q9+8ij/y0imps/gjFXD81Zy0aCg//4UNWsR3+O5v9IjxF3+tgo9X8bOfm8nfuvhz/J4ZLatSmb78Dyr48Mv0U5x791U9RkREdJixz4jnP62oEOMbXPfTJ+bbOt99Z4OR/B0ntfJJqOXj79S6+FmHCh88Ksiouw+tCXB++lP2LSEiohdLrMHI9evX0d7ergcZj9U/kWDCS5E4g/1mzpe/+p/xnf+NnX+LP3JaNH5LrYvfSDDjUYFFkA2qkWkl8YMfIiKiF0Sswcj58+dRLBb1IOOxSv0z/N7PvsGf646mwnRmNR1Prb9ZMR1d83fw5+5vnPz8d/F7cNbVaZv6vfHPXwV+9de2w+p3mLrFPiNERHT4MU3jk6/gnkPnn1y1qZgp/NUfn/O/kvvGH/8Bfvqb/xkZmfevgD/6k38UBCf4Ga785g8Ab91bUIGNnlGfn/8Cl/7YSxV9AvSzzwgRER1+DfsLrC8E+brwrQ5k/Y6zREREh0/DBiPSAnGYSF+Uv7vxr5H57ue2n4r5Gfk//x35afufYfPpFo4cbTYLExERHSJsGXmumGfa+P1NfvYHbBUhIqJDj8EIERERxYodWImIiChWDEaIiIgoVgxGiIiIKFYMRoiIiChWDEaIiIgoVgxGiIiIKFYMRoiIiChWDEaIiIgoVg3+o2frmLjyEGNFO6lkzvViss9OVGXWne05hXtnW+1rlc3cmMcwTmL7Yod9pQb3H6BpasNORLVg+uZpYDfb3Rfh49/V8e1oBSMXHiFrp3zdcRzvfqn2vjHHi5L3YKXXnyf2Wu3btan+95W/s4CuheNYuppEyr4m9Ptw0U5E6bIdq+vvlogaQwO3jNhAJKE+oG722uEkMDWPkft2kb1YLuDMhQVMLNvp3eg7HZTtXIt6QQIQr6ynMWSWOvQkQHSvUWbxEc7cWbdzaT9I5d50pYC8na7b/XUViLSoa7OOGftSHIYuBu+V6W71ggQg3nunYQNYItpJAwcjP6BQVBVdr/sB1YFMfzOy8yt2mmqlK4Fn8mHfgbSqZHKPf7DTFD8V2N/d0H9LycQGsvsSKLZi9GovWy+IqCYNHIwcUx+cKAk8Umd7gkq1pHVDmqKjLSdr+rUmGfw7S7XctTXksIWxa+VbR/SdaMl6u/UjJq7YbbnllTTPlQcY0fOC16Up29/3jUjgJet489QQaoHQ58POu7KCgn1Z6G3abZlxtV9/O5Fz4O7DLld7a9QKcotOELnjNZIWsKAcIzfcFgB3npSlShDqHntk2R2Pt8p527VQebz9meMJjj16LmQ6UjahrkfX3BZQXEOX+x72t7/D9Vlew2yxBem+Vgz2NCO3sOa/n933hRa9XmWPQ5hjCd5/4euYfWxf3jXn7/bCg1BrTsW/Ta/sd4L3r5TPXZ4tdkTxiDUYuX37NhKJhB5kvD7qzuvdNqQXH+3pgyQ39wTJy9IMfArj6gOuS3/wdmDysto2mjF+uQejnWZZn/7wP+KnXKYT3nq7tPgEeNduq1sFQLecD9DiBjAg80w55INzuNiGJb1vVeaim/JQFdDUpiqz2ZakhnJzK/aDWlUGt9aA/lNm3oAK5Jy+NiUWN+15iZZJ9qHuom3qZenEZmmfkIjslK0Y9PAIeVWGWvtO5O98izF4x9uuyqUqXUvP89N05lyUr3TNsae8dJFc28XVcKVe8XjrPG9K+HjNMYfPkTqHKtj1yrPUDxX0SoVqggE/wL6vKspEeDqbOI7B6Pux77TaRjOQUOdJ98GQit+cZ11m9T7ITpUJYqz8V0+Q627VacPU2XZkik8wa5cd6m1R5yZI3ehl/TJUOo5S1a7jbuTmniKtt6Wue2IDw97f345/m+raPm71z0tu7iFG8IotvwrE/L8XInqWYg1GLl26hNXVVT3IeN06k7hnP3TMB8lD/eFf9S4wqrvdBhsquBkIf/BWMjO/gXR/h9/nY+gtqdz2kGv3y6AqgxOqUgmRO1Y7qiqZ2YUtZAa8Tn+mzMGdrAqibNAi8t9vmhGh736bMfi6bTbv61Af4ma0rEplkgrRKZOuvMxoReE+I6cwuKCuU03BmznedE+bPV6ThgvxgwqTFigf5ETmLT9Fzo76Kh1vvedNCR+vDCfD56jsOdxATr1vUy8fUQHoj/p6yvVLDUhwYKb1+84/F1WULfMWZr8qF6zLOQbG3/JSdJJGc5bta/XLJvKPnfdfleMIq+E61in4+2vVLaSenf821Q2Gd6ydR/UNh3ee9Lknolg0cJomTKdn1Ae/BCXZqfJ3Z+WkTxyzY4r+cNrJuu6r4gU+etApnU0UKtx57h/TTyZ05y3f1ik+De7inbTFiKpkfLoCPoKkrXCjH+K10gFO4ujOFWJFtQd93vGmXi7f70Cuubkb94658t1/KLV1d7OG62zt03lzVT2HUvnrlgkTJCQ7jyEJM11wA4xqSspcxf0VjBUlHRmcH/k2S9BC4PbDkhRbEHzU/l4ovY4HU/HH+bdJRHsRazBy/fp1tLe360HG6yL9Fsr01djTh1y5O+YSpjJKe03g/lAmnbPvTD+Z0jtv+80cXbEE39i5N+CcCx1ouR/K5oO7XubO3Qt+Dpo53vz3ldNvXhAqQ0mKy7NcQHZRUm72fL173M6owT6dN1f1c2haJgrLqgKHpEMkdQMUvlrDrJ62i1VTUubKTEtC9L0sLTlBC0fq9eOmdUFaQmw6R79e83uh9DqGWu32TZx/m0S0F7EGI+fPn0exWNSDjNdF30FG88Hr+lsB8D4wO19Sd21Ok7NuVg4L9alw161C8uhubtl0gKu9NWb3bJ+Cu0GFq+/4Q0GZVwnZ4/F0tmEwoSrrz+350k35ZrQu0Wb7O6sl57S6eq5RtEPlCrLSUdOKdq7U6ZWEbK8cqeDN2Mzncrdco/06b66y59BJd6jjyN5dRd4ei1T6+YUnQC0pGmHLHJxTCVLLtapIS0e51803nvy+Knp7GxiW/kh+OkfZ4TgC9jo6f2uStjkI8f1tEtFeNHCaRvpHmE6LfpPsBfNjSMFXVE0Ts99sO3+0JN+f7j+KnF1Xd7Dz1vUqoWtl+qDoDoObGLb77ZqDuut+Nr8bIi0BulOe3ffwYgumvR+Osn0DTJP7t8CAdML1ghPpN2F+40Ofi2tPkVIVTv3UedcdIs3+R9Td+k59RsIdOiPneYdrlDr7iulYrNddR9LpazB0MXz9dcfFcl9P7kwiI5WrLUeuV+78g+Ckuv06by7TQTpvyxN9/+iWiKKqrL0UYudRQAVA1VI0Zh05T6YjrJQ55Z1T3eG4tHVABw/lOsQqpuNq0B9HggmULFv9OFz6fdutAhopj3oPFBLyuzsHIMa/TSLavQb/BVaKn3yFdBXJct86OgByp9v1uJ0/gEVEdIg0bDAidz307MnXYs9ce4qM7aeigwP9VcrT+m50P0m+X1Ix2RPeT39L4GO+siotKUQHpfBvXsU//ske+p8RUV3YMkJ1kwAheH5Ihd9i2S/yQ1X6GxFWQz/XhoiIymEwQkRERLE6NL8zQkRERI2JwQgRERHFisEIERERxYrBCBEREcWKwQgRERHFisEIERERxYrBCBEREcWKwQgRERHFisEIERERxaphgxH9+PiyjwaX55fM48yddeD+gwrL7BP5qfILC/bJpuWYsugnp+qh2rL1Mts2TxRex8QVe8z7LPqY/rJ2PA9ERESVNWwwoh9x7j8e33F/HVk0V33c+rMRPNRNHvimh8vHMXvNqbSfg0q8pmCDiIjoADVumqavFRlsYfarcGvAzPwG0N1uHtzWd1oFAebpss/c8o/IR4OiziQy3aVl3rtWjF7ttU+23V9DF1UQxQfTERHRAWrgPiMdSHcDuYU1Vel7VpBbBDK9tvJ00zS6FSJImZj0hihNcZS0FujtBOvWlA7pfAmpMsGSVO7+4/D102i3MKZbS+osxw13uxXW9Zct3/Ihj//XT99dfGSW0efoAUbsunKOomWoZbtmGS89Zsq20zpERPTiijUYuX37NhKJhB5kvF46VVN8glkvzaFTNC1I99lpn6oQb60hdc5Ll7QhP1VrXxIVNExtYvyyXfdcC3JzKzWs24FJvexDvyIOAiCh5qtypGt+BL+UYwMZewxLJzbVsZang4xiG5Z0eugkMirYKBdApc72YFoFdOHH8m8gf8KkliYj5zG83VMYL5ZuVwKRYajt2Rap/J1vMZaQ6WCd8HkgIqIXXazByKVLl7C6uqoHGa+bTdV4/UZMiqa1Ylome7dgWlE6k7hXc/pGBQ03g2Ah//2mGamFThOZ4EEq/eyUBCW77CMSCbRSZ9vVsZezjtmFLaR72pDS0x3I9DdHWpCqqdTfJrrd0tTQ7C0biETTOour9pjNOtEgh4iIXmwNnKYRJlWTnZem/0iKJkQqQXVXjjV0eemCKzYw2VE4zTCyYF+uk+57oYOSLYzdqnXfAR0EJY7aQEAcQzJhR0N+QKGogpWX97v/yE7b3UJOBTJpP/AwpPVlqR8Yu+adQ37rhoiIwmINRq5fv4729nY9yPhu6FTN4jpmKqZoPOau3LRUnESmuIaRWvp+3F/BWLEF07aF497AETujOklplOsfkTrRbMfqk3pZ7bf41AliTHBQygQp+e9rOLa67LTdZoy/24NJCTwiwZYEJEEL0e6CMSIiOrxiDUbOnz+PYrGoBxnfFZ2q2cDwVLUUjfubHMJUrOYuv1WPB2kM08IS5n2FeB0Td9V+apB6/TjSJX01VpCdc1Mdrh3KYY8z621PB1/ltGKwx03LVNtnPaLbLe3cKlJnX9EtUF6gF11GB2MJ6dxLRERkNHiaRphUjSifohGms2he99mQ4aHuVOn1XRh6qw3popfCWUey32m96OvAeEK+8SLzvgUGpNNpmd83idL9Uk4i5XRgbbrwCDjn9LPobMOg3bYESlXLYY8B3vbuquNVwUs5umNqwtvOI2S7T1b82q9pWXpUU9oqvN1505m15Gu/rRgdkI673+p0zNBF02nVOwddc0cwza8KExGRo2lbseNEREREz1zDBiNyl02N6/b/8I/xP/w3P7FTRET0ImPLCBEREcXqEPQZISIiokbGYISIiIhixWCEiIiIYsVghIiIiGLFYISIiIhixWCEiIiIYsVghIiIiGLFYISIiIhixWCEiIiIYtXAwYh5Eq/3ADZ/qOGBb77lAs5cWNAPdHum7j9QZX2AGTu53/J3Fqqek5L5dgieamyXKXMuK72+Kwd8Hox1TFyZjzw9ef/t63khInrBNHzLSOZcL7ZvesMp/fj6rhe4UpBH9usn4/rnpNc+aTdS6SfasOQss32uBdmpGAKzmpjA0w2WiIjo8DhkaZpWjF49iUxxDdnnueLqO60CgNMYspP75v4DDC82Y/xyeNtDF9U5wQZy1c5JXwfGE1uY/epgWxCIiIiiDmGfkWNIJoD8906lqtMxXjqizN3/V5IuMPPd5nxpZWi6sWKnyjTF6zSD3e6NB5G7d5Me8PY5csNZ101P2PER2ZfdViil4Jb9ilquSsphZn4D6G7HaKd9wdeByZu9mOyzkwdFjsWW0T3P+jx6x+Ccz6jQcv76ch4fIavGslPO+a12TUPnbAUF+3IllcsXTgWGW2bC1zf72L7s2ek9R0REvliDkdu3byORSOhBxvdHqw5Gco9/sNOqQrm2hpSXzjl3BGPX3JTFFsYWjpqUxeU2YO5hjekAtd2pDT9NtHRiU1eYnvydbzEGLxXSDixu2TnlbCB/4pSfLsnNfRtUxLfWgH47b0BVyEW9QhnrKKh56RPH7HSd7q9grNiMwddb7Qu7VFQB0YAcc48OiiSAGy565+EUxouPygdT0qrjL9eL6W51XT6XwMC2dqkxOdcmoKp2Tes5Z9XKZ4KgvLedSBqr+vXd6T1HRESuWIORS5cuYXV1VQ8yfiDuryObaEPGaxXQ6YhwyiIzkERKRjqTyHSrymu+8t27T7aLFqTtdlNn23WFaaxjdmEL6Z42s110INPfrMfKa0HmrA0COo8ibcbU3fUaZt0AQZfdjNbEbbmRwb3rL0o/EmeeDqxMALE3wTnxzoN/fiWwGFDB1sJaaZ8eSV1d9ZYzgVVF1a5pXecsep0k8OnFPbkWZbfjpbF2uL41vOeIiChwCNM04RaC/PebkYr3IcbU/CCN04ykUwGnTlQLGgJ6u4mjtjKK+kGXIfWyrch2a/kpcjgSKl9l0RYhRfdNMXfn0yrICol2YFWDm8ZJvXxEnbene+wIbM6DpFfcoKfsdkNpjW8xa18up+o1LTln5ryUV+U6VT33pevp82Xt/J4jIiJXrMHI9evX0d7ergcZ3xf6jjaoKHQlUabi1Xe/ZeQfV0unBKpX1mX6reyGbiXZRKHG/gZDvS3A4uqB9k/Q5yfxUoUgLMqch/A3nmQo7bw78/kact0n7fweZCoGEDtc05JzVq2Vpcp1qnruS9fTAYhV73uOiOhFF2swcv78eRSLRT3I+N6Z/gK5UBN5a/jbNfYOPOgX4vVNUNS87KKqPHs79KRuJVlc9/siSNO8T7brfEMlf2fV6TPSisGeZicdsYLsXG1BTkhnGwbdb7jofh1mtKy+06avRaR/gu4XoY6rLvb4ht3UTuT87Mych+zdoNOv7ixa6avXxR/N63Y/FVW7pvacBdfUBKflRa+TLZ8cc9lz76Vt7HpzK5XfG1Xfc0RE5Gr4NE0oBSDN4Ql1d+33PRAdmLzchry33DXTuTFISTRj/MR62XmmH4iqkPW2vwV6WswMTW1Xd2o02x3BcafPiKz7ivnNE73uOpJV+4xU0orRd02nWl2++aM79hkZuqjuws/BltkMXXPA+GX1+sVagwgh38A5icziI387cn6kU2Y938pJne2xv3NitjG82ILp0PUxht5qQ9pLbdxSAY+cLy84UWVJS18eda5N59Jq19R2ePXKfe0pUtEUlaOkfNKZVZ8ns52Ud+4jfWr0et3ee+MhConIe6Pqe46IiFxN24odpz2Rr4GuInm5fCdQaZ3oetxeZ0AQJd/wUBXfwDP4mi4REdEz0rDBiNxxxkXy/7rpXd11Z2z/Bx1s6F8+NdPS3J89ccr2E5BAxXxNVKZrKbveRzTAkW/HTG1i3E7HeQ5od/L/5/81Tp94yU4REZFgy8geSMAR9MWQXz51WkV0sLKGnJ2EdM7cRauICXKC/gjBb20QEREdDgxGiIiIKFaH8HdGiIiIqJEwGCEiIqJYMRghIiKiWDEYISIiolgxGCEiIqJYMRghIiKiWDEYISIiolgxGCEiIqJYNXAwIj+VXu5JqJVepx3Jz81XOHf+03b1MuGnAu8vef6O90C8csx8/QA6O+zftQ7v23+C717VfM52OvZG8wyOxzm3+3a9GtlnI2hqGtnnv888JtJNOPNx2WdtP8cOoNyLEzjTdAYT9T4FXcl/fAZN6Qn/CeEUxpaRXYjjQ++Z7FMefa/+yX8frTxWkFN/fOmetpKn7T5bUrnZJzPf7LXDSWDKCUj04/oXMLFsp4mekcNU2TzXx7KHgICeXwxGyGEe1Z9bWAt/CN1fRxYtyMhD//pOqwDAPAzw2fsBhSKQ6XWf8dOBTH8zsvP7H6gNXVTBzp6esvyia8Xo1V77sMiDx+tFB657FPe272FUfU7S/noxghF9t2ya9Jv8u2bThBw08UfTOzJdeoctD67TD8dbfOS0VJh1a0ob2FRIuCxW2XJW2qcjmgZwWwe88TvBfqs1mw/1tgDFJ5h1yjUzv6H+CFtNABLalzmH/vE4ZYu25Mgx6DSPnQ4fa3jZyo4hmUBJ4JE622MrIXUd9MMJtzB2zRx/XeW4soKCfVlE19XTNZbXXXak5OHKO71f1oL5blmrXWfNvR4LGLkRPtZQmW5EtlWxTPbvRC+v5kWPu6QM7nkz6/rvt0rv/bqOSwa33IFgv+Fj8Qb3PFe8llKWKw8wovfnvIe8Zd3r4fpsBF0f5oAvx9DltCjMvN+EpiY7vF+u1MJLJ0xgxFtWtqFbAJxpu7QIbbdiK4HZrruubvGosE1fhWMBZoPyRVNBblkrlmdGre/Mi7Zw6Olgu+WPUW3j1TH1N57D2KvButWPq0q5Lb2+c330viPTOt3jltmOj7zv7Dt0je351/POIOt+uIgK56zmskSY5Sacfcqxyjl3pwMVz5m9DiOyPTVv5DPzck3vnT2INRi5ffs2EomEHmR8N7JTzgeFHh6pu3iXqaBS50yz/lI/VEUlH2atGOxx7qjV3X8+EZ7OJo5j0HsKryUV37RExf5TeOWD8hHy/adM2uBciypT+MM5oMoytYnxy6Ys2+eOYOyW9+EWLqeep8tZbp/1UpXzwlEsyXYvtwFzDysHTDpVs4XZr7yAxaRowq0RRv7Ot07K5BTGi4+qB2I+dc5uOceqypReXK1wzlzqTvtdWVYFZfZ6hwOrDkzKtqJPUK7IlAPetRtQ76einRWhA8JimzmHN08io8pQMahTFdrwYgum7XlJFlUw54u8X1R585H3S27uCZL6PaLOqQpMunYIfDz6esArY7v6UAme9rzXMmWL9v0Tff91tmEwUcv7pdp7v7qS91liA9mq/VDU+0Ava4al/mYg0YaMfdp1+Fqa923oWsq5GZB56j20rM6bv2wvphMqUCy377cnsfRRGnhjHEu5UZ3OlA/v4Qdqensb29vTyHwyXLX/Qu7DAtLeshII/AKYlOlvxpFW01lbKUiwEGx3G9PvqYr5l241I6Qi7MLswBK2bXlMkJHCtLfeabWPUOVplTkWEZRvCeNvZDHsr2sChNSM2e72TEoFCuUq/SGkVVln75pzkL87q/ahQgVnOvde2tz0VDzGIUzK+VD/jX9jWyh2OK7K5Q6kBgaR/iRnyzyD3AO1B3f6kzQGB8olqXOqvsmY45ZyqWscVN4j6u/RO4YMoLYXCJ+zpY9UvWTP2e7LonyizumfOsfalAveU6qkWe/9FzpnallV0vB7IYt8Ur131PzJt9XkDud4P8QajFy6dAmrq6t6kPHdkEfqex86ZlAVhZ2n2RRD2n4Qpc62q/kbyKlKM/XyEfXB86P+QMx/v6neBGqenZbWgJr6SCyvYbbYjMHXbVN0X4f6sHQ/nKNUYPC5rVwk5XE1afahg5/gA9Nsx5RzP2QG7H46k8ioP+DKaQ2bqnn8g5mMnL8SfhBhmuQnKy0XEll2+an6k66RKv89e62lksmpwEqCktqCoIiy186Mhq1jdmHLeT+Y1FBJOssKtSTJsQ606DFN79OmvIS+HpH3S3e7DaTsuovr9oOomvJl9Oy1TJX/FkxQ75+LZfX3476PQyq893cQtHwJk6qrmQrCuuaOYNrflzlP/t+DPRfhaxl5vxfXkLXvL0kF1ZZ2yqtKVlUEqmIx+xlCRlXwOVXhlnvPiPRHGXt9UkiqStpftztynlSw4AcYamuFB3rEkUfWBiL3PgjWnPl11tmHKtH7Unl6ldzOQuU7rUeMz1SFrAKXjFRa4u2MrghzXvDkSCXVOSiYM5AvAIMXBwE9bc5X5vdt6XY8xoAcF7wgRhn6paowf+lNVSm3S59jtR/d4qGC5NMZZN6z0/r4BjEogU8JFRS9b/cVuk7lr79PtqlqorQ9Z6kP1P7UK/qc7bosynsZm0Kyx+qfF/Oe8oTPWQqjF02wFLwXwgHPXt87tTj0aRoJMpA4at8QEdIKoFMS8gEFJDuPIQkzXXArqWp0RXpErWunq5I7NnNX7bfk2LteXU71odflvX7hIcbUh25pZ9LdaA6VL3UiqKTK0akaWwGGK7EwqSRMS5NX5kotQqVCTd93N9Vbv366krJBSXaqfNN9VSXXrlWngUqZCjD1ci2VkLx31J/yiWN2Wuk8Ghyf3ucGhv3rPK9TcH7wp1Rct6pqZSxTJlcNZapGB/g2tZf/6glQNnCp/N7fkU7jeGVbVcGOfX0nku7RrTFuHydznkItqlPqPV58qj7+y5CgSbd2BsvXFviqyuNLdW5Olf3k2ZtQ8/4I1L1whIT2qtL/MOv8TajyqAo992FX0NSu0x22ktuD/EN15qQlxy9TF8bUsevXI4K7frnDVxXk26ri1dNyvoLKeedj9JjjSif3ep6DVhvdYqO2l0qaVhs5jiCoqFXp9XfH9bl5IxJk+va7LFH1njOz/EG8d1yxBiPXr19He3u7HmT8IJjWjwofNLoVYAuFZfUBBUnJyF2eCtS/UneKetouVo2uLDbVNuz0jpwmZJ2eMKkNXU51R+k1B3vD/nT+k2O0o0r+sdN8X45O1UirTOUUjccLCGSYVueypqZ3VUlkFyWVYo/z3eN2xg50Pr90+/rc7UbJtTOVdinTV6W2wNAENKGK3G350fv00iXOUCn95q5bVbUylimTq94ylTB/R7NfreigvnIQX/69X906Ju5uIO2lkG6+AnUvXQMv7RlN15nzVNqiWqVTtu60bZarPfA1d6LlKuS9mvmlqgjem9bN5dvb95ApudtXd9K5e5h+z01JmDvl9Eem6T0Y9t4ZU1eyktIJbXc71Crj61Z39W+oSuwz9Xes78yl4lXTH6s7fqd1Y+dj9Jjj8lpb9mLo9zN6O7rFZkAFAKrSR2FWBQFmuj6l198d1+fsy8qflftblqh6z9nBvXdcsQYj58+fR7FY1IOMHwi/YjWT+Tur4bTNCfXhclfutl5Sp1xNq4otv1Dp7q6MaM5cVeBjlVpVoh3zOmWfttVCt9IEzcFm2RrvwnRl4hyjujuNVmB+WkYHAtUDDFO5yN2j9L+pnKIJOgwausXFO48y7qcXTNN4WBAgzXwunU5rYM9RuA+Fqawqtt5UK4e9dn7qQKcrzGhYJBWhKrrsnJsSCTMtS0EfGN265NH7dPs8qEpTXWe3z0JubsUvb+jYql7n8mX0uK1d/nY9NZRpJ7L93NwjjCW8FFNEtfd+De/fIG0of19mtLKgD0xp2tD2FbsbVAT6fVyhY2q0w7O5aajQ0hqSUpWGm5aZQfZDt9l+jx7YMi1OIPuJfqXE0C9NPxWvD4Ou4JzWEtMhsXyHzrq8ndZ9XPw+LbZVw9tvmFRs6q7/hrnj16/Yu34/ReOp4RiFHJebYtDHtZsOlr+dRPqTLLIPVBmlkpV0yQMVAKjwt2JapCJ7/f3zbdI2PjlnXlpGyX+s9qte8VuG9rUspcLnLI+JG+FUV9SBvXcchz5No+/GdIc808TaNYdQs23q9eNIF9WHtteErT4YoT7sqqVozAf7I/shJf0fTiJl+y5Ik2+m5G7Mkv4OumOqKYt0ts33v2KXDZezSd3VScdK78M0vM8Irx+IXXcEx9Xb2tWsplfLbrcSvT9RoZIXQxdN5z9zLHJuj2Da3k17fXNM0/+3Kriz2xOR8uZ6pZ9PuPWmPLmzDu9T0lmzPequ2buL9wIMdY51i1O1cthr56cOrj1FqsIfuu5EnPDSaCpI6z5ZudVK3Um76Ssd0NlZ3j7990uZbaX7jyKn5z00HVL9Y6t+nVNnXzEdXvW660g6fUakTNPd1c9DtTLtSAf9VYLcau/9qsdl+nTo976sN9+qO3NXTSHZgMXrT+QNXnAVvpaSkmpx+pSERZdtkrTPuxWWVYGGdDTtsh/SqQ/umY5+uml7WN35T5dvLaiTztd7aZFfqHMufRG8ijvE9FPIDtlKQ3dMzWPYNrV3fag+C7+ZLPv3HT2W6kyn0vxQ0IQPdRetOz6WoSu2L3N+2kL+zX2ZCipipeox6tYV+TaNDXhKjiuFaafjbc3sdnPwrq8KBCQs3mUAqa+/tE7pcnWhcNr9aw2fs5Jrsc9lKRE6Z12mo63Tz6ZEHe+d3WralvYWOrzkjvTaEwzW9O0SOkzkrr7rcXv5dIukvO4exVKNnUiJiA5SwwYjcpdCO5PcvBeMyF0pHU7Sn0HSDdkTp2yLhqRaTKpCpsOBiaQx7C/Zqmn+LdXvn//OcXw5+jt2ioj2ii0jhx1bRl4c+lo7/W9Cv0tjghP/N3ikszRbRYjoOcFghIiIiGL1AnRgJSIioucZgxEiIiKKFYMRIiIiihWDESIiIooVg5FnQf8iofOobCIiIvIxGGkkDGqIiOgQYjDyLHSP4t4+P1SIiIjosGjwYGQGI/a38mUIPZjJPqzJzHNaE2zrwsj78qAfO997smWZloeZ9535ip6OrqeY5Uac8pTuM9hupXLnMZFuwhm1Hffx2WYvah392GZ5JgNbR4iI6PBo4GBEKu5h5L3HGuuHDnmVtKm4UzPmUcdLH0FV4O4Dn3L6CYneemnvyZb24UTyBEljBrlP4D9NUp5UOPzAe1T2EsYfDOPMx87jqT7JI/mN2ef0eypo+EW5J0dWK7eh9+nt4w3vMeDmwUpp9d/4N2xlISKiw6Nxg5HFWcx+mcbggP1BazcV8pkJNrynQKY+yKip4HHNkAr9ffu8QXk0sxlTIo/9Xiwg/8Y4Mno75hHQmYve0yBTGL2YcR4RrryX8YOEVDJ4TmuILrcqj/f0TlXujApcggBIle6jjH0aojxuW48QEREdWo0bjPxtATmprMu0EOQfqor9jd09d0MHLl+qgGFRbUcFGsEjm/MofAlkvcdkyzCUBb4s9+juKnS5vcdKm2H4EyBXqGsrREREh0bjBiO/nURaAoQyfSdSp1T4UG+Q4BtCWrdUzKgBQcuLBD5vABmb+gmGSduKUSNd7gymQ9tQwy/r2goREdGh0bjBSJn+HdIpVPf9eFuq+yAtk/84G0rb7GTo9zPIfTiMsdNB2kWCEUnhZG8E/UB0p9V0uX4hVehyq/L4fU1MuUN9T4iIiF4gDdyBNYXR3DRSH3bZdIfpFDqpAw7T2TNvUypdHwLj39TRgqGDmaDjqif1wT1Mnx5Dl96fpFcymM55fUhqVVru7HvTuOf1IanGBmBjr0a+OURERNTAmrYlR0BEREQUkwZuGSEiIqLDgMEIERERxYrBCBEREcWKwQgRERHFisEIERERxYrBCBEREcWKwQgRERHFisEIERERxYrBCBEREcWKwQgRERHFisEIERERxaqBg5EVjFyYx8h9Oxkxc2MeTTdW7NTBy99ZQJMqT3SoVL59df+B2tcDzNjJw0Q/Gfn95/XI8phIx/HE5bj2W1nV6/TZCJqaRg7l+5OI9gdbRvZTog1LN3ux7Q3nWpCdekYBSQPRgduVgqpSy1icwJmmM5hYtNOk5T8+g6b0RPlzRkTU4A5tMDJ0UQUDFzvsVEz6TmOpvxnZuxUqXtrR0C+3sf3LITtFRgqjuW3c+yBlp+PH60REe3Fog5EgTbOOiSvzOHPjAc746RMnpRFNcSwX1HILmFhW43qe27JhUkNn7qzb6Z2lXj4CFJ+GghFdNq8sXirJ3a8VTTWVXa8cvS1vWWeb3j7umOOSwT0Ws7+CPl9mvpwXc8zBdCCUmnJbOux+Rm44873yqnPaNbelzskaukpaR2Yw8uoYcuq/sVdN64jb/G/GJ3SKoqlJhnDTv56vX1dD1VYEk+bwl3W3Y1MKI862QukQ3XJj56WzKNiXS3mplAmM+MtHyuRuy20N0q8HZRj5VyPo+jAHfDmGLr0NN01jx98fcbZV+byMqOWqpkz08dvl1bJS9pHP1OslLVbqWnnzZEpfm2CroX3+2r7oM+v68+02iOjFFWswcvv2bSQSCT3I+EHKqQ/RjE6fnMJ4YgPD1SpzT99pm2oxlfDMjUfIdp/EvbOtZn4tOo8ijU0UbEAgFfhw0UvnqLIUH5mAoLMNg4ktzH7lBQcrpsy9pnWn4nolVPBwbQ2pc7JcL5b6gbFrbhCxhbGFo2Y7l9uAuYfhNNLiE+Bd5zxdWEda7/MkMthA1tunDiqOYFrP68V0QgUXoXO6hSza9TzZT3rxkdmPbS3SKa2rSXWP7xrC5Dfj6nylMf7NPYx225ddn4yhcFHdhW9vY/q9LIa9Cl5VosMPxrGkXtfzTo9hpEKfivzHIxg7Pa2X295ewvgbWWRDy2aRTy6Z+TMZ5D4csZWwqvh/MQZ8ZOddVEt+qVeoKPfhLJLf2P1ABRN+hW0Cr9SMKe/SR+o6veoGCUEZJv/dpJqfBt5Qx5cbjZwzI/eJeq84xzPs7UfOyycZTNt5yQdZ83pZqkxDWWS8MiXzqhS7UHWfEjwNI++dQ3W980NMyxG96GINRi5duoTV1VU9yPhBSvd3qKpOtCKZ0CO1UZXndLdUyvMYXmzB9J5SP+uYXdhCZsCrhFsxOtCC3MKa+ohuxWBPsx1Xln9EXlXYmT6ZqLZexP11VYG0IK3XA1Jn23UQkXMCDn87nUlkVIWfnXeCiO52jHbKiD1P3a32vB0LnbeZ+Q3nnKow4i0JONadyrQZ42/Zc9X5UtkKdFdUhZx524wOva8Cly9nMetVZF+OIWvvsiVtUCmNkfrgnpNSyKNQElBkkPHW/e2kCo2sRbWvL9MYHLDz3s6oit+MVvRexgZVKYxezKhgKmfO0Wc5dZ0ySNtjSX2g9qleyfmtBM5+apD+KGOvRQrJ03pEm/m1CgTeS/vzdBkqKVum+lXdpz6HzvntHkXmvRxm75YPHInoxcAOrDXQFa36N3PutF/51mz5KXI4gqSu4H9Aoagq/ymbupBhasNP4+jAofgEs8uqivzqCdDTZivx6uu58t9vAomjdr1ymm1ZjNSJZjtWj3Vdntzcw6A819bUcQYtQAfmtNOa0u2Mvz2pWzGyQzU0/7upiKYs8jsFFJ6/LahjVJW932ITrvjLSSedK+EENvmH6sq94ZT/QKhA60GkDFXsT5nK7NMN6PQ5zGLYP/9NGP5EvZcKDEaIXmSxBiPXr19He3u7HmT8+bSOiVtrqoJv9tM19ZAWhCA4MK0LGZtCCQYvyOlAultSNSuYXQAGX/fSQTutFyjXRyVsKxQw5B9v2bF6mFaTdP+pSHl6bKvKAXrg9DNZjPQ5kYBEpwYk7ZFWgUm5vhF5TNzIIu2lCbYnMWjn7EhXqqqy9VMKpuKtJlTJ6orYSJ1S74gvD7pjswmWaq3o96dMZfbpHLc5h14KxxnY+ZXohRZrMHL+/HkUi0U9yHgsdJ+OII0hLRL+B6eSv/MtxtCGyas9Jl1TS18Tz/0HGJZ+H056RVIx7rdrdKdRpyPnUG8LcnOPMJbw0iVi5/V8fa3qo945njurobSN8NMyywVkpXy2X0o9TDlX/MredGatP1irm5OWmfnlGHJvDGKwW+0/8tVXXbFWucv3K8vPshjbod+Hr1vt640cxn5pj1KnHMxoRV5aRpVMgiA/ffG2VMlBWib/cTaUItkvQ7/vpIa8MlRStkyWboVy0ik6pVOe2WfW7wei0zYefQ7dPjqmM+vz9JspRPTsNXyaJpS6kKHS71dU4vWbsNsZwXH1gWxIBds1B4y/ayq1oYsnkVms1HFUkW+IuGWZ2sT45V5MOoFA6qwKaqSzp11G90NxO3LqYKI0QNhxPV8HJi+3IW+PR5f/stuC0qy2v2rKd20N6D8VKl/NdEfUTd2Xpvx+Kku9fhxpfa7KBC9ehf9qhTTLeykU1DzTvK/usG2HTukHIp1Wu7zm/6E8xv+0XGdPr+/GsFnu12lMv1dr64F8pXYaGW/dVwtIqXWrSav5WV2mLhXUjmPJbwEwnXXzNq3U9aE6f99MVjx/qYFBpOXbNNW+CVPO25Omo68uwwgw4L27y1FlclJdIxj0/xZkXuajNHIfdplj/3Wycn8ZtU/TIddsRwdZdpZ3DlPedpqGkX1v+rn6mjIRPXtN29JGSi8G+crttScYvPwM0ikHQL4uOozpBmnSl2+NdGF2YOn5qmilv8yNZMVv5YRJq0UWyUrfbCIi2icNG4zI3TjVR75i6wUjY9eej/NX+Dev4h//5Iidqo7BSP0kfdVVyNhzZsqkv9Zc7hzKb4m8WkBm27TQ6HU/TGHaThMRHRS2jLxI2DLyDD0vLSPSujEc9O+o8lslQp/jT+wEqvzeCxHRPmIwQkRERLHi74wQERFRrBiMEBERUawYjBAREVGsGIwQERFRrBiMEBERUawYjBAREVGsGIwQERFRrBiMEBERUawa+EfPVjBy4RHkibTT0Ufp33+Apil5dH8blso+TG63vH1G7Pt+ymjwX08lIiKqpMFbRpqRTgSPy/fMzKtA5ABlzvVi+6Y3nMI41tBV79OCDzsJni4sYGLZThMREVXQ8GmaVKIZ2fkVOyXWUSg2I9PdbKcPWitGr55EpriGbCQoIiIiop01fDCS7D2O9OI6Zuw0ltcwC/XaCTvt0Xfq8/ppv3q44QYwQP7OQjCv7laOY0gm1Da+X7fTlbc3cyOy70gLQu3lkJSRXU4NI04gZPZRwMQVb/6D4PxICktNTzj7kXX1OmW2VXk/63r7Z248cM6rtx+1zrU15LCFsWtsHSEioupiDUZu376NRCKhBxnflc42DDqpmvxXT4Cetkj/DVVx3lpDykuvXG5TAcxqUEmqCrpr7gimbeplOrGGrkiwUl2rDkZyj38wk1W2N9TbAjjBk5Q3lziOQekHUnM5JBB4hHz/KXM851qQnYpU+otrKAzY7XRvYDgU2GyogO0VPW+pv1mtO49cr7cskL3rLRvZjzpv+ch+cotARuZJukpdh2Fd3g5MyjlGM8bZx4WIiHYQazBy6dIlrK6u6kHGd6cVgz3NtlViHbMLW0i93Gpm+SSV0ovJPju5/FTdtQd0H5PuVr8T7NBFVble7LBT9ZPtpfs7gu29JcGPDUD6WpFRwYAfPD3eQmbAdH6tup5LWn+KzRh83R5nX4cKBLYw+1XQMiOdajP2ePV2ik8w6wcRLcicNeumXj6ip9N22dQJJ72l9xMsi84kMt3h/QTlNQEZERFRvRo+TSOkQs0trCFvK0+vYnW5aYimu5vqrt0jfUxUpXrimJ3eDXcbZjw39zDYn05ZbKKgg4EOZKQ1QvdzWUFu0SvvTus5dDB1BMlqLQ6Jl4LWoU5nvB56PxsY9sqjhuFFpwWIiIhoH8QajFy/fh3t7e16kPFdk9YGdeef/fwJck4Lh2+5gOyipAxMKmL73eN2hoikWHZDB0ESFEkLgtle2ktt+EOQrki9bvu53F9H1i/vzuv5Oo+qYKpMkOIq/hikZZad8Xro/chXp93yqGEPrUZERERRsQYj58+fR7FY1IOM714H0t1bKuDYQqa3UkW55VfeM59Li0OgpB+HdO6suROr6Y+Sc9Mianu5uZXw9txOpLafy/DUJsbfCsq743oevb6TLrm/gjE3bSOctIw+Xq9fSj1sObN3vLSM6cx6xp8mIiLau0ORphE6oHD6PoTovg7QHTUl1ZDrPYmME5yg7zSW+jf9dITuRFrlR8y87ZjhIcYSJ7HtLl+yPWD8svvDbKafC6IBwo7reczXiVNeSmdqA5lzkRaU7iMoXDPbGV5sqXo8lUX2Iz/41n0S97w+JNXYgGlMlSH87RwiIqKwBv4FVqpE+scMQwVITKcQEVEDaNhgRO7UqZT06XCDkefhPP1f/rtO/I9n+FUbIiIqjy0jhxBbRoiIqJEwGCEiIqJYHZoOrERERNSYGIwQERFRrBiMEBERUawYjBAREVGsGIwQERFRrBiMEBERUawYjBAREVGsGIwQERFRrBiMEBERUawOwS+wrmPiykOMFe2kku4/VduTZRvJ/QdomgKmb5Z7ii+Qv7OArrktNdaCD7o38LH+Ofhj+tzM9hzC80FERIdGg7eMrGDEe4T/zV472Efe31ixyzw/JGBoulJA3k7vnxVkVSCSOSfHfxqv21eJiIgaQUMHIzM3HiGbaMNS6IFwHZg81wIsrmPGvvJiaEay04wNXVRBCR+SR0REDaKB0zTSKvIIONeLyT77UhX6SbaLdqLbeaKtTX9kujeQtfOjaZ5K68rrWUjgs4GcBEVXk0gtF3Dm2hpyegnFW17vZ8O85i2rRiuWS3HnZbpbdPlK0zTmPGTtlJQ98/ihfWpvaZqm8v4i6a5IWYiIiA5KrC0jt2/fRiKR0IOM12X5R+Sd1oBqJD0yXFQBgE7jnMJ48RHO3Fm3c8UG8idOmTTPuRbk5r7FxLKZs9O6OVWxZ2SeDi5UhX5rDSmdLlHD5TakF1fNtvpOY6m/ORSIVN22Cl6GF1tU8GHmJYs2kCnRgcmbJ5FRY5KmqdY3pNr+8ne+ddJdZt7IfT2LiIjoQMUajFy6dAmrq6t6kPG9krv+pgvBYCrTdcwubCEzYAIAoBWjAyrgWFhz+m60IONV4p1HkTZjSg3rdrc6LRVq/lWnpWb5adBCUqL6tmfmVfDhb9vM25sajsULnKLHQUREdIAat89I50uqUt1CwbZgCN1XQt/Zm5YC4wcUikB2yglUJF1SfOoEI5XUv24oILq76QQ2UdW2va7npU8cs8sqoSBpN6ofS+psD5b6gbFr3vwFv3WIiIjoIMUajFy/fh3t7e16kPH6dCDdrSrXuzt9O+UYkgmTwjCBijeU/4psWJ3rLheQXWzG+GW73LvH7Yxyqm27Vc/LPf7BLqtUbWWpxc7HIgGJ9/p09xbGbh3EN3+IiIjCYg1Gzp8/j2KxqAcZr9fQxZPIFNfQFfoar3TEDDp0SsphsKc5FLTo1ouavmK7m3WD1pqZz52OrCWqb3uoVzrGemkTNU/SNntSfX963DmPqRPSv0Van4iIiA5W46ZpNOm8qe7i8ShIPcjvjsB00vT6PMgd/3RCBS12Gd0x1HYi3Uld63YmkZHWGpsKyfVKuigITlKvH0dagqcLD/TXjqtuW3d4DdIm8q2dvaVpqu9v6KLptCqvy9A1dwTT/DYNERE9A4fgF1iJiIiokTVsMCJ373TwPvnvf4r/w/+23U4RERHtP7aMEBERUawavM8IERERNToGI0RERBQrBiNEREQUKwYjREREFCsGI0RERBQrBiNEREQUKwYjREREFCsGI0RERBQrBiNEREQUq0MQjKxgxD7czQzmIXS++w9KX3veLBdw5sKC/4Te/SZP5B25bye0Q3DOFP2k4dBx2CH0FOfnX/7OQtnjCF+z3ZKnWM/jzJ11O30wSt9jzxv3POz2nDybc0n0ImrsYERX4o+Q7z+F7Zu9eljq38RwA1SkugKyj+8/UCqwGMZJ/wnGjXzOyuo+6R+HHi63Ib346NlXjHsNKBPmSdP+cZxr0U9/PtjjMEHpfuxj6OJJYKpB30NVPLO/U6IXXEMHIzOfryGnKqN7Z1vtK/KY/FcwnthAtpHuXjqTuHezB6OddnrfqDu5u5sYf6vDTh+ic1aJOpeZbiA731itIyX6TqsgsRnZu41SEXYgo4La5/c91IrRq72h93399mMbRFROAwcjK8gtApneoKI1yn9gFJymcL+ZVd/NPsCIbe737hBDzebuXZF393tH0hjBttzlw0244XSIfwd6/wG65raA4hq6ZPvuXbUdH7nhlCGSdnDTEyM3qqRUltcwi+MY9IOcBj5ne6HL4G3Tbb3wmt0LwT796+FM26VFKDXkXxdV5msqyMMWxq4F2694TmqUevmIeo88rWH/SugYq5w3nYKT+XLsj5BVL7ktMPVeR5eUN7ewVvE4q52PisdlU4YTzrpS1tDfgHesFZY1qqRYIufO33/077TMNiqVW7+u/jaD97L7viOiqFiDkdu3byORSOhBxuuy/KP6cGhGsqbWhA1VKb/iN3/n5r51Phg2kD9hUhY6laE/gI5gWjeXn8I41AeR++EoFc7jVmdbDzFity13srm5FRsYmA97Px2im93tB5K969VN81eTSOnlXVuqkmg360XTDqp8w4stfvmSxQ07o1T+qyfIJV4Ktt9o50wde947Z7VSFUs2FHCZQCF1Tsom+z+iAoZw8Jabe4q0LvtJZKTiuQVM2v2n1XTWqaiHi146RS2rroupmDowKcuqczt+2bZwhc5JL6YT0XNSg86japubKNjjD+9fneeit3913m45x6jPW5kAVZWpaQq6TJN9EoCqY1AvZ9R6NV/HhaNm/2ofkOvoV/aK2mam+ASz5a5XlfNR+bx6gveibi1SwVOu125HWsFCrUcb6r1m/3bcv7mKSs9denG1pr/THcu9uInkZa+c6tzdqj8gJXpRxBqMXLp0Caurq3qQ8YPTgox3168/4F3NGHw9aBGYmVeVe3crhvSU+sAeaFEfKuvOB7uqcLy0h95WsL6+k/VIq0TR2XZfB8YTW5j9yv2QrcTdhxNMKGXLV0H+8RbSJ47ZqXrFdc7c/UrKZYdzpioA/85UBhV4QAUzfh+Z++vIqsok403r67CBnFOJpvs7bNmPIZlQ0z1t5pyHzv06ZhfU+fTm6bSECqQqtATIOQm2Cwy9JZWce07qZfafGfAqRXOe3f37lbJO+532960tfGsDkcjrjp2vowpcvP1XTIdt+cGTK7xt6WOiKumL8p6o5bwG7wnzfmlB2l7P1AkVLIQ477Wa/ubUcV61wZhYfoqcHa2uhnJ3t/up19JyEpGrcdM0uqIo/8G3e+soFFVltOsK3KE/1I7U2ApRqz2WryHO2QaGneBieBHIPf7BLlCG04FV38W6QZSS/37TNLP723yIMVXe/Pe1BIWuH/Rxpl4Otl2ZOSfSAuQGSTmnlaMmofeQ2b+0CvjbnFIVvE7jSIVqWzK8eZE0SE6uUdV+QbVcx3CrWmkFa4K5UtW2Xc95rYX7N9daoTxhoVTL3c1I4F3Jfpeb6MUWazBy/fp1tLe360HG69OBdNk7M/vhUm+TuGY+vKpWfrWKNLHvj72WrxHOmZeCcgZ9B72z1NkeTHerYMapiPWddPSbKmqovxOiqWhrC2LMOUk731gyQ32dlHVrQuKovfM2+5eUSnibXkuHucM3r5l004gTeKT7X8G9dyW14qbbXLVcx3AgKy1vYaaCLlVt2/Wc11q4f3MmCKpKp/UkvWbP3bvH7Yyd7He5iV5ssQYj58+fR7FY1IOM18s0fUfytPelT4XTVFunoV63aXodE3fDzcs162zDoNtEfH9F3ZGH0xu7UbZ8Fcida7QCeP7PmXv3bjqzhvsPVCdfMQ1VxLofQ9Dvw+usGOrrUJNWDPa4zfAryM65zfRhck6CvjCq0tKdKuv46qu+Jk5axO7f7R+hA0gdeJnzFByTqShL7to7k5jsR8W+C7VcRz+QLemb4ynfJym8bXs+dNnrO687283fXBBk6W+bmdEd7He5iV5sjZumETo3fhIptzlc58X38DVZ3WlNfndDtvcQY1B31TXemYfJnapTtqkNdVcblCv1+nHdObKrngpKqPLpu39dvm+BHvUhX4HZh3RadTTSObvwCNnI15B3ZnP3ahumcjadS/NeeiPap6QOuuVFOl6WK5sNPseu2aAgdE7m0TUHdfddub9GOJWkhqlNfbfuljO8f0lhtWBad6yMHKNcg4Tz2zKO1Nl2J1izLWVqPR3w7Xgdm5HBqtlHufOo++e4395ylJyPI7bsO5zXurUg9bj831xZXt8Xe+5yvdKpNwhOqv2d7m+5iV5sTduKHadGpO6gm+4erfCtHHV3e0UFLO/uIdAgEtKidO0JBr1vC5UhLTXZE6fiq5Dlb2GHTrpE9Hxq2GBE7mJeNJLTlubtLvnqov0mwsQVcxcs09FzIsvrD+j51rLziWolX3n1ghFp/YmSfiojF9aRVoGAtH48a/573QYjcZShVluf/C7+4T9oslNEJNgy0nCkf4D5sSqt4m+VBOSOVX6XYTepCSJth5aR5+I9xpYRoobFYISIiIhi1dgdWImIiKjhMRghIiKiWDEYISIiolgxGCEiIqJYMRghIiKiWDEYISIiolgxGCEiIqJYMRghIiKiWDVwMBJ9Uqmn0uu1kJ9Xr+8psZ7dP4I/JvJrlTU+pG/fjq2OfT4zz6BMDffeICJ6xtgyslv6UfQLmLBP9yQiIqLdYTCyT4Yu9tqH1xGF8b1BRFTd4Q9GbDP8xJ0F/dRaGUIpHN3CYV5vurKCgn3Zo5vYvfl+S8gKRq6tIYctjF0zr7lN8Wb8gU4XhdezQvtUy1VKDXmtL3fkGMzyspw8udeddoXKG0kNuPNG3IealrTyVE91VdtHVMV9amY//nx/f166rBDMv1JA3s7V3HMYKrtdV53/YH44DbO7Mtn1ar2uzjyzXnCe3OsXPi5Tdn8eUztE9IKINRi5ffs2EomEHmT84GxgTB67f1PdoZ5rQXbKqyjUh/+tNaD/lJk3AGSLegVDBTLDxTYsyTw1THer4ONzqSA6MHm5DWk0Y7zCU0yxuInkZWe9W16ls8M+S6h1H7f6Zc/NPcQIXtHTS/3NanrFr2ilkgvKexKZxUdBsCLHstiCaT3vFJLFDfN6ncL7OIXxorOPqKr7lIr3EfLeeVDnM+9fFyM398SeQ7UfrKHLr5xNMJg6J/PUcO6ICgrDAUduEch4ZUxsYNhbd49lqnxddy6TpvbfNXfE7l9tIxEcV/7OtxhLnDTr23O7u75PRESNJdZg5NKlS1hdXdWDjB8cFTS8ZZvJ+zpU5bSF2a9UBbq8htliMwZfb3XmmVGt7zS2/cfzr6NQNWiI6G73g5TUiWYzInbaZwmn7J1HdQDkrZt6+Yj+11jH7MIW0j1ttrwdyEiwsrCmK8uZeVXpdrfaR6u3YnSgRY/Vx+wjM+CdE7Mdbx9RVfepz0MLMmfteehMIqMqd31dPP45tOsurpvK/f46sok2ZLzH1etzuIGcU3Gn+zv8/Sad87t/ZYpcVykTWpD2y6TeO2UeZS/7D8oGDL2lglrvuMTiqg1+VNmuxvxIfiKiZ6SB0zTHdCWT/77CXXnIEST91gunclp+ilyleSLU7P4tZu3Le1Kyz/3ygw6WUi/bijTEBFLpE8fstKIDm3qZfWSnnFTClKrci0/LBCM77FOfhw0M++d3HsOLQO7xD3aByuvmv99U+1xDl7/uQ4ypfe38Xth7mSrRZUoctUFaJWb/0rrlbb9Jp/s2UVABSOpsD5b6gbFr3v4jrTJERIdUrMHI9evX0d7ergcZ3xfLP6qKsTlS2ZsPe8Np4dAVUYV5ysznqqLo9prNe5Cp2oJRo5J97pdqwZkJskKVqq5462X2kfFSEf5Q2gKw4z71efDSJc7gdPSstK5uEUoE6TNvuOe1aFS09zJVostUNihzmf2nvTSQPwSpPglIvNfDaSAiosMr1mDk/PnzKBaLepDx+rRisEf6THwbunvUAUTiOAZDwYjT1H5/Rd1F21RHZxsGE14/EEU305tRX1GCG2W5gKy6S94zu89weczo3tjz4adMVpCdC9I2Q72S5vBSADZd4el8SS3jlklSDuWYfWTvBhWk7pwZ7VxqVd+nnIcNZP3+JqbjaKj/iZ++WMfEXSe90teKTHENWS8tY1uwaulfsecyVSJlgpMq0mUqbdmQ/Uf7+XgdbKMdXXUaKCHXhojocGvgNE25Zu1507nS7+fhaUHqsW0an9pQd/benajk5U1HT9Nk/hSpbr2CpvP5XjrgFnQfDD848QIZte/6Ohmqfb7bBnhN9fNHd+gzUjs5H7pDpGz3wiNku08GrQV9p0PnSvdvMHMU27+khjKF9yFpjBZMl5xvq+o+zblP+SmLSHmVtLoWWT3vIcagrqvfQmE6EOe9dNE10yG4pv4VeyxTZaVlSvnvM4fe/6afCuqaA8Yvm5aloYum06rZt8w7gml+JZiIXgBN24odP5zuP1ABCDBdNpXwPJBvcDxEYYCdFQPmnMz2nKoxECAiokbWsMGI3DnuRPLubjAid6Nx0uXRTf+rSHpfCdbl29RfEZa7dZLzdCoUjNRyrQ+zP/lvO/B/evOknSIiOnzYMhID6SfQNbdlp0yHULaKuNgyQkT0Ijn8wQgRERE91xq6AysRERE1PgYjREREFCsGI0RERBQrBiNEREQUKwYjREREFCsGI0RERBQrBiNEREQUKwYjREREFKsGDkbME1W9h4qFhgpPkTW/7Ok9hdUdj6jwxNV9J78Oa5/YGhqvWZVjOEi7KisREVF5Dd8yIj+lLs98CQ2VniJbRfTx7c8r/cj5isEWERFR43mB0zTyuPje8s8+6Uzi3s0yj38/SH2nVSBV7/NzqhzDQdpVWYmIiMo7/MGITrl46ZsVFOzLbopDWhuGF9VLi49M64ibprHjIzcWzDZkCLWgmO2YeXa5Ki0XugXGbmfEfRhtNPXhltsri1pGP2CvuIYuvY/SNI27fbecpuXngZPaiqShQvuTZcPrnlHr6vmy31rK6tHLVphHRESkxBqM3L59G4lEQg8yvhvZKa+iC4aR+3amVNa31oD+UyZ9M6CWL9pZjtTZHkx3q5Huk9i+2GFeDNlCFu1mG5fbkFZBi7eP/J1vMYY2LOkUUbsKaIKn8ZZQFfPwYgum9bKnkCxu2BlRKxi5toaUl4I6dwRj11Tl33caS/3NQELtr0wqSgdVRa8sJ5FR5Qz1J1ncRPKy2eZ09xbGbnlBkzlP/v70Ma6GAoecCtYyMq9kvxXK6s2b2sS43aee5++TiIjIiDUYuXTpElZXV/Ug47tRrs+I/zj+5TXMFpsx+LpNY/R1YDxhRuvTjPG3bJDS+ZJTGa9jdmEL6Z42+1oHMhIsVDAzr4KP7lab3mjF6ECLHitxf10FPy1Ie8dRU1qkfFlyC2tB5d/d7qeeUifccpp0T3DeniJnR31+uSOkrCo4yvhllXO8gZwfEKqg53PbyiLHsYv+PEREdLgd7jSNrlSPIOn3/WhFclfBSCU/oFBUFfvLtfTZWNfLpk8cs9NK51Gk7agr//0mkDhaZ6VdT1lKhdI7dzfLlqscXVZJG/ktUw8xpsqR/15aZDowaVto/G03QCdhIiJ6tmINRq5fv4729nY9yPi+05X9Jgp+usEEBPvnmA5uTMW7ExMI5R7/YKeVci0QSurlI6qCf1pnOqOeskQsF5BdbA7SKe8etzN2pssqaaNI61TQqVYCEvt6JMVFREQkYg1Gzp8/j2KxqAcZ33edbRhMOGkCnbYxo/ujFYM9bipkBVnpYFrBUG8L4PTF0GmbcvpakYGT6rCdaKt3/ixfliBts5MtP2ib+XytbJBUlpS1uIZsqKy230603DrF1ey0VBERER2CNE25DqzBNz2kL4STJrj2FCnpqFqGCRTUcnX+hkfq7CsYh5emWEeySp8R6TOx1A+MXTPl1P1C7KywDkxebkPeOzbdQdR81Tj1+nGkdVrE+TaLpTviJryyPEK2+2RtX/vtTCKjzot3LnO96pw5wUl1pWWVDsO6/4l8RVp3aLXzVJny/a88269MExHRc69pW7HjtA/kGy1dj9srfCuHiIiIoho2GJE77bhJPwjp+Jk9ccq2QMhP1Mvdv5l+Hsr4PPov/4sjWP53r9opIiJ60bFlZK+kX8Q1p49Fxd8qISIionIYjBAREVGsDvfvjBAREdFzj8EIERERxYrBCBEREcWKwQgRERHFisEIERERxYrBCBEREcWKwQgRERHFisEIERERxYrBCBEREcWqgYORGYw0NaGp3JCeqPDk3Twm0k0487HMdcefvfzHZ2oscxmLEzjTdAYTi3Y6JN7jIiIiqlfDt4xkZrYhv2gfGnKjSNn5tZp5XwUE70cfyn8wZF9dH6Yw7ZR5+vQYuppGVIhFRET0YnmB0zQpjOa2ce+DesOWPfpsBMOfpDH+zSSG7Eti6JfTyCCL3Gf2hWq6R3Fv+x5Gu+00ERFRAzv8wYhOaXipkCwK9mU3nSEpk+FP1EufDDutI+E00IgTJEjLxpn3R8x2dXrFbMtPuVRpYZn5dRZ4L1MmkBjC5PY2Jt82U9GWGp3W8VI50TRNxWM09LbKlq32chMRER2UWIOR27dvI5FI6EHGdyM75FSmdggCB1XZ/mIM+GjJpEMuquW/tLMcqQ/uYfo9NfLeNLZ/Ke0VUkkPI++tN5NR+wn30cip4CUj83KjwMcjGDut1pXp7SWMPxgOBS+BPAoPgHRyP1tjqh+jDrQejGPJKZvXnyRfc7mJiIgOTqzByKVLl7C6uqoHGd+Ncn1GvNYFLM5i9ss0Bgds5f92BuNvmNGqyq6Xw+xdp1Poe+lQmgWfZG2wYtI/fhl28tlIOJiqt3Wi6jHmVZlzyFz0+tCosl3MIHd3Vs2xdltuIiKifXK40zR/W0BOVbJJPyWixk/b0WpK1qtOWlaWPgLGXvWCikrfdDH7zxWcoObtST+I0q0z9ap6jHkUvoy0Hg1lgS8LOhipvdxEREQHJ9Zg5Pr162hvb9eDjO+7304iLRWyX8GaNMmOStbbmVTsQVCRw9gvyn9Vd+j3M05rxD6oeowqMHmjXOtR0Hm21nITEREdlFiDkfPnz6NYLOpBxvdd9yAG31AV7C9t6kOnNMxoVXY9Py3zWRZjbiokItrZNJVMA6eTKhQo4+1JU+m/Gv4ar9+J1tLb+CRnlzHplrKqHmNKlTmN7I0gwNBltR1h6yo3ERHRQVF3xA1qejujii+HUDpk1FyPu1xmO/MettMfLanXl7bH3/DGlZmMWeaNcTVHhLefmdEvatNqG3gv2IO3LW/Z8P4r8PbnD+nt8W/sPM3dv5r3kVreK9s349vp0PKVjtHQ5XXmB2XbRbmJiIj2WZP8T1VERERERLE43B1YiYiI6LnHYISIiIhixWCEiIiIYsVghIiIiGLFYISIiIhixWCEiIiIYsVghIiIiGLFYISIiIhixWCEiIiIYsVghIiIiGLFYISIiIhixWDkGcjfWUDThQVMLNsXiIiIyMdg5MCtY3YByHQDs1+t29c8Kxi5MI+R+3aSiIjoBcRg5KDdX8EYjiPTewS5uRXM2JeJiIjIYDBSxerqKiYmJvQg47sxM7+BdE8bUn2tyGADOb8VZB0TVx4hq8ayU0HriEnpzJvhSgF58zKwXMAZSfXceeDPP3NnPbS8TBMRETUaBiMVSPDx2muvoVAo6EHG6w9IVpBbbMbg661qvAOZ/mZk51fMLLRi9OpJFaAAmXO9mOxTI/cfoGvuCKZv9mL75imMYw1dN7zlxRbGHreqeWr+uRbk5h5iBK/o6SW1bba8EBFRI2IwUsGnn36KN998E5OTk3qQcXmtLvfXke1ux2inmUy9fhzpxfWKAYO0oqC7FUN6SgUrAy1AaPlmjL/VYUY7jyKtpk2go7b98hH9LxERUaNhMHJg1jFxVwUXi4/8NErTtTXksIFs2XTKOgpFIH3imJ0mIiJ6MTAYqeCdd97BF198gZGRET3IuLxWs+U1zBZbbMolGHQ6ZWEt6Avia0UyAeQe/2CniYiIXgwMRipob2/H119/jWQyqQcZl9dqlf/qCXJ+yiWgUzXFJ5gt85sjQ71uWsa2rJTZBhER0WHCYKQKCT5GR0f1UE8gIh1Xs3NbyPTa/h2uzjYMJrYw9rl0TO1Autt8m0Z/E6bvNJb6NzGs0zoPMYY2LF0ssw0iIqJDpGlbseNEREREzxyDkQMiHVbjUvg3r+If/4TfriEiosbAYISIiIhixT4jREREFCsGI0RERBQrBiNEREQUKwYjREREFCsGI0RERBQrBiNEREQUKwYjREREFCsGI0RERBQrBiNEREQUK/4C64FZwciFR8jaqZBEG5auJpGyk+XM3JjHME5i+2JHaJyIiOiwYcvIAcuc68X2zciwQyBCRET0ImEw0gCGLqoAhq0iRER0SDEYqWJ1dRUTExN6kPGDIemcef2UXxlG7tuXHZKmabqx4owXMHHFW+cBZvQcQ8/3tnelgLx9XeTvLFScR0REFBcGIxVI8PHaa6+hUCjoQcZ3E5Bkp5zgwA5BwLGugopHyPefMumby23ITy1gYtnOrmRxDYUBk/KZ7t7AsBdY3H+A4WIblmw6aDqxhpE763oVmdc1dwTTzrwuG+AQERHFicFIBZ9++inefPNNTE5O6kHG5bV6leszMtlnZy6vYbbYjMHXW810ZxL3bvZgtNNMVpRoQ8ZuY+itNqSLTzDrBTDFNWRtsCPpnXtnzbZn5jeQ7u/AkJ6y6y2uh1pViIiI4sBgJE7LT5HDESR3Cj6iEi8FHWA7nfG+09g+1xJqjTGtMOsoFIHc3MOghebamtr3Jgo7tcIQEREdMAYjFbzzzjv44osvMDIyogcZl9f2VedRpHcTEBR/DPp7LDvjQgIS2wKz1N+sAhPpU9KKZAJIe+kgf6ihFYaIiOiAMRipoL29HV9//TWSyaQeZFxe21edbRhMbGH2K9uvw3ZmLdeJNcRJy8x8voZc4jgGVVChO6g6HVNTLx8BEkd1y8lQbwtycyt+WsZ0Zg13fiUiIooDf/TswFT50TO0YPrmadt/I7yctF5IP49KP3pmxluQWdyw67jbMt+mGV60E2jG+OWg9UMCkK65LTMRmUdERBQXBiMNxg1MiIiIDgMGIwdEOonuN+nn4QYj+7GPf/gPmrD1ye/aKSIiomePwUiDYcsIEREdNgxGiIiIKFb8Ng0RERHFisEIERERxYrBCBEREcWKwQgRERHFisEIERERxYrBCBEREcWKwQgRERHFisEIERERxYrBCBEREcWKv8B6YKo8tTfRhqWrSf1ofyIiohcdg5EDY4IRnOvFZJ99iYiIiEowTUNERESxYstIFaurq/j000/1+DvvvIP29nY9XpsaWkaWCzhz7QkG+49gbG5Dv5TuP4VJfIuuuS1/+t7ZVj1ull9DzkwB3eGn9+bvLPjruakg/aTfRfPyTimiXW0jVK5mjF/uwWinnqi4Pdx/gKYpYLx/Ux27mZ+JnKvQPiPHSkREhwdbRiqQQOS1115DoVDQg4zLa/XKTs2j6UJ4GLlvZ2pbGHvciu2bvdg+14Lc3EOM4BU9vdTfrKZXMKOXW8fErTWkVIWtl73chvTiKiaW9UxduXfNHcG0zFPDdGINXTdW9OvDRRUEOK+P3Fm3K0Xsahsq6FKBiF+ucyqwuvbAlDm0vVMYh92eb0Mde7tdr0WdqwX/eCSICfap1i0+wplK5SYioobGYKQCaRF58803MTk5qQcZ91pJ6iF3+7qydYZwS0kzxt+yd/ydR5FW04Ovm5aQ1MtH9L9GK0avOusuPw1aSJSZ+Q2guxVDdnrootqX15JQXEPWBkDyut/SErGrbdxfRxYtSHvl6jutjvG03kZ4e6r8Ay3A4roNroRz7H0dGE9sYfYrCTjWMbuwhcyA1/pi1s0trCGvp4mI6DBhMNJAJG3ht7Dc3VSBi2cdhSKQPnHMTjskONCtDpVaZjy720b++00gcbRM2qfK9nxHkLTpHAk4kgk7ih/0uqFWpSkV2BSfMhghIjqEGIxUIH1EvvjiC4yMjOhBxuW12CwXkF2U/hi2heXd43aGMBV57vEPdjpCt1aY9ST1k52yaZSQ3W1Dt96UDRJ22J62iYKXZrLBi3FMr1vaqmRaXIiI6HBhMFKBdFb9+uuvkUwm9SDj9XVgPQhbfuU987nTkVUZ6g2nQKTPRdOVAv7C/usFCzp4KNuSsctt9LUigw3kvNYW6cx6wfT9CG9vHRN3w2kgOR6TllHur2Cs6KWoWjHYowKeu8E+dauQUwYiIjo8+G2aA1PlR8/Qgmm5y/e+TeN9+yQ6fd9840Qvqybdb5dkzp0EpsLf1gl9c8XbhxoLfSsl8m2XqF1tI/RtmvC3YkLbK/Ntmkz3BrL+MVX5No1TFiIiOlwYjFA8IoEWERG9uBiMHBDpdEnlSf8PNxgZruNcvfVP/1f47L3fslNERHQYMBiheLBlhIiILAYjREREFCt+m4aIiIhixWCEiIiIYsVghIiIiGLFYISIiIhixWCEiIiIYsVghIiIiGLFYISIiIhixWCEiIiIYsUfPTtw0Qfm1frAt92uR0RE1FjYMnKQ9OP0HyHff0o/j0UP56CfxTLiPXJf0Y/Hv7Fip5Qy6y31b6r1HviP999fEviEy0RERPSsMBg5MOuYuLWGXPdJ3Dvbal9T+k6rwKIZ2bsF5O1LUTOfl66XOvsKxhMbyN5Zt68QEREdDgxGqlhdXcXExIQeZLwuy2uYLTZj/K0O+0Ig9fpxpItPMLsM5O8sYHhRvbj4yLaOrCCnpjO90fVaMXq1NwhQ5EFzVx5g5Mo8mi4sYEJtS+hWlgt2cFtblNA8fx0VNF0x6aDslNM6oltnost6r6v92m2xNYWIiPaKwUgFEny89tprKBQKepDxugOSSjpfQgpbKKgKPnW2B9Pd6rXuk9i+qAKQ5R+RRzOSnWbRqoobwICkcXowqpbXgU2xDUs6tXMK48VHOOO1pKjgJZjXq/a5hbHPJViRIOckMmosc64Xk32y8ApGrq0hpaZNiggYu+amiDaQP2FSSGZ5IiKi3WMwUsGnn36KN998E5OTk3qQcXnt+dKCtB8MrGN2YQuZgaQKdIQKMgZakFtYM+mgvtPYvurNW0ehqEfKu7+OrLPt1Nl2FaxsIOe3gjRj8HUn9URERLQHDEbiUK31w2k1qc8POsCQVIufipnaAIpPTTASSrt8i1m9Tnn57zeBxFEbuBARER0sBiMVvPPOO/jiiy8wMjKiBxmX12rW2YbBhJcKMWZumL4X+a+eIJc4jsGyqZgOpLtVUDEf7u8hSr51E3IMyYRJtXjfwDGD+Tqw1ynWvNaDjFq2ktTLR4IghoiI6IAxGKmgvb0dX3/9NZLJpB5kXF6rXStG321DejHotzH01nHMXptH15ybTik19FZ4PU36fCyW7xBrtGKwJ/wtHR28XHG+tVOUFhlluYCsdJqtpK81lJbJ31kNpW2IiIj2E3/07MBFf7ws4HcYlW/GSEol0YYlv1/HDj96ptdByQ+hSQCiv52jOetImubaGnIyrvYz3fMEwwvH/f1566X7T5lv7LjLQwVBl00nWfP6Ewx600RERHvEYCQ265i5Dwz1sSMoERG92BiMHBDpKPoi+Fd/eAL/9u2X7RQREVH9GIwQERFRrNiBlYiIiGLFYISIiIhixWCEiIiIYsVghIiIiGLFYISIiIhixWCEiIiIYsVghIiIiGLFYISIiIhixWCEiIiIYsVg5ECtY+LKvP5peG8YsU/C1eShcxcWMLGsxuXBdxceYMbMqUg/iffGip0K0/OcfQWD3UcJUz7v6cDVtk1ERHRQGIwcGKnoH2IscRLbN3vtcBKYigQk+63b3Z831P+E3fydBTRdKSBvp4mIiA4Kg5ED8wMKRSDT22GnRQcy/c3Izpdpfeg7rYIG+7j/mAxdVIHLRbe8REREB4/BSBWrq6uYmJjQg4zX5xiSCZQEHqmzPeUr/GiaRqdwdkiz2GW8NEtN3O1eWUHBviz8NI0qS9fcFlBcQxdbR4iI6IAxGKlAgo/XXnsNhUJBDzJeX0DSitF325BefGQDinqChhWMXFtD6pxNs5w7grFrkf4kElRce4LBy724d7bVvqg4+/MHvx/IOiZurQH9p8x2B1SwVLSzXH2nsdTfDCTasHQ1iZR9mYiI6CAwGKng008/xZtvvonJyUk9yLi8VpfOJO7ZfhtSuefmHurgYMc+I/fXkUUL0n12OprCKa7aQKRMX5ByfUa8lpjlNcwWmzH4ug1e+jownjCjREREcWEw8ozo9IwNSrJT1b81k/9+E0gcrdwiIa0ZiS2MfV7nN1+WnyKHI0j6AUyrTiURERHFicFIBe+88w6++OILjIyM6EHG5bWaSR+QMv0tUi8fsWOV6WWKTyv31ehux72rJ5FZfFTfN3M6jyKNTRT8/ifrupMtERFRnBiMVNDe3o6vv/4ayWRSDzIur9WsrxUZ6QAa+t2OdUzc3VDBRGv1b83IuthAzgs03N8j8XVg8lzLjq0sIZ1tGHRbVHTaxowSERHFhcFIFRJ8jI6O6qGuQERTwcLNUxgvuh1KH2K251QNX59V615uQ37Krqc7s5bpH6L7fGxg2A14ynVgVYNpQWnFqG1R0a9fe4pUt16rROr140hLMFXDD7ERERHtRdO2YseJiIiInjkGIwdEWh4Oi8K/eRX/+Cc793UhIiLaDQYjREREFCv2GSEiIqJYMRghIiKiWDEYISIiolgxGCEiIqJYMRghIiKiWDEYISIiolgxGCEiIqJYMRghIiKiWDEYISIiolgxGCEiIqJY8efgD9Q6Jq48xJjzmP7MuV5M9tmJqsy68pTfe2db7WuO+w/QNAVM3zyNIXfczt5XywWcubaGnJ0Ma8b45TJPFCYiIqoRW0YOjA1EEiexfbPXDieBKe9x/g2kM4l73jFcbkNaByDeMe0+EJm5MY+mGyt2ioiIXlQMRg7MDygUgUxvh50WHcj0NyM7v88VcN9pFRQcUKsIERHRAWMwUsXq6iomJib0IOP1OYZkAiWBR+psD7Yv2gBF0h8XFjCxbCaBFYxciLacrOnXmmS4UkDevhoiaZoLDzDjjE/cWTDr2O3pVghn2qfL4M1zy1Ifd/tBa4e0Dqlpp9x5Xa4H+FP17/CiemHxEVtHiIhecAxGKpDg47XXXkOhUNCDjNcXkLRi9N02pKWytZX0mTvrdl7tcnNPkNQpkVMYV4FJV00V9wZm8YpOoyxJS8zUPHK9Jq0y3a0CpLtecKCCn2trSJ2zKZdzRzB2zQY1dZAAY7jYhiWdtlHlLD6yx6rOwVVT7hGZVoHPyBwwfvk0fqGCMikLuk8GwRkREb2QGIxU8Omnn+LNN9/E5OSkHmRcXquL09dCgoLc3EMdlNTVZ6S73fbJUBX7QAuwuF5DsNCCjO30mnr5iJ5O206zqRPNZkTcX0c20YaM16G2rwPjiQ3k6urTso7ZhS1kBpJI6WlTztzCmg14TFAGOXYV+KD/FXZ2JSKiEAYjz4hOz9igJDtVe+tD+sQxO6Z0HkXaju6H/PebQHENXV565YL55k/++3pacEzfGGl98VqAmqY21HafBiklFZRlpBVEBT6T5b4ZRERELzQGIxW88847+OKLLzAyMqIHGZfXaiZ9N8r08TAtFbu0/LTC12t3R5dFBQgmvRIMZb9KXJHpGyNfWXa3EepQq87F8GKzCqRsuoaIiMjBYKSC9vZ2fP3110gmk3qQcXmtZn2tyEirQ6iPxzom7m4A3a2mou58CSlsYfYrW0FL2sSM+XJzK7YVJbLufrBlzHppGduZtb6vHrdisKfZ6YdiO7P6gdgKRqY2VLDSg3s6XfPtrjvJEhHR4cRgpAoJPkZHR/VQVyCidWDSdub00xcXzI+YBR02zVd9vb4kTfNHMZ6ws6x0/1Hk7LpjaMPSvnb2VGW83Ia8l2LRfTpO1fijbAFJQU0ngnTP8GILpq9KHxL5dtAjZLtPmm12JjHZD7+T7FCv9IFR56fSt4SIiOiFwF9gJSIiolgxGDkg0kJAtVud+K/wj/4X/9BOERHRi4TBCBEREcWKfUaIiIgoVgxGiIiIKFYMRoiIiChWDEaIiIgoVgxGiIiIKFYMRoiIiChWDEaIiIgoVgxGiIiIKFYMRoiIiChWDEYOiH5y7QXzQLgweXjcPM7Io/TvP6iwzD7RT+FdqPKUXFMW8xA/GaotWy+zbfME4HVMXLHHvEvmfAZDfU8WDsvfWeDD+YiIniMMRg6IfiItNlGIVu7315FFMwZfb7UvxMU8UTfffwrbN3vNcPk4Zq85AcmOwcyzYAKZ4WIblvxymicN7yUgISKi5weDkYPS14oMtjD7Vbg1YGZ+A+hux2inmug7rSrX0xgys56t5R+RjwZFnUlkukvLvHetGL3ai3tndxGA3V/BWLEF01eTSNmXpJyT/c3I3mXrBhHRYcBgpIrV1VVMTEzoQcbr04F0N5BbWHMqzBXkFoFMb4eZdNM0uhWiXBqiNMWhUxY3VuyUorcTrFtTOqTzJVW5lwYeQxe9oGEFI9fWkFPLjOnWkjrLccPdboV1/WWdbUSY4K21JGBLne3BthugRFJO4VYTs38zbwHZx/ZlT+jcx90SRET04mEwUoEEH6+99hoKhYIeZLzegESnaopPMOtVbjpF04J0n532qcry1hpS59w0RK19SVQlPLWJ8ct23XMtyM2t1LBuByb1sg9tJRytwNV8VY40mtW2e0xLTlVSjg1k7DEsndhUx1qe9NkI0i4nkVl8VCGAWkehCKRPHLPTlUiw4aSc1HFlp4KgIn/nW4zB2187sLhlZmgm6PLP/bkjKvg6wH48RERUgsFIBZ9++inefPNNTE5O6kHG5bW62FSN12+k0l2+x087dCZxr+b0jQoabgbBQv77TTNSC50mMpXwdLfa/9QeWgYigVbqbLs69nLWMbuwhXRPm23V6ECmvznSglSn5TXMFp2UU18HxhNeq0/5/fmk3Ik2ZLwAUa+7gRz7oxARPTMMRg6USdVk5yUNEUnRhEifilMYxxq6vHRBzd/2cFMQ8xhZsC/XSdIzJijZwtit+vti6CAocdRJmxxDMmFHQ37QrR2pl2vpP9Kqt5F7/IOdrmD5KXI4gmTZ1pvS/aVePmLHbLmLznm/8BBjavn89+VaaoiI6CAwGKngnXfewRdffIGRkRE9yLi8Vi+dqllcx0zFFI3HdPI0LRUnkVEV5EgtfT+8Dp62hePeQFDRVqO/3lqmr0bqhNNqUAddwRefOkGMCQJKmSCl1sreP3922uf2t+k8inS5by5ppftzW490uRPON3W887ibzrZERLQrDEYqaG9vx9dff41kMqkHGZfX6qZTNRsYnqqWojGdL4M+G6YCNXfztnXAT2OYFpYwryJex8RdtZ8apF4/jnRJX40VZOfclIZrh3LY48x629PBVzmtGOxx0zLV9qnYtMlwqKXI9E9J93eY89nZhkE/LaPoAM1L29j9+f1oTNrGJ+VWgV/WO/e2Myu/NkxE9Ow0bSt2nA6IfHNkWFI053ox6baMyN39FDAt/UOkEtTfXrG6T2L7ok3phOa1YLx/E2OP2+18SdOY1AKks+m545ideoJB6XQKWc+Ol01hSBD0KBQ0hMsYbFu/3lmtHIpbzkSLDk4wINsz25ntOeW3OHjnRHOPtYLQ8krJuYwcS3S+u36muwXZ4lEsed/GiZz7dH9QTiIiOngMRoiIiChWDEYOiHSGpMb2t1e7cSpx1E4REdFBYTBCREREsWIHViIiIooVgxEiIiKKFYMRIiIiihWDESIiIooVgxEiIiKKFYMRIiIiihWDESIiIooVgxEiIiKKFYMRIiIiilUDByPRJ93GRD/ldQETZR9fT42p9veWPICv6caKnXo+5O8soCn0lGMioucbW0aI6sHgk4ho3zEY2avOJO7drPSIfiIiItrJoQ5GdHP1hXkzRJut7z8I5qnhzJ11O2MdE1fmMXLDzpcmeL3sA/VameXdO2U7PnLD2W+kCV8369t5Zh8PMGPn+fR23NdtmZy0gbud0D5sWf11S8oXHEc0DaHPl7OtaApCpv3jrnT+5PXQuZaUR5WWhErbqVDWitfUPU7NTbWY83dGne8z3rrR8+6W44b3XohS27y2hhy2MHbN3dePevtm/eixmnJ4266e+qmyrD4+b150H+b4vHnZx/Zlq+rfARHRcyDWYOT27dtIJBJ6kPF9pSqXrrkjmL7Zi201TCfW0OVXrOpDf2oT45fNvO1zLcjNrYQqp2zxKJZk3sUO+8oG8idOOct/W6GC3UIW7Wa5y21ILz4KKhVVpuHFFlumU0gWN+yMiM42DCY2kPPWW17DbLEF6T4zKZXLcLHNlO/mSWTUPoJgaifBcUza7XlSrx9X5V2352EFuWJzeHqxGYOvt+rxiuevrxWZ4hPMeufm/jqyieMYLNtytNN1iJQ1dE1PYRzuNd1ZbhHIeOuq8zscej9sIHPOlGPpxKa6huV0YFKuKZpVmZ3WsMUnwLtm3eluFajc8ip8CRIeId9v3zdq3fxUpcCs2rKqfCoISnnl64cKhoJgKn/nW4zBez+0q/Js2TlK1b8DIqLnQ6zByKVLl7C6uqoHGd9PM/MbSPd3YMhOD70lgYFXsapKxUmt5L/fNCOOdE8bUnbcaEHmrFTESudRVSFVoiqqt2wA0/lSaBtSJnS32jK1YnSgRY+VasVgTzOy86bSyH/1BDl/vXXMLmw55etApr8ZuYW1Gu94vYCiDF3eTRSkAlz+EflEOzLddjoUVFQ7fx1Iqwp59isTHOnrUHIuPTtdh3BZy54//5ruLHg/tCKZ0COGHJu6vl6wlzqrjtuM1qa73T+G1IlmMyJsEBm8b5LqfAbnJkQv6xyvm/4rWz4vWC3/fvBU/zsgIno+HNI0zToKRXUnPPcwaJ7Wzeu2YtV3ofZ1NYws6JUOmClT+sQxO12d20qRf7yFTK/XQvOD3k7q5QoBxZ4EgYQEQFBlTZ2AmVaBQlDhVT9/Q70tNjiSY64S/NR1Heo7f/XQQVDiqBMwHQsHK7u1/FS95zYwbI9PhuFF9b58/INdwKGXPYKkDWpcpeVzlb4fUi8fsWM7/R0QET0fYg1Grl+/jvb2dj3I+P4xd75pr8nbH7w7zRWMqTtWr+n63oD34X2QTJnKVkTl+KkaSY8Ed8VeRZn/vta0TH10IKHKmH8MHURIUITH6q5dBQp+ULHT+fNSNffVeqiUolHqug51nr866Mq7+NRpWTIV/J7pFrTg+PzBT/059LLlg4TS8rlK3w9BC9MOfwdERM+JWIOR8+fPo1gs6kHG95OuVJ3+B6YTn9tp0WkluVuh78Y+kzIFaYWd9mtTNVOPkA3dFZvXg7TMCrJzTjO9rtSC/iY6xWNGayPrL64iW7R36ZK6kcCiJKiodv5MC8vYlLoLT4RTVaVqvw5lz5+XttEpJicFolMbNZLgSZ2zrN8Jt451q7EBpb9d6ftxwemk69LLuikcs6zub2TL51/TO+r6+Gkb+37w3+smbePZ+e+AiCh+DZ+myU4FTeB68L4t0HcaS/2bfhN51xwwfvm0qbj6OjCuPvjHrsm8b4EB6ZT4DJquVZmmu71me7Xfnkp9RgydqlH/RvtcpM72mI6IejsqWOk+iXuhfgnBeRlRQURd/R9spZiDFwCpO29VycMtQw3nTwcOSpBeKqPe6xC6pg9Np02/lcH2nfFSEvNH1bbtrB2Zjqnw1r2ryl1pXXt+pMzVvxkjWjF69SRSfpokcq1CSpeVzqymk7EpX95e09B7WdHvB/999RCFhPO+qvZ3QET0nGjaVuw4PWvyddK7R7F0NVmh9UDujleRdL+50Sjkq6jXniJzkxUfERFV17DBiNzlNRLJ1UsTedfjdttnYB0TV9TdfeKknnaPR5bVnGBFWkEagVd291gb7Vq9CP7hP2jC1ie/a6eIiOLFlpFnSlo6HgX9ERJtFVtF5AfGhhcjv2fREGyQpTumslWEiIh2xmCEiIiIYnVIf2eEiIiIGgWDESIiIooVgxEiIiKKFYMRIiIiihWDESIiIooVgxEiIiKKFYMRIiIiihWDESIiIooVgxEiIiKK1SEIRuTnx80TSb2h7CPaK5Hnv1R8pLrzGPdnxhxPXcfQ0KqfY/lZ/KYbKyXj++/ZnXfzGP8FTESfTlz1vfgceN7LV48qx2KuT/gzRYZn+jmgy+fs33saOdEh1eDBiFRk9mFzN3vtYB/DfmCVVm0OtuJ8NvbtGOQJvuUq3xfSOmYXgEw3MPvVPgU+B3Z+4wjGnxPy3Cj/M0UN51qQnarjXOzlmkggMrWJ8cvB/pd6nqDLCUgO6vNFB2IMfCgGDR2MzNx4hKx8aOin4Ho6MKk+OLC4XtsdXN9p9cfOB7o9r4Yuqg/j0PU9KK0YvdqLe2db7fQBub+CMRxHpvcIcnMrjdXK8CL/rahjX+pvRvbuwVfU+e83VTB0HIPOAzJTZ9uRKT7BLAN6OqQaOBhZQW5R3WEOlHnqbehDs7T5PXRXEW2udZtHb5Teuep1/fnl70zk7mJYlQ2Lj5xlzF2mt27Nd1i2fBNO07Gs65bD35Z3N3YnOIZo2qFi+WU/Vx5gRKe8FvDhr8ocg3tuQtu25/jGA7V/b753TtVxX1tDDlsYu1b/nWLpHeCPTlrOuW762FX57fGZcxJN4UWus3O8E8sV3ifeum4Z9L6CeTVfS2VmfgPpnjak+lqRwQZyZdYtRK61L3T+vXNZen6l3P618O5yI2UOn9NIakKvI+fDPGHabxGw78XwOfe26V7bau8HZQ/nr+J7UG9zQV1/5zgixxj6m5m3L9Yh9fIRoPjUCUYqvb/KveervBcjzH6igYe6ybppnuBd8vmijz383o/+3ZS2eJT5PFLntmtuS+17zbbCVPib8LZb8jckL1b5nNvLdadDL9Zg5Pbt20gkEnqQ8bos/6j+WJqR3NfH66s/pKkNZM7ZptETm8Hj/hX9IVD0mm9PYbz4qKSyF6mzPZjuViPdJ+1dvflgz/ef0ts1Tb7uh/dONjCLV0yZ5O5MVQ65XlNG2U/4bk19AC4cNWW83AbMPfT/6MPlP4mM+jALlb+4AQzIvB589MfRY5Bz4zQdq2OI3tnr4FBvW52bxAaG9YeW+hBV5UirazV+2XyY7sniGgq6jHLsah+hD9gN5E+YczzZJ8f7rZPCM2XKVjjeaLkqX2t1LW+tIWXfI3KO81OVK5YwCaCbMfi6tL50ICPXcj5cYcoxjD1uN9sOvU+i5/8Ixm7JsZc/v/61uCrBemmZ04urwftPV0JHMC3z1DCdUJXRjR8welW9R9Rs+XuQ8xmmyqMqXG+bS/1QFW/4PJR/P+zt/FV/D26pv1d77vQxPgoqPHWMw4st9hhPISnXvl6dR9V53kTBnrfK76/Sa7Lje9GlbqamuyWQ8Sru8Pkp/XwR4fd+dZHPI30N1Pus07T+6BSVft/UIPQ3VGG7+nzt5brTiyDWYOTSpUtYXV3Vg4zvVehOdjeR9/119WHWgrT9Y9ZNo2ZUkVz/ltMS04rRAfVhuLDmVIYVLK9htuhVQkpfh/ow2qqjz0ALMjZ9oO+a3DKeUB8eEX4ZO5O6b4Kp8Ez59V25zLOVYbj8wXZLBXdmQjclR6T7O2xrVCuSCT2y/9QHZcaWcegt9YEfuoN0zrEiH9rBh/UPKBTtqK/S8e58rf0AUJ3je7WmLuT91d3un8PU68dVhRlNJ6oK7C1b5pL3iaqgPrfBi7T+VaswuludMpkUlF9JLT9Vd+0Baa1xl68pNVb2byXc0lPt/bCr87fje9A5d50vhc5N+BjN9dyrnd9fgXqWFfoa6MBFAkIVyMlnWijwjgq/96uKfh7paxCc1/o4f0N6u8Fnlfn8CX/O7e6604ugcdM0+sNmy79LEeE/4PqZXO1R50PsmPMhaj5ApFXCD3im1AdcqNm2Av3hf2SfW3EqCbcWBcGKKX/q5Ro/sErIXU9w7CML9uVnLeFUMpEKp0SoSX8V+ZoDpGrXWip2dWeLNXR586pWEh51/u6qbUjTureebsqP3iG77xO3EpeK2LRm+es7zfA7CQXqdzfVXbtnXR9r+sQxO12b0r+VWu32/IndvgfLHKNu5ahT9O+4nvfXrt+Lct3tZ1pxDSOVWlPqcVCfR3q7NnCyg6STco9/UDP3ct3pRRBrMHL9+nW0t7frQcbr04G03PXvY4ey0pywewdjAhMvhRMMNUT3kebdgxUO0PKPt+yYKX/++11+mEnHS3XX4zXl3xuQFpqY6VRdJabyT3tNxjdfwaCds7OdrrVpaTCv1VhJ2LtG7/x5gzSLV25dM5VowKuY1BBNQ1SzXEB2UVIGdt13j9sZwgQ8psKoXenfSj12cf7Ert+DZY4x0jpUC9264gdg9by/6lxWBVyl19W9Mdqjg/o80tstfY8HLUK7vO70Qog1GDl//jyKxaIeZLxeQxfNG7ordIcof8ym451hP4j8D3zT8bUs26nQv1PVTdGeVgz2hHvT67vNWqL7zjYMus3t+kO1jmbVOvn9EHQlpCrVXvkwMOV3z0N2zk3b1ML7ADMfrrFw+jrMfL6GXORbB1F+BaTPuRndWbVrvRL5uqupJHZqccp/9QS5UOrE0KmaUKrJff857xPbQdPv56FbherpMxUEqfq8mVFtqDf87bPSzo5lRDrg5u+shtI2le3u/AV29x40x+i8dySwqIfuc+KkQK163l+1LWvfe9E+ZXV+ZugWUf+amrSjL/p5VHJNPHV8dgq9Xbelz2zX9LXa63Wnw65x0zSauVOchtN0Lb87AtPx0MuRm74FXvPgOpLSSasstT11xymdPvW27qoPH/UH49Edx6Rzn92X7hBXIW9vPvxUufSHutwR2N8/kXV1J9nd5mh30qwqiVWzn2trgLob885DuPwqYOs+WfWrrKFjsP0XTKe6b4EB6aBX492V/fCTdUs/8IxQSkSGSpVht7qrv2WWqXb+5YNU9wvw0hrzrbrTX60tAJWvtXmP5P3ymt+58c6xrshL0icm8DNBYYR3bry+IKpCH8S3Ztvu+0Ry7NJp1e/UKB0FX7Hzdji/OncfnONcrwri3RY0/bXVTb95XXdmtceqWx/VeqUdtcPnoWsOGL9cSx+A3Zw/ay/vQX2M0snW7FcHTnZWWf7nhR1sx1m/381O76/QNanvvaj7l4SutewfmHb6dYQ/X0p5fXjMNVXnqkct74t8Hun3kvmcMMGxHLvpXFr7Z6co3W7wGVP9uhM1bSt2nBqd3D1fe4LB/fjWCu2SugO8AUzu1AGUKuD5I3oRNWwwItE1BSQP6wYjcldFz5a+BvcfYASn9R0f36P14fl7MX39f0zhf/NKfR2o6fBhy8hhwpYRIiJqQAxGiIiIKFYN3oGViIiIGh2DESIiIooVgxEiIiKKFYMRIiIiihWDESIiIooVgxEiIiKKFYMRIiIiihWDESIiIooVg5EDYx4FXvqAsUNOP1223HE/7+ejsa9XtSft6icO64eTuUPkqbAHTJfP3X+lh+ER0QuJwcihV+nx4PWr5dHy8qh8dLcA/mPH905XpgdQedVyPIdG90n97BdvME+wrT0g2cs1kPOsnwTs7F8/advf3v69R6MO6r1DRPuLwQjtI3lUPjD4VitSxTVkD6ByOTjy+PNe+7jzw08eUz/dvYWxzw++os4/3lLBUCuG7LTQj6ZfXNePqSci4rNpqlhdXcWnn36qx9955x20t7fr8dpIs/9DzPacMhXc/QdomgLG+zcxNqc+nJXMuV6k5+cxvKgn9bQ8rbTSsnqeJXd83nr6rtd75Lqse1ctjw1ki/8Q/23b/w//zzUzK7z9DfOiku63ZfTKnGgBFjeQ03Nb1B3taQy56yTasHQ1iZSZCuh9H9Xz8lI+OOXyz0cbUnMqUJGX3O3oh/yt2X0GZTV31eYc6ON860e13FOkutXxqeP3lgudDzRj3H1YYGjbdt5y9HjaMOteL6XSOdavq/OSUedIH0dkf6H1Kp0rzZyTsaKd9M61jNr3QMYepwiuk3DXbVbLQV3v42X3ZcrrXgtDn9sFZ53INfCOueQayHYqLFtO0DJijy0kfA709YS8j9S4fg/LuX0FuFXm2jjHFCqjPeco+95xHyQpLTKPAP0eMuUoqPd+Vl3X8scZeV+F/o4i84ioLmwZqUACkddeew2FQkEPMi6v7c0GZvGKbSZvRnZqHrle22wtlcldN2WwgbHH7aZZ+5z6gJwKmtTlg3e4qD5wdZP3SVUpPgr3dSiqD8gBmfdf4f/xb9V89VIQzKgP4KlN9cFp9ivbzs2thO5Qc1LJ622fwnhiA8PSzN13Wpe5WuU6M7+BtAQbarzSnW9u7gmSet9q21hDl25CVxXBrTWkVBl1mS63IT/1QK9r7uDVSKiy20D+xCm9rBdcBedDzqV7x6+OV1Um/rbPHcHYNbXtHY5nx3O8uGmPw+7vlr120bIk1jBSoR9K/s63GEuo49LLmnOdDS0bHKe5Tt867wG1Lrz9qCB50Va6dUi9fES9V57a91zpNUgvrur9lV6DysuWkzr7inkfef1FQqkxaZGKvkcV/z1cQwWvzrmbBpJzLu+r8u+d6rJFFUzLdvTyFd47esno35Ga570HiKhuDEYqkBaRN998E5OTk3qQca+VZPfU3bS9s9MVgZpO2w/f1AlVMYaoO6237AdoX4f6MN/C7FdSUa1jdmHLr/SBDmRUpZoL9dEItluqA5POB3z++00z4kj3d9g72FYkE3qkBisqiAmOD51tGFQVUC6aqulut/tWldCAtMAEAYsfjHUmca/sXbSnGYOvey0Eigostv2AYh0Fv6VBub+OrHs+ZNmq2xY1nGP/OMpcOydFNXSxcupHKsugkvwhXG7NPZ9HkTZjSvny7Y1JU/nBwPLToNWjRD3LCrO8H7io89O1YyfWau/hMAmC3TSQnPNag4+o4Jwq8t5RwWrGf+/I36H7nnaC3tB7kIjqxWDkuXUESf+O0A0KTKWVerl8BbczaY62d6jSaXDBvrxH+TurqtJ37n4vmKb3cGuP+rA/ccyOKX4FK5WVbSnx1q+nY6k0pfv7/Raz9mWhg63E0ToriT2cY6mUdEuWV54qHTOlmd8v9yryNQd+peUzwW19oudGUh9+ee5uOsFPqXqWDdGBpg1KFh/tQ6dVE3yG3lf7RJ8fL3DSg3lP57+XmwIJ6k2LmX8e2FGWaNcYjFQgfUS++OILjIyM6EHG5bVnZxMFv9nbvds/pgMT84G4C/dX1Aeq9E0wd6r3BuqvxEqZO3VpZtd3v96g74KfYLZC8334jtq5e5YPeVUJVEpvRM18voacNMXrdXuQcSr1cCqiVns8x7r1xRyLScd5TfsuFRTe3dD9QMyyr2DQztlZafnKtXBVZ64ZEi+ZYEQFdNlF6fdgr8G7x/VSZdWzrKQzyn2NuNPud89MoJ57/IOd3j/6vSNpPHstvSFo6ZKAxL6+b8EV0YuJwUgF0ln166+/RjKZ1IOM19eBda+8tIyiAwgvNdGKwR43ZSDfYHGb7GvhBTqmQtyz5TXMqgCnpFldp2qc41CC/il237p5XSostwXBVLZ1tUwUfzTnQ1eU+hWjr1V3hPSb1nUryk5fad39OZa+Jm6rjqnQKrfM+JWovsZmdGe2fM651IFFHXSfE+kc6qUCtS0/ANYBnhmtoNZlO5CWPjV+XwvDtKTVmoqxAYdzPaRfk2eoN5zui14Dnw6A3L8rSeFVIe8d91thtgVOv0+j7yO97WanNZOI6sFgpAoJPkZHR/XwbAMR0YLU44em+XdqA5lzQT8P3TFPOunp5uFHyHafrNgvwVQG0GkD3QHT9j8ZuybrfgsMqDu6UCtMZanXj9t8f7hiMS0T4a9uGtFKU/qjHEVOl/uh6YCpc/vqDlPdWeb91Iaalzjp90kwlc2jiqkb3VnWa06/BdN/wgtOotvWHRLNuax0PKK+cxwIr6cG6eT4brm+BK22z4xt5p9v1Z0ta73DN50zvbSY+RZIVW46QQ2mw6fTObQzab6RY89Trlc6lQYBR+ga7LBslPThWOrfdFJ4av/yLR6/707kPVpG6BpfWEfS7SPTJ52Rg+3rY7P9N8LvHdv3Z87+Xc0fVX8LZhPllb530H/KvC8l3aQ7tNp56j2S738lOJ9EVBd+tfd5pL8yiApfhSQiIjpcGIwcELlb2g3JP7vBiNztEVFj+C//iyNY/nev2ikiqhWDkecRW0aIiOgFwmCEiIiIYsUOrERERBQrBiNEREQUKwYjREREFCsGI0RERBQrBiNEREQUKwYjREREFCsGI0RERBQrBiNEREQUKwYjB2odE1e8B2mZ4Xl5xPjMjXC5zLDT02wDev0bK3bq2dNPZnXLXuEhemVVfXKvuWaVHtgWIr+U6z1kzx0nIqK6MBg5MFKpmafPyvNmzHASmHpGAUktj8rvdssmT1ZFyaPe924FIypY2M9jlkDIPHU2KLt5Ui6DASKiRsRg5MD8gEIRyPTKI/I95hHm2fn4WhSqSZ1tRwYbyNUQOMhj4bf14/+fsfsPMLzYjPHL4ef2DF2Ux9jXVnb9+Hf38fn7oe+0Cor4LCEiot1gMFLF6uoqJiYm9CDj9TmGZAIlgUfqbE9QiXutF3ekid+kGyQ94KYgQukCvbyTmnDSJNJacObGAzP/yhL++2tryGELY9dqT72UE0rnRPbnTZvxB7oFxCzr7VNahx4hq8aybotQ6Dic8unX1XbsPsu1pszMbwDd7WUCiQ5M3uzFZJ+Zcssn9Dn1UjnRViO3PFdWULAveyqdg5AyKRvvOGQIp31Ma5E3L3SckWv8TFrRiIhixmCkAgk+XnvtNRQKBT3IeH0BSStG321DevGRX7GU74egAobHrSbdcK4FubmHGMErNm3SrKZXbOpBVey31pA6Z1MTl2XbKlhyAo3cIpCReVe78H+X+ZAWhNpbAPJ3VlXg0IK0rdClAh8utmFJtnnzJDLqWCr2pVjcRPKyKdt0tzqmW1Lxq3NwVVosVLlUuU2goCpiFSj5x3HuSCQ1tIH8iVN6nhdYBNZ1a1P6xDE7vR/MeUW/2ef2gAqc1D484XNwCuPFKucgJDgOc12/DQVoeW9/6jrlp5zgLXKN81NMPRHR4cdgpIJPP/0Ub775JiYnJ/Ug4/JaXXQ6wFQsJrB4WOZuVwUMb9mWks6jOoAYfL1VT6ZePqL/NaRidyro5afI2VFfd2t9aQInUJKhaw5O+mMdswtbSPe0IaWnTYopt7BWvqOo01qROtFsRsq5v45sog0Z7zj6OjCecNMrwfHXRLdCBMdQseWikuU1zBadferymFHvHGQGkvYcqGswoAKLSucgpAWZs3ab+rpaen/uvCQyKnib/SoIcLJ3bQuOfv8w9UNEhx+DkWdEp2dsUJLd5d1uKF1wdzOo4HYr0oF1O9SPwvR5Sb1cR2BQg/z3m0BROpt6x/IQY2o/+e9raW1o1amv3OMf7LSi+2qY8k9329fqoYO6I0j6x232YZhzICkm/7xPbajyP60hGKlA728Dw/7xz2N40TsmCThPYRzO+annW0JERA2KwUgF77zzDr744guMjIzoQcbltZrJHXuZiiTc2lGH5QKyuuOmDRzePW5nHBTT56W2IKF2+vgTXtojGO55LQU7GOptASLpqT3RrRabKPjbM6kgw5wDSTG5Zd1TR1W9v5bQN4H04HcGNi1g5vWTyKjAbaSmtBARUeNiMFJBe3s7vv76aySTST3IuLxWs75WXZF0hdIG65i4Kx0w60yn+Lb8SnPmc+mgepBaMdjjpmVWkJ1z0za7ZM9L1kvL2A6bNXfU7Dtt+qREvoKs+3Ys2glFp4oW1/3+NpJuKauzDYMJtb3P7XXSaRQz6p0DP22i6NapvbRW6P1tIOsHGKYzq+mHEv0atAmG9rt1iojoecNgpAoJPkZHR/VQVyCiybc7TIdHv4n/wkPM9pza3Vdidd+CIGWQ65WOoUFwUsKrZK/t/hsZkloyv98h+3yEbPfJmlswAh1I23KbCledF90x056Ta6bzaGln1cr014rPIZTqMP1dghYG72vKZplvgZ4W/Xop28nW6z9z7SlSTronfA4kpdKC6ateH5LdMPtL2f5D4fMaOTeSwkqcrOvcEBE1oqZtxY4TERERPXMMRg6I3NkS7Zf/9+UU/mnnfn6lmYjo+cFghIiIiGLFPiNEREQUKwYjREREFCsGI0RERBQrBiNEREQUKwYjREREFCsGI0RERBQrBiNEREQUKwYjREREFCsGI0RERBQrBiNEREQUKwYjB2odE1e8J7Caoa4n6OrH6y9gotKTeYmIiA4BBiMHRgIR8wj47Zu9djgJTLkByQpG6g1QiIiIDhkGIwfmBxSKQKa3w06LDmT6m5GdX7HTO+hM4t7NHox22mkiIqJDiE/trWJ1dRWffvqpHn/nnXfQ3t6ux2vjtIxcdAMSj52vAhaROdeL9Pw8smgBFjeQS7Rh6V1g5NoTDF5WAQkKOKPGU91AdnHLrNQd3vbMjXkML5rxTHeLWg6YvnkaQ+Yln14Owbr5OwvoWjiOpatJpLz5djuQctjXRWgemjEuZfOCJUkrXVtDTsYTLchgA/meU7h3tlXP1vuZs2WPbJeIiF5cbBmpQAKR1157DYVCQQ8yLq/VrhWj77YhvfjI7y9y5s66nSfU/KsnVYVtApHJPvNqTlX0GUnplK2ot1Sw0m5SPpfNtv0Uz/0HKkhoUcGHpINOIVncsDPqJNspqkDBppamE2sY8codnde9hbHPvVYeFVzdWgP6T5nyDaigyQZamlq3a+6ILZ/ZbteNGluIiIjoUGMwUoG0iLz55puYnJzUg4x7rSQ102kWU/ku9TcjN/dw506s3a0lLRmBZoy/ZVtCOl8KBSsz8yr48NdVgc5Aix7bleIasraMQxd7/ZYN9J12gqR1nYbyLa9httiMwde9ZTswnjCjQsqX7u/wj23oLQmm1jFjp4mI6MXFYOQZSZ3t8YOS7NSDfa6ETWCQPnHMTu+BBBznWlQZy3wDSH+7x3v9W8zal7Xlp8jhCJJl+7eY8nnBmB50OmcTBX5TiIjohcdgpALpI/LFF19gZGREDzIur9Xs/gM0XSkgbyc9qZeP2LH91IpkQlX2j3+w03skAYnTouMFTzOfqwBC+qnoeT3IOC0f6DyKdMXgwpQv7aVw/IGdc4mIiMFIRdJZ9euvv0YymdSDjNfVgbWvFZlitF/EOibuuumU/TPUKx1fvbSH3U8FqRPNoWVnF2ynUkU6mbpBlA6eEkeDlFDxRzNvuaA7yPo62zCY2MLsV17/khW/c66Q8uXmVvwWIb2fC/vdQkRERI2IwUgVEnyMjo7qob5v0ogOTN48hfFi0IG16cJDzPaccr4B04G0fDtmKtq5dRf6TmO6ewPDNoWCnsp9RlJn2/U3XcotK+kk3bnUK/PUJsbfNf1EdD8PCbDk9VvQX1P2gxPbYRdeKmb+aKjPiJRvqX/T7nMeXXPA+OXSb/oQEdGLh1/tPawkTXT3aIxfnzVfXS4MBN8UIiIiKofByAGRu/9nRfpf6N/weNxuW13sb5jY3zg56LLI/s2vya4i6f3uiARD0qpipyuV4VTiKP72aredIiKiFxGDkUNDgoFHyNqpOH5ULPSjZor7+ylERESVMBghIiKiWLEDKxEREcWKwQgRERHFisEIERERxYrBCBEREcWKwQgRERHFisEIERERxYrBCBEREcWKwQgRERHFquGDEfnVT/chczM35jFy3/zbFHpi7rMmv4hargzyU+2mjAfP7GvPD+EjIiI6QI0fjDzeQurlVju1jkKxGUl5NsrzYnEVE8t2/Hm2XMCZCwt+WfUj/q8U7BN5iYiIDk6DByMryC22IO09/2R5DbM4jsHnKBhJJ4CxW6zUiYiIKmnsYOT+OrLdrRiyk/mvngA9bc7D4X7UaQp5YmzThQeYsa9q8lRZ/boZQqmM0LygtcCw6Rc77JRuSQ20I1Ncw0i1VIlulYjuL5rOMfsNT4eX9ctcJT2l01cly6ltXVtDDlsYu6a2+cUD88A7Ve4up3Wk/Lrm9TM3HphjsMuHlmULCxERVRFrMHL79m0kEgk9yHi98t9vIn3imJ2KpmyUxTUUBnr1I+6nuzcw7FeKqvLVj7c387bPtSA3t2KDlei8I07LhlT6j5DvP2XmXW5DfioarER1YDK0/SgTCKTOOfu7JoFTKwZ7mpGdt5W+CrzyifB0NmFagfJ3vsVY4qRZ/+YpjBcflQ2SJPUyXGzDkrOcCcJUGdWxpNFsHvn/5mks9TeHnvxbeV0jtwhkZJ4sr4K5YFl17hM7BGNERPRCizUYuXTpElZXV/Ug4/VZx+wCMPi6F3xEUjZCVaYZOz30lqpsi08wqwMHVfneVJWuTedIUBO2hbHPbaXfd9pUsDIuaaBiCzJn7T47k8h0b2H2qx0qWrUNHQyVa7HQQUVQTvR1YDyxgZwKJlIvHwGKP+pASMpoWlnM9Mz8BtJuK5DfN6UVo1fLPbpfztcWMgP2WGS5ARUkLazV0GpRw7pOC5VWXEPWBkRDF3txzztnREREEQ2cpvkBheKRoLPqsqqkE0eDylkkXgqmO53xSFpjRAU1AQlUTiKz+ChIM3hBxPJT5KCCCu91NQwvArnHP5j5VehgSG0z2mKhAyFJh/jbfIixoryuApy+VhV8SABlAq9k5zEkYaalo64XiKXO9mCpHxi75m2jXGuNnC8gO+Uto4apDbXvpzUEI3WuKwHcuZbQ8juls4iI6MUVazBy/fp1tLe360HG67Jjf5EICVbsKO6vqAq/BdM2jXBv4Iid4ZGAxMyTVIwfRHQeRRrBev5wscOsVk1nEpP9zcjeXUHBviR064ekQyLbNC0JHUh3b6GwrIIB3TFXUjdA4avSjroSkHjrTqt1SjvNqkAmAWS8dJA/nA63aJS1i3UlILHLSconOxXps0NERGTFGoycP38exWJRDzJeD0lTZHq9ICCasrGcr9XOfL6GnO1jYWyqSl7+XcfEXXWX74l8xdW0qNivC3e2YTCxgazf/0E6kdb+Ox6ps69gHGr9on1B6NaPIKXhdWb1WhJSJySAWUXetvJI8JJfCAde0d9UkXVCrUKa7YNyNwhS9Ho1dS6tb93o14JNwBVptSIiIrIaNE0T/T2RSMrG030cuGXSBMOLLZj2+n7ofhnyzRGZ9y0wIJ03bXDSmcQ93YnUrNd0QTqsvmL7l0h/jJNIzT3052W7T9bRH8L0tQgznUfzXkrj2hrQf8rv85F6/TjSxS3A66jbeRRQwYwbeA1dNB1KTZnm0TV3BNNlWmuk9UQ6k3opodA50YGWOScSCJn9yrKmRaPquhHRZZukQ/C75ZclIiJq2lbsOBEREdEz17DBiNxxU2P5373Whj//3yftFBERkcGWESIiIopVA3+1l4iIiA4DBiNEREQUKwYjREREFCsGI0RERBQrBiNEREQUKwYjREREFCsGI0RERBQrBiNEREQUKwYjREREFKtDEYzop8S6T9rdpejTZusRfXJuyP0HqnzlHqG/jokrwRN6DfNaSTkqbiOscjkqbFc4TwquehxEREQH4BAEI+uYXQAy3cDsV7U9yv/50YpkAsjOu5W/PIG4GWk8wawTXM3MbwDdrRiy0/VrxWBPM1B8WhKM5L96ghxakLZPCiYiInqWGj8Yub+CMRxHpvcIcnMrO7YcHJShi73YLvPY/p0M9baoAOHHIEC4v45sdzsyiS0U/GBkXQUoKuDqrX/7rtTrx1WQs4FcpCVmdmEL6f4OHejs9jiIiIh2q+GDEWkxSPe0IdXXiky0otXphwWM3JA0zrwZQikIm7rQ8xaQfWxfFpIWufIAI3p+kALSaYwy24qmN9zlRqo9YLjzKNJOa0X++02kTxzTQUrQYmJaS5KddhIrGPHKINsPBRfiR+e4nNROZxsGoy0xy2uYVdsefL1VT0aPw6TA7Lb8FI/s30mL2fMcnt45pURERCRiDUZu376NRCKhBxmv3wpyi15F2oFMf3Mk5SG2kEU7tm+qO/7LbUgvPvIr7/ydbzGGNizJvJvtwOKWmeEpbgADMq8HoyoQkIp5uOgtfxIZta0zd8qkhlQgM7zYgmm93CkkZTuV6ADBC6JMykkfjwQpi+umQl/+EfnEcQzqYEQCqEfI95/yjyk/Fekvs7iGgi53L6a7NzDsBxE2VeNtV9EpGn/bEeo4uuaO2ONQ20qsoUsHKh1Id2/5aTHZBlSQ407n9pRSIiKiF0mswcilS5ewurqqBxmvm01pSKAgdBrCqWiNZoy/ZdMOnS8hZcYUm56QVhU9bYKZMLcfRfnlcwtrJX0wwv07WjE60KLHyjP9RvLfS0UuLSBHTAuIDlI2dapGV/befnVLRgsyZ01LBjqTyDiBgZZoQ8aWe+gtFYAVg/4nJlVjtlt6TGG61cmmb4Telj2/qRPq2B//oF/PP1YB1MBxQE+bbe41pURERC+OBk7TrGPirqr0Fx8FaYRra8hhA9lyrRUlpOJXlerLtlJXUi8fsWPllC5fnunfIakWn7Ry2NFyJCWjK3YdXAVBzGCPaW3IP94K9rv8VB/jsHfMahhehB8YaAkn6AoFYIoOcmzwEknRhJnjyM09jJxfE8gEgZ+0TqkAqk/tR0/LeWJnWCIiql2swcj169fR3t6uBxmvi20h8FII3rBUobWi1DGnRcKQ/hqVlS5fnmnpCAUHOoCoQvcb+REztr+IR4Kj3OO1cOWuA5vS467Y6VRSPHbUMKkaOUcz1VI09jjSXjrIH0zKym+5ua+2rwMoSd2oaRUIBgEVERHRzmINRs6fP49isagHGa9HpX4J+o7dSUtUZitl/xs4Jr1QWVCJe504s3PlUxz6GzKLq0GnV0nbVCMVO1TAIukOt5VCOuXKseCo09Jh+pgErT+mM2uo74q778/XSgIOc47WMFyh/B7dYuN8Q8l0ZvU6pkqwsoXZu08AG0ClTkCdw02maIiIqC4NmqYxgUDZSs+mIcY+j3ZkLZU622M6eOo0xEMUEtX6dtjlpROnXv4Rst0ncc/ru+HqO42lfmDsmklvZKXviZ1VnlTsKsCQdEeoleIYklABUihgaMXo1ZNI+emTMuXoPg7cMvvWHWmvJsukamSkUorG0sex6aeEuuaA8cungz4kEqwUgxSSbskpHmGKhoiI6tK0rdhxIiIiomeuYYMRuVOn59u/fftl/Ks/PGGniIiIymPLCBEREcWqgb/aS0RERIcBgxEiIiKKFYMRIiIiihWDESIiIooVgxEiIiKKFYMRIiIiihWDESIiIooVgxEiIiKKFYMRIiIiitUhCEbWMXHFPMjNG0JPsLXzw695zBNvR+7bSV+l18tYLuDMhQX/Kbm1mrkRLnNN+9Lc46l2bGF6fzd2fnjgvtvl+SEiohdHgwcjEjQ8xFjiJLZv9trBPtG2QsUbW6XsMwHEcLENS16ZL7chP1VPQPJ8i/8cExFRI2noYGTmxiNkE6pSv9hhXxEdmDzXAiyuY0ZPyyP3e8s/6j8O91cwVow81r8zicn+ZmTvFpC3Lx0a6tju3ezBaKedJiIiimjgYGQFuUUgM+BU6p6+09i+eRpDeiJIZeTvLGBYrYPFR/Xdud9/gKYLD2xwo5RLPXwly5iUS7W0ycz8BtDdassWSJ3twbYboOh9mO011ZzmMMfqlSNUZu1HZ350nklNeeu6rTTS0nHmxgNTnis2YNLnJFjeO+aSc1xyrirtx14nbz96iJaRiIgOo1iDkdu3byORSOhBxuuy/KOqFJuRrOOOWyr86W410n0S205rSnYqqBzN8AhZO682WxhbOGrSLpfbgLmHFVIu6ygUgfSJY3a6ElVhX1tD6pxJ4yz1A2PXdq6Y83e+dVJWpzCe2EDWDYwW11AYMNuc7t7AsBdY6EDgEfL9p8y651rUOQkHQDrwk3k6YFLlm9rE+GWzLVk+N7eiy1fpHBt17MeWf5jpHiKiQy/WYOTSpUtYXV3Vg4zv1W47hWZspR8MJ5Gx82rlt9B0JpFRlXF2fg+V6P11FQy1IN1nJlNn21V5NpDb4Xh064ofAPygA5+QRBsydptDb7UhXXyCWQkEltcwW2zG4Os2ldXXoQKBLcx+5QQyodacDkw6qZf895tmZCc17Cfd32H304pkQo8QEdEh17hpms6XVOW/hYJzVz10cffBxN6EW2hSJ5rtWJSpYHOPf7DT5enKPXG0NP20k1DqZBX5aGWekHNm6fNnLT9FDkfqaGUKp4NGFuzLO6l7P0RE9CKINRi5fv062tvb9SDj9elAWlognsNOn/nHW3as1FCv27nW4fRLSb18BCg+rfO4VIBwdwNpLwVy8xUM2jll6TSX1XkUaWyGAruqvE64tiXp3oAqby3q3Q8REb0QYg1Gzp8/j2KxqAcZr9fQxZPIFNfQFepXYPol1NfnYwe6Eg3SJPmvnqg7fNcWxj63ZVguICv9Hnqj/SUsnZpw+2sI6YMhgYRNUfS1htIy+TurobRNNX6riw4YzKhvcdXvnzHz+RpyieMYlFaKzjYMuukSva6TTinLCypMEFSTXe2HiIgOu8ZN02jSd6EX03jkpwya5HdHYH7DY7JM5W1aJtTyoWBgB14/ENvRdQTHI2mgZoyfWDf7v7YG9J8qu2/DfNV4OqGCKL/Mj4Bz7teP1XHZ3x6R+V1zwPhl79tBlajtDthjk23Ot+qOpKGUUPdx4JbZ5vCi+/ViKZP9fRZZVwVGmXNVvo5r+3qMXZNtfQsMtIVaPCqf4zr3Q0REL4SmbcWOExERET1zDRuMyJ01vRj++e8cx5ejv2OniIjosGHLCBEREcWqwfuMEBERUaNjMEJERESxYjBCREREsWIwQkRERLFiMEJERESxYjBCREREsWIwQkRERLFiMEJERESxYjBCREREsWIwQkRERLFiMEJERESxYjBCREREsWIwQkRERLFiMEJERESxYjBCREREsWIwQkRERLFiMEJERESxYjBCREREsWIwQkRERLFiMEJERESxYjBCREREsWIwQkRERLFiMEJERESx2iEYyWMi3YSmpmAY+czOepY+G1H7HsGMnTw4MxiR43y/dE8z7wevu+NhKxi5MI+R+3bSV+l1IiIiqhKMSCDShbHT09je3rbDNDAUU0DyLHyWQ/a9DDKf5J5B4LP/Zm7Mo+nGip0iIiJqDFWDkcKXQOb3h+y0GELmozSyv27EqnonKvi6kVXHm0HyjSyyH+ft60RERHSQqgQjKVUpoyTwSH1wD9u/dAMUm9qokMbRKQ1vftnURiC0bNMZTCzaGSGR1FFkm/mPzwTz0hNqaY+Us9I2lcVZzH6ZQfrtFAYH0sjdnXXWPQDLBZy5MI8mPSxgYlleXMfEFTedE03vyLS3bFj+zgKG5dgWHzmtI2Z9s49Imuj+A//1YP9ERETPXtVgZPRPx5H+ZNiv3M+UtBZIYDCM/EdLJo3zzTjyQ0GFL4HB8INxLOkUzxLGHwyX2Yb12Yiz7Dam38th7JelwUv+4xEndWS26QdAahtdH6Yw7c3DGLr8YGUIk9v3MNptJyPyKvjIvZdWS0nAlUHmSxWcVApcdpCdCgIAMzxC1s4zVJBwbQ2pc73YvtmLpX5g7NoDFS61YrCnGdl5G0zcX0c+EZ7OJo5jsNNMulJnezAtx9Z9EtsXO9SIBDaPkO8/pfexfa5FlcsLOtT+pzYxftnsf/vcEYzdKhxs8EVERFRB9Q6s3aO4Z4ODpY/SyH3YpYMSv/K3rQmZD1JmWi2fUUHE7F2p1vLq3xwyF0dVWCNUcHMxU7nF4e1JbOe8ZfMoPNAj5X2StQGP2mZuG5Nv61cx82tV5duAwtsfaur/IWUFxt/3WnyGkPaPo34ZG2QEw0mokgQkqEAL0n1mMnW2Xc3fQO6+Gn/5CFD8UZ+j/PebSA2oeXZ6Zn4D6Z42e452sLyG2WIzBl9vNdN9HRhPbGH2q3UzjS2MfW6DnL7T2L6arG27RERE+6x6MOLQ6RkblGSH7Ddb/raAnKpWh720iBqGPwFyBROMSJ+T7FAwr2lIBQtfVrgDX5zAGX87I5i1L0dJOZY+AsZe9Zb1WmJMAJNO7qJK/SyLsS9zzjbtcXyYrSGQqZ8EGUgcLV/597Wq4OMJZpfXMbsAJDuPIQkzXXCCC91Z1Wt5uVLmnC4/VdfmiFrfTod0YFICJEnpeNtgx1ciIopJ5WBEvk4b6nNhpE45VehvJ5FW9/QmLeIMuk+J6XOSmYnM2560LRdhM78cQ+49L/1yD5nTdkYZXmAkg07n/ELKqfan1jGBUH2kRSXtpZr8YVodWRa5A/jmkGn9eFo+KFOBQrp7C4XlH1CApGQkdQMUvlpTAVqQohm66LS8lGvV6Dyqrs2m2o6dLiEBiV3/chvSKjDhV4+JiCgOlYORt1WY8aXb50KYb5z4qZDuQQyGvnliOrOafiGmI2j2RhDQ6A6qZQIc3wN7h784gewn+pUS0d/4SCXTwGlTGQ/9vpuWiZS1ohnkPkmrskarc0nVlHbg3RfS+mHTMiJ/ZzWctjnRjP9/+/av0jAQxwH8FARnQTcfwkcwow8iSEYdfQLJqC8h1NUn0MlFC+3m4KCDDoKCi3Dmz1XTouJgPYTPB9L27n7J5br0S5Iend6H8dpyu64mvIyvnkL46S2axvpK2Orfljm/C3uTKyvtw7O9h1bXm3mWvriKAgBzFr81itVmiE3ZZCsORmlsYhDrCPBRszNI/Z3BTm8slHX1F4ZVrGNFV7dZxcFB0b63s52UvX1nz2n6mKNmv95xPs62Oc8iVsPUTNr6qbqedt5un3YdaW39z9NuY7l9Ecuz1Hz3Sf/NdSzqvtBul7G6Sf2NNFYcP/baMzWfORt3x9u/Tuvp5u3mmJl/Upu297nS91uepCYAzNlC81L/cAMAZCGM/KLV3cvw8PyaWv/P8tJieDncSC0A+BvCCACQ1Y//2gsAMA/CCACQlTACAGQljAAAWQkjAEBWwggAkJUwAgBkJYwAAFkJIwBAVsIIAJCVMAIAZCWMAABZCSMAQFbCCACQlTACAGQUwhs0ZcxlryHOPQAAAABJRU5ErkJggg==;" vertex="1" parent="8">
                    <mxGeometry y="28" width="547" height="727" as="geometry"/>
                </mxCell>
                <mxCell id="7" value="not Propery Clear" style="text;html=1;strokeColor=#005700;fillColor=#008a00;align=center;verticalAlign=middle;whiteSpace=wrap;rounded=0;labelBackgroundColor=none;fontColor=#ffffff;fontSize=16;" vertex="1" parent="8">
                    <mxGeometry x="215" width="158" height="43" as="geometry"/>
                </mxCell>
            </root>
        </mxGraphModel>
    </diagram>
</mxfile>